<svg xmlns="http://www.w3.org/2000/svg" width="14" height="16" viewBox="0 0 14 16">
  <path fill="#91A6B6" fill-rule="evenodd" d="M10.160553,0 L9.14195653,1 L1.50966585,1 C1.22247314,1 1,1.22308192 1,1.49826741 L1,14.5017326 C1,14.7800934 1.22401312,15 1.50034732,15 L12.4996527,15 C12.7709994,15 13,14.7755913 13,14.4987692 L13,4.17099287 L14,3.18080965 L14,15.0014977 C14,15.5529553 13.5500512,16 12.9931545,16 L1.00684547,16 C0.450780073,16 0,15.5553691 0,14.9991283 L0,1.00087166 C0,0.448105505 0.444836974,0 0.995577499,0 L10.160553,0 Z M3,10 L11,10 L11,11 L3,11 L3,10 Z M3,12 L11,12 L11,13 L3,13 L3,12 Z M4.6888125,8.78655738 L5.3915625,6.02360656 L7.5033125,8.09655738 L4.6888125,8.78655738 Z M9.2583125,2.28737705 L11.3695625,4.36008197 L8.0353125,7.57844262 L5.9238125,5.5057377 L9.2583125,2.28737705 Z M13.4810625,1.25114754 C13.7725625,1.53713115 13.7725625,2.00114754 13.4810625,2.28737705 L11.8973125,3.84196721 L9.7858125,1.7692623 L11.3693125,0.214672131 C11.6608125,-0.071557377 12.1335625,-0.071557377 12.4250625,0.214672131 L13.4810625,1.25114754 Z"/>
</svg>
