<svg version="1.1" id="Layer_1" xmlns="http://www.w3.org/2000/svg" xmlns:xlink="http://www.w3.org/1999/xlink" x="0px" y="0px"
	 viewBox="0 0 148.3 36" style="enable-background:new 0 0 148.3 36;" xml:space="preserve">
<style type="text/css">
	.st0{fill:#006192;}
	.st1{fill:#FFFFFF;}
</style>
<g>
	<g>
		<path class="st0" d="M139.4,0h-30.7c-1.5,0-2.7,1.2-2.7,2.6v30.8c0,1.4,1.2,2.6,2.7,2.6h30.7c1.5,0,2.7-1.2,2.7-2.6V2.6
			C142.1,1.2,140.9,0,139.4,0z"/>
		<path class="st1" d="M111.4,13.5h5.3v17.2h-5.3V13.5z M114.1,5c1.7,0,3.1,1.4,3.1,3.1c0,1.7-1.4,3.1-3.1,3.1
			c-1.7,0-3.1-1.4-3.1-3.1C111,6.3,112.4,5,114.1,5"/>
		<path class="st1" d="M120.1,13.5h5.1v2.3h0.1c0.7-1.4,2.5-2.8,5.1-2.8c5.4,0,6.4,3.6,6.4,8.2v9.4h-5.3v-8.4c0-2,0-4.6-2.8-4.6
			c-2.8,0-3.2,2.2-3.2,4.4v8.5h-5.3V13.5z"/>
	</g>
</g>
</svg>
