<svg xmlns="http://www.w3.org/2000/svg" width="10" height="10" viewBox="0 0 10 10">
  <path fill="#152435" fill-rule="evenodd" d="M6,4 L6,1.0093689 C6,0.451909848 5.55613518,0 5,0 L5,0 C4.44771525,0 4,0.443353176 4,1.0093689 L4,4 L1.0093689,4 C0.451909848,4 0,4.44386482 0,5 L0,5 C0,5.55228475 0.443353176,6 1.0093689,6 L4,6 L4,8.9906311 C4,9.54809015 4.44386482,10 5,10 L5,10 C5.55228475,10 6,9.55664682 6,8.9906311 L6,6 L8.9906311,6 C9.54809015,6 10,5.55613518 10,5 L10,5 C10,4.44771525 9.55664682,4 8.9906311,4 L6,4 Z"/>
</svg>
