<?xml version="1.0" encoding="UTF-8"?>
<svg width="18px" height="20px" viewBox="0 0 18 20" version="1.1" xmlns="http://www.w3.org/2000/svg" xmlns:xlink="http://www.w3.org/1999/xlink">
    <!-- Generator: Sketch 53.2 (72643) - https://sketchapp.com -->
    <title>add-file-green</title>
    <desc>Created with Sketch.</desc>
    <g id="add-file-green" stroke="none" stroke-width="1" fill="none" fill-rule="evenodd">
        <g id="icon-/-add-file">
            <g id="icon-/-document" fill-rule="evenodd">
                <path d="M1.00684547,16 C0.450780073,16 -1.95399252e-14,15.5553691 -1.95399252e-14,14.9991283 L-1.95399252e-14,1.00087166 C-1.95399252e-14,0.448105505 0.445462696,1.0658141e-14 0.998710953,1.0658141e-14 L9.00261442,1.0658141e-14 C9.27731289,1.0658141e-14 9.66015738,0.160157382 9.85310745,0.353107452 L13.6468925,4.14689255 C13.8419084,4.34190841 14,4.71945888 14,4.99414063 L14,14.9995679 C14,15.5520913 13.5500512,16 12.9931545,16 L1.00684547,16 Z" id="bg" fill="#329798"></path>
                <path d="M1.50034732,15 C1.22401312,15 1,14.7800934 1,14.5017326 L1,1.49826741 C1,1.22308192 1.23079681,1 1.50043583,1 L9,1 L9,5 L13,5 L13,14.4903505 C13,14.7718221 12.7709994,15 12.4996527,15 L1.50034732,15 Z" id="inset" fill="#FFFFFF"></path>
                <polygon id="curl" fill-opacity="0.7" fill="#FFFFFF" points="9 1 9 5 13 5"></polygon>
            </g>
            <path d="M8.02242151,16 C8.00758131,15.835319 8,15.6685448 8,15.5 C8,12.4624339 10.4624339,10 13.5,10 C13.6685448,10 13.835319,10.0075813 14,10.0224215 L14,16 L8.02242151,16 L8.02242151,16 Z" id="mask" fill="#FFFFFF" fill-rule="nonzero"></path>
            <path d="M13.5,20 C15.9852814,20 18,17.9852814 18,15.5 C18,13.0147186 15.9852814,11 13.5,11 C11.0147186,11 9,13.0147186 9,15.5 C9,17.9852814 11.0147186,20 13.5,20 Z" id="circle" fill="#329798" fill-rule="evenodd"></path>
            <path d="M14,15 L16.0089948,15 C16.2801695,15 16.5,15.2319336 16.5,15.5 C16.5,15.7761424 16.2721195,16 16.0089948,16 L14,16 L14,18.0089948 C14,18.2801695 13.7680664,18.5 13.5,18.5 C13.2238576,18.5 13,18.2721195 13,18.0089948 L13,16 L10.9910052,16 C10.7198305,16 10.5,15.7680664 10.5,15.5 C10.5,15.2238576 10.7278805,15 10.9910052,15 L13,15 L13,12.9910052 C13,12.7198305 13.2319336,12.5 13.5,12.5 C13.7761424,12.5 14,12.7278805 14,12.9910052 L14,15 Z" id="plus" fill="#FFFFFF" fill-rule="evenodd"></path>
        </g>
    </g>
</svg>