<svg xmlns="http://www.w3.org/2000/svg" width="12" height="10" viewBox="0 0 12 10">
  <path fill="#91A6B6" fill-rule="evenodd" d="M0,1 C0,0.44771525 0.455760956,0 1.00247329,0 L10.9975267,0 C11.5511774,0 12,0.443864822 12,1 C12,1.55228475 11.544239,2 10.9975267,2 L1.00247329,2 C0.448822582,2 0,1.55613518 0,1 Z M3,5 C3,4.44771525 3.45097518,4 3.99077797,4 L8.00922203,4 C8.55641359,4 9,4.44386482 9,5 C9,5.55228475 8.54902482,6 8.00922203,6 L3.99077797,6 C3.44358641,6 3,5.55613518 3,5 Z M5,9 C5,8.44771525 5.44386482,8 6,8 C6.55228475,8 7,8.44386482 7,9 C7,9.55228475 6.55613518,10 6,10 C5.44771525,10 5,9.55613518 5,9 Z"/>
</svg>
