<svg xmlns="http://www.w3.org/2000/svg" width="6" height="10" viewBox="0 0 6 10">
  <path fill="#4DC9FF" fill-rule="evenodd" d="M8,2.75 C8,2.33575 7.6802381,2 7.28571429,2 C7.09309524,2 6.91857143,2.08025 6.79,2.21025 L6.7897619,2.21 L2.99833333,6.191 L-0.744047619,2.2615 C-0.875,2.1015 -1.06904762,2 -1.28571429,2 C-1.6802381,2 -2,2.33575 -2,2.75 C-2,2.95125 -1.92428571,3.134 -1.80119048,3.26875 L-1.80309524,3.27075 L2.48261905,7.77075 L2.48285714,7.7705 C2.61285714,7.912 2.795,8 2.99690476,8 L2.99857143,8 L3.0002381,8 C3.20238095,8 3.38404762,7.912 3.51428571,7.7705 L3.51452381,7.77075 L7.8002381,3.27075 L7.8,3.2705 C7.92380952,3.13575 8,2.95225 8,2.75 L8,2.75 Z" transform="rotate(-90 3 5)"/>
</svg>
