<svg xmlns="http://www.w3.org/2000/svg" width="9" height="8" viewBox="0 0 9 8">
  <path fill="#DCE6ED" fill-rule="evenodd" d="M9,0.714285714 C9,0.319761905 8.66425,0 8.25,0 C8.04775,0 7.86425,0.0761904762 7.72925,0.199761905 L4.2295,3.48571429 C4.088,3.61595238 4,3.79761905 4,4.00309524 C4,4.205 4.088,4.38714286 4.22925,4.51738095 L7.73125,7.80119048 C7.866,7.92428571 8.04875,8 8.25,8 C8.66425,8 9,7.6802381 9,7.28571429 C9,7.06904762 8.8985,6.875 8.7385,6.74404762 L5.809,4.00166667 L8.78975,1.21 C8.91975,1.08142857 9,0.906904762 9,0.714285714 Z M4,1.71428571 C4,1.3197619 3.66425,1 3.25,1 C3.04775,1 2.86425,1.07619048 2.72925,1.1997619 L0.2295,3.48571429 C0.088,3.61595238 0,3.79761905 0,4.00309524 C0,4.205 0.088,4.38714286 0.22925,4.51738095 L2.73125,6.80119048 C2.866,6.92428571 3.04875,7 3.25,7 C3.66425,7 4,6.6802381 4,6.28571429 C4,6.06904762 3.8985,5.875 3.7385,5.74404762 L1.809,4.00166667 L3.78975,2.21 C3.91975,2.08142857 4,1.90690476 4,1.71428571 Z"/>
</svg>
