<svg xmlns="http://www.w3.org/2000/svg" width="7" height="10" viewBox="0 0 7 10">
  <path fill="#91A6B6" fill-rule="evenodd" d="M7,3.5 C7,3.77616667 6.77616667,4 6.5,4 C6.36516667,4 6.243,3.9465 6.153,3.85983333 L6.15283333,3.86 L3.49883333,1.206 L0.879166667,3.82566667 C0.7875,3.93233333 0.651666667,4 0.5,4 C0.223833333,4 0,3.77616667 0,3.5 C0,3.36583333 0.053,3.244 0.139166667,3.15416667 L0.137833333,3.15283333 L3.13783333,0.152833333 L3.138,0.153 C3.229,0.0586666667 3.3565,0 3.49783333,0 L3.499,0 L3.50016667,0 C3.64166667,0 3.76883333,0.0586666667 3.86,0.153 L3.86016667,0.152833333 L6.86016667,3.15283333 L6.86,3.153 C6.94666667,3.24283333 7,3.36516667 7,3.5 Z M6.5,6 C6.77616667,6 7,6.22383333 7,6.5 C7,6.63483333 6.94666667,6.75716667 6.86016667,6.84716667 L3.86,9.847 C3.76883333,9.94133333 3.64166667,10 3.49783333,10 C3.3565,10 3.229,9.94133333 3.13783333,9.84716667 L0.139166667,6.84583333 C0.053,6.756 0,6.63416667 0,6.5 C0,6.22383333 0.223833333,6 0.5,6 C0.651666667,6 0.7875,6.06766667 0.879166667,6.17433333 L3.49883333,8.794 L6.153,6.14016667 C6.243,6.0535 6.36516667,6 6.5,6 Z"/>
</svg>
