<svg xmlns="http://www.w3.org/2000/svg" width="8" height="14" viewBox="0 0 8 14">
  <path fill="#91A6B6" fill-rule="evenodd" d="M7.72,12.3056667 L2.412,6.998 L7.65133333,1.75866667 C7.86466667,1.575 8,1.30333333 8,1 C8,0.447666667 7.55233333,0 7,0 C6.731,0 6.488,0.106 6.30833333,0.278333333 L6.30566667,0.275666667 L0.305666667,6.27566667 L0.306,6.276 C0.117333333,6.458 0,6.713 0,6.99566667 L0,6.998 L0,7.00033333 C0,7.28333333 0.117333333,7.538 0.306,7.72 L0.305666667,7.72033333 L6.30566667,13.7203333 L6.306,13.72 C6.486,13.8933333 6.73033333,14 7,14 C7.55233333,14 8,13.5523333 8,13 C8,12.7303333 7.89333333,12.486 7.72,12.3056667 L7.72,12.3056667 L7.72,12.3056667 Z"/>
</svg>
