<svg xmlns="http://www.w3.org/2000/svg" width="10" height="6" viewBox="0 0 10 6">
  <path fill="#91A6B6" fill-rule="evenodd" d="M10,0.75 C10,0.33575 9.6802381,0 9.28571429,0 C9.09309524,0 8.91857143,0.08025 8.79,0.21025 L8.7897619,0.21 L4.99833333,4.191 L1.25595238,0.2615 C1.125,0.1015 0.930952381,0 0.714285714,0 C0.319761905,0 0,0.33575 0,0.75 C0,0.95125 0.0757142857,1.134 0.198809524,1.26875 L0.196904762,1.27075 L4.48261905,5.77075 L4.48285714,5.7705 C4.61285714,5.912 4.795,6 4.99690476,6 L4.99857143,6 L5.0002381,6 C5.20238095,6 5.38404762,5.912 5.51428571,5.7705 L5.51452381,5.77075 L9.8002381,1.27075 L9.8,1.2705 C9.92380952,1.13575 10,0.95225 10,0.75 L10,0.75 Z"/>
</svg>
