<?xml version="1.0" encoding="UTF-8"?>
<svg width="14px" height="16px" viewBox="0 0 14 16" version="1.1" xmlns="http://www.w3.org/2000/svg" xmlns:xlink="http://www.w3.org/1999/xlink">
    <!-- Generator: Sketch 50.2 (55047) - http://www.bohemiancoding.com/sketch -->
    <title>arrow-convert</title>
    <desc>Created with Sketch.</desc>
    <defs></defs>
    <g id="Symbols" stroke="none" stroke-width="1" fill="none" fill-rule="evenodd">
        <g id="arrow-/-convert" fill="#91A6B6">
            <path d="M10,0 L13.2915569,3.27902232 C13.6828221,3.66880434 13.6840244,4.30196818 13.2942423,4.69323333 L10,8 L8.5,6.5 L10,5 L2.5,5 C2.22385763,5 2,5.22385763 2,5.5 L2,7 C2,7.55228475 1.55228475,8 1,8 C0.44771525,8 -2.65431532e-16,7.55228475 -3.33066907e-16,7 L-8.8817842e-16,5.5 C-1.05726686e-15,4.11928813 1.11928813,3 2.5,3 L10,3 L8.5,1.5 L10,0 Z M4,16 L0.708443092,12.7209777 C0.317177944,12.3311957 0.315975637,11.6980318 0.705757664,11.3067667 L4,8 L5.5,9.5 L4,11 L11.5,11 C11.7761424,11 12,10.7761424 12,10.5 L12,9 C12,8.44771525 12.4477153,8 13,8 C13.5522847,8 14,8.44771525 14,9 L14,10.5 C14,11.8807119 12.8807119,13 11.5,13 L4,13 L5.5,14.5 L4,16 Z" id="arrow-convert"></path>
        </g>
    </g>
</svg>