<?xml version="1.0" encoding="UTF-8"?>
<svg width="8px" height="10px" viewBox="0 0 8 10" version="1.1" xmlns="http://www.w3.org/2000/svg" xmlns:xlink="http://www.w3.org/1999/xlink">
    <!-- Generator: Sketch 52.2 (67145) - http://www.bohemiancoding.com/sketch -->
    <title>auto_apply-white</title>
    <desc>Created with Sketch.</desc>
    <g id="Symbols" stroke="none" stroke-width="1" fill="none" fill-rule="evenodd">
        <g id="icon-/-misc-/-auto-apply---white" transform="translate(-1.000000, 0.000000)" fill="#FFFFFF" fill-rule="nonzero">
            <path d="M6.08657888,8.75 L5.53931318,9.42695627 C5.394046,9.60664874 5.12908079,9.63578265 4.94749682,9.49202867 C4.76591285,9.34827469 4.73647227,9.08606954 4.88173945,8.90637706 L8.2501605,4.7397104 C8.4987964,4.43215297 9,4.60613432 9,5 L9,9.16666667 C9,9.39678531 8.81148832,9.58333333 8.57894737,9.58333333 C8.34640642,9.58333333 8.15789474,9.39678531 8.15789474,9.16666667 L8.15789474,8.75 L6.08657888,8.75 Z M8.16817025,7.91666667 L8.16817025,6.18782544 L6.7705386,7.91666667 L8.16817025,7.91666667 Z M4.89411053,4.16666667 L6.47448272,4.16666667 C6.8296939,4.16666667 7.02529262,4.57512786 6.80035948,4.84718241 L3.0108858,9.43051575 C2.73002805,9.77021059 2.1777685,9.50473377 2.27398291,9.07627898 L3.00222333,5.83333333 L1.42185114,5.83333333 C1.06663997,5.83333333 0.871041244,5.42487214 1.09597439,5.15281759 L4.88544807,0.569484254 C5.16630582,0.229789409 5.71856537,0.495266235 5.62235096,0.923721024 L4.89411053,4.16666667 Z" id="auto_apply-white"></path>
        </g>
    </g>
</svg>