<svg xmlns="http://www.w3.org/2000/svg" width="16" height="16" viewBox="0 0 16 16">
  <path fill="#91A6B6" d="M10.5729852,9.50129345 C11.34356,8.73155086 12.5924521,8.73155086 13.3615173,9.50148905 L14.9227626,11.0627756 C15.6924451,11.8333306 15.6924451,13.0814456 14.9228296,13.8510811 L14.0667825,14.7084237 C13.1582876,15.617723 11.7324994,15.7600063 10.6587816,15.0501625 C6.84167186,12.5253783 3.47490686,9.15852466 0.95008137,5.34115148 C0.239675154,4.26614586 0.382152383,2.84432356 1.29303949,1.93341248 L2.14897583,1.07745361 C2.9188937,0.307515465 4.16778578,0.307515465 4.93770365,1.07745361 L6.49958556,2.63937674 C7.26856611,3.40923008 7.26856611,4.6564067 6.49978105,5.42691666 L6.30162454,5.62459581 C7.52158247,7.07115687 8.92587895,8.4756255 10.3752829,9.69924275 L10.5729852,9.50129345 Z M13.0011398,3.50334717 L13.0011398,6.73929352 C13.0011398,7.0145379 12.8456961,7.08719704 12.6539467,6.89544759 L9.10569219,3.34719309 C8.91963492,3.16113583 8.9838553,3 9.26184626,3 L12.4977926,3 C12.773037,3 13.0011398,3.2253562 13.0011398,3.50334717 Z"/>
</svg>
