<svg xmlns="http://www.w3.org/2000/svg" width="17" height="16" viewBox="0 0 17 16">
  <path fill="#91A6B6" fill-rule="evenodd" d="M14,12 L14,11.5 C14,10.6715729 14.6657972,10 15.5,10 C16.3284271,10 17,10.6657972 17,11.5 L17,13.5 C17,14.3284271 16.3228912,15 15.5046844,15 L15,15 L15,16 L14,16 L14,15 L3,15 L3,16 L2,16 L2,15 L1.49531555,15 C0.669475576,15 0,14.3342028 0,13.5 L0,11.5 C0,10.6715729 0.665797234,10 1.5,10 C2.32842712,10 3,10.6657972 3,11.5 L3,12 L14,12 Z M8,6 L8,11 L3.95054493,11 C3.75258651,10.0151334 2.98047735,9.24718361 2,9.04961998 L2,8.0048815 C2,6.89761602 2.89826062,6 3.99791312,6 L8,6 Z M9,6 L13.0020869,6 C14.1017394,6 15,6.89761602 15,8.0048815 L15,9.04961998 C14.0195226,9.24718361 13.2474135,10.0151334 13.0494551,11 L9,11 L9,6 Z M14,2.95369721 L14,5.17106282 C13.6872211,5.06030521 13.3506354,5 13,5 L13,2.96112727 C12.0661514,2.81844341 11,2.2646055 11,1 L16,1 C16,2.16403722 14.9338486,2.78687912 14,2.95369721 Z M1,0 L7,0 L7,4 L1,4 L1,0 Z M2,1 L2,3 L6,3 L6,1 L2,1 Z"/>
</svg>
