<svg xmlns="http://www.w3.org/2000/svg" width="15" height="14" viewBox="0 0 15 14">
  <path fill="#91A6B6" fill-rule="evenodd" d="M1.77832341,1.44335318 C1.90075201,1.19849598 2.21484375,1 2.49769878,1 L7,1 L7,5 L0,5 L1.77832341,1.44335318 Z M13.2216766,1.44335318 L15,5 L8,5 L8,1 L12.5023012,1 C12.7851562,1 13.099248,1.19849598 13.2216766,1.44335318 Z M0,6 L15,6 L15,14.0024554 C15,14.553384 14.5510798,15 13.992516,15 L1.00748397,15 C0.45106594,15 0,14.5536886 0,14.0024554 L0,6 Z M9,11 L9,13 L13,13 L13,11 L9,11 Z M3,7 L3,9 L1.5,9 L3.5,11.5 L5.5,9 L4,9 L4,7 L3,7 Z" transform="translate(0 -1)"/>
</svg>
