<?xml version="1.0" encoding="UTF-8"?>
<svg width="17px" height="16px" viewBox="0 0 17 16" version="1.1" xmlns="http://www.w3.org/2000/svg" xmlns:xlink="http://www.w3.org/1999/xlink">
    <!-- Generator: Sketch 50.2 (55047) - http://www.bohemiancoding.com/sketch -->
    <title>category-showroom</title>
    <desc>Created with Sketch.</desc>
    <defs></defs>
    <g id="Symbols" stroke="none" stroke-width="1" fill="none" fill-rule="evenodd">
        <g id="icon-/-category-/-showroom" fill="#91A6B6">
            <path d="M2,8 L3,8 L3,12 L14,12 L14,8 L15,8 L15,14 C15,15.1045695 14.1045695,16 13,16 L4,16 C2.8954305,16 2,15.1045695 2,14 L2,8 Z M2.50000002,7.50000003 C1.11928814,7.50000005 1.10456924e-08,6.38071192 0,5 C0,4.48981624 0.938897449,3.08147007 3.1,0.2 C3.19442719,0.0740970787 3.34262135,0 3.5,0 L13.5,0 C13.6573787,0 13.8055728,0.0740970787 13.9,0.2 C16.0611026,3.0814701 17,4.48981625 17,5.00000005 C17,6.38071191 15.8807119,7.50000002 14.5,7.50000003 C13.6822005,7.50000004 12.9561144,7.10732849 12.5,6.50024376 C12.0438856,7.10732848 11.3177995,7.50000003 10.5,7.50000003 C9.68220053,7.50000004 8.9561144,7.10732849 8.5,6.50024376 C8.04388561,7.10732848 7.31779949,7.50000003 6.50000002,7.50000003 C5.68220053,7.50000004 4.9561144,7.10732849 4.5,6.50024376 C4.04388561,7.10732848 3.31779949,7.50000003 2.50000002,7.50000003 Z M1,5 C1.00000001,5.82842716 1.67157288,6.50000004 2.50000001,6.50000003 C3.32842713,6.50000003 3.99999999,5.82842716 4,5.00000005 C4.00000001,4.33333338 4.99999999,4.33333338 5,5.00000005 C5.00000001,5.82842717 5.67157289,6.50000004 6.50000001,6.50000003 C7.32842713,6.50000003 7.99999999,5.82842716 8,5.00000005 C8.00000001,4.33333338 8.99999999,4.33333338 9,5.00000005 C9.00000001,5.82842717 9.67157289,6.50000004 10.5,6.50000003 C11.3284271,6.50000003 12,5.82842716 12,5.00000005 C12,4.33333338 13,4.33333338 13,5.00000005 C13,5.82842717 13.6715729,6.50000004 14.5,6.50000003 C15.3284271,6.50000003 16,5.82842716 16,5.00000005 C16,4.84781354 14.9963655,3.33818328 13.2497031,1 L3.7502969,1 C2.00363455,3.33818322 1,4.84781353 1,5 Z" id="category-showroom"></path>
        </g>
    </g>
</svg>