<svg xmlns="http://www.w3.org/2000/svg" width="17" height="16" viewBox="0 0 17 16">
  <path fill="#91A6B6" fill-rule="evenodd" d="M1,16 L1,8 L0,8 L0,7 L4,7 L4,6 L1.99895656,6 C1.44724809,6 1,5.54902482 1,5.00922203 L1,0.990777969 C1,0.443586406 1.4556644,8.8817842e-16 1.99539757,8.8817842e-16 L10.0046024,8.8817842e-16 C10.5543453,8.8817842e-16 11,0.45097518 11,0.990777969 L11,5.00922203 C11,5.55641359 10.5573397,6 10.0010434,6 L8,6 L8,7 L17,7 L17,8 L16,8 L16,16 L15,16 L15,8 L2,8 L2,16 L1,16 Z M2,4.99999999 L10,4.99999999 L10,0.999999988 L2,0.999999988 L2,4.99999999 Z M8,9 L14,9 L14,16 L8,16 L8,9 Z M9,10 L9,15 L13,15 L13,10 L9,10 Z M10,11 L12,11 L12,12 L10,12 L10,11 Z M10,13 L12,13 L12,14 L10,14 L10,13 Z"/>
</svg>
