<svg xmlns="http://www.w3.org/2000/svg" width="16" height="16" viewBox="0 0 16 16">
  <path fill="#91A6B6" fill-rule="evenodd" d="M10.3333333,7 L16,7 L16,16 L8,16 L8,15 L0,15 L1,3 L10,3 L10.3333333,7 Z M8,2.5 L8,3 L7,3 L7,2.5 C7,2.5 7.08338512,1 5.5,1 C3.91661488,1 4,2.5 4,2.5 L4,3 L3,3 L3,2.5 C3,1.11928813 4.11928813,0 5.5,0 C6.88071187,0 8,1.11928813 8,2.5 Z M3,4 L3,5 L4,5 L4,4 L3,4 Z M7,4 L7,5 L8,5 L8,4 L7,4 Z M9,8 L9,15 L15,15 L15,8 L9,8 Z M14,9 C14,10.1045695 13.1045695,11 12,11 C10.8954305,11 10,10.1045695 10,9 L14,9 Z M13,9 L11,9 C11,9.55228475 11.4477153,10 12,10 C12.5522847,10 13,9.55228475 13,9 Z"/>
</svg>
