<?xml version="1.0" encoding="UTF-8"?>
<svg width="15px" height="15px" viewBox="0 0 15 15" version="1.1" xmlns="http://www.w3.org/2000/svg" xmlns:xlink="http://www.w3.org/1999/xlink">
    <!-- Generator: Sketch 46.2 (44496) - http://www.bohemiancoding.com/sketch -->
    <title>category-coworking</title>
    <desc>Created with Sketch.</desc>
    <defs></defs>
    <g id="Symbols" stroke="none" stroke-width="1" fill="none" fill-rule="evenodd">
        <g id="icon-/-category-/-coworking" fill-rule="nonzero" fill="#91A6B6">
            <path d="M7.5,3 C6.67157288,3 6,2.32842712 6,1.5 C6,0.671572875 6.67157288,0 7.5,0 C8.32842712,0 9,0.671572875 9,1.5 C9,2.32842712 8.32842712,3 7.5,3 Z M1.5,8 C0.671572875,8 0,7.32842712 0,6.5 C0,5.67157288 0.671572875,5 1.5,5 C2.32842712,5 3,5.67157288 3,6.5 C3,7.32842712 2.32842712,8 1.5,8 Z M13.5,8 C12.6715729,8 12,7.32842712 12,6.5 C12,5.67157288 12.6715729,5 13.5,5 C14.3284271,5 15,5.67157288 15,6.5 C15,7.32842712 14.3284271,8 13.5,8 Z M11.5,15 C10.6715729,15 10,14.3284271 10,13.5 C10,12.6715729 10.6715729,12 11.5,12 C12.3284271,12 13,12.6715729 13,13.5 C13,14.3284271 12.3284271,15 11.5,15 Z M3.5,15 C2.67157288,15 2,14.3284271 2,13.5 C2,12.6715729 2.67157288,12 3.5,12 C4.32842712,12 5,12.6715729 5,13.5 C5,14.3284271 4.32842712,15 3.5,15 Z M5.29777741,2.68433136 L5.29777741,2.68433136 C5.45797386,2.9815857 5.67659719,3.24269951 5.93827023,3.45229561 L3.70222259,5.31566864 C3.54202614,5.0184143 3.32340281,4.75730049 3.06172977,4.54770439 L5.29777741,2.68433136 Z M9.70222259,2.68433136 L11.9382702,4.54770439 C11.6765972,4.75730049 11.4579739,5.0184143 11.2977774,5.31566864 L9.06172977,3.45229561 C9.32340281,3.24269951 9.54202614,2.9815857 9.70222259,2.68433136 Z M1.69219839,8.99272184 C2.03701261,8.96650646 2.36227663,8.87034247 2.65383284,8.71838747 L3.30780161,11.0072782 C2.96298739,11.0334935 2.63772337,11.1296575 2.34616716,11.2816125 L1.69219839,8.99272184 Z M13.3078016,8.99272184 L12.6538328,11.2816125 C12.3622766,11.1296575 12.0370125,11.0334935 11.6921983,11.0072781 L12.3461672,8.71838747 C12.6377234,8.87034247 12.9629874,8.96650646 13.3078016,8.99272184 Z M9.05000906,14 L5.94999094,14 C5.98278487,13.838445 6,13.6712329 6,13.5 C6,13.3287671 5.98278487,13.161555 5.94999094,13 L9.05000906,13 C9.01721513,13.161555 9,13.3287671 9,13.5 C9,13.6712329 9.01721513,13.838445 9.05000906,14 L9.05000906,14 Z M7.5,10.65 C6.1745166,10.65 5.1,9.5754834 5.1,8.25 C5.1,6.9245166 6.1745166,5.85 7.5,5.85 C8.8254834,5.85 9.9,6.9245166 9.9,8.25 C9.9,9.5754834 8.8254834,10.65 7.5,10.65 Z M7.5,9.85 C8.3836556,9.85 9.1,9.1336556 9.1,8.25 C9.1,7.3663444 8.3836556,6.65 7.5,6.65 C6.6163444,6.65 5.9,7.3663444 5.9,8.25 C5.9,9.1336556 6.6163444,9.85 7.5,9.85 Z" id="category-coworking"></path>
        </g>
    </g>
</svg>