<?xml version="1.0" encoding="UTF-8"?>
<svg width="16px" height="12px" viewBox="0 0 16 12" version="1.1" xmlns="http://www.w3.org/2000/svg" xmlns:xlink="http://www.w3.org/1999/xlink">
    <!-- Generator: Sketch 50.2 (55047) - http://www.bohemiancoding.com/sketch -->
    <title>category-land</title>
    <desc>Created with Sketch.</desc>
    <defs></defs>
    <g id="Symbols" stroke="none" stroke-width="1" fill="none" fill-rule="evenodd">
        <g id="icon-/-category-/-land" transform="translate(0.000000, -2.000000)" fill="#91A6B6">
            <path d="M4.58333333,8 L4.91666667,9 L3.51975035,9 C3.20711693,9 2.92727639,9.19392963 2.81750347,9.48665742 L1.62666782,12.6622191 C1.61614185,12.6902884 1.61075012,12.720022 1.61075012,12.75 C1.61075012,12.8880712 1.72267893,13 1.86075012,13 L14.1392499,13 C14.1692279,13 14.1989615,12.9946083 14.2270307,12.9840823 C14.3563108,12.9356023 14.4218122,12.7914992 14.3733322,12.6622191 L13.1824965,9.48665742 C13.0727236,9.19392963 12.7928831,9 12.4802496,9 L11.0833333,9 L11.4166667,8 L12.5584816,8 C13.4193424,8 14.1836201,8.55086019 14.4558482,9.36754447 L15.5612574,12.6837722 C15.7359052,13.2077156 15.4527452,13.7740355 14.9288019,13.9486833 C14.8268354,13.9826721 14.7200562,14 14.6125741,14 L1.38742589,14 C0.835141137,14 0.387425887,13.5522847 0.387425887,13 C0.387425887,12.8925179 0.404753766,12.7857387 0.438742589,12.6837722 L1.54415184,9.36754447 C1.81637994,8.55086019 2.58065762,8 3.44151844,8 L4.58333333,8 Z M8,11 C7.66666667,11 7.39000003,10.8333333 7.17000008,10.5 C6.21429158,9.11885413 5,6.15997114 5,5 C5,3.34314575 6.34314575,2 8,2 C9.65685425,2 11,3.34314575 11,5 C11,6.15885114 9.78435981,9.11807647 8.82999992,10.5 C8.60999997,10.8333333 8.33333333,11 8,11 Z M8,10 C9,8.33333333 9.66666667,6.66666667 10,5 C10.2062182,3.96890913 9.1045695,3 8,3 C6.8954305,3 5.79417304,3.97086522 6,5 C6.33333333,6.66666667 7,8.33333333 8,10 Z M8,6 C7.44771525,6 7,5.55228475 7,5 C7,4.44771525 7.44771525,4 8,4 C8.55228475,4 9,4.44771525 9,5 C9,5.55228475 8.55228475,6 8,6 Z" id="category-land"></path>
        </g>
    </g>
</svg>