<?xml version="1.0" encoding="UTF-8"?>
<svg width="16px" height="14px" viewBox="0 0 16 14" version="1.1" xmlns="http://www.w3.org/2000/svg" xmlns:xlink="http://www.w3.org/1999/xlink">
    <!-- Generator: Sketch 50.2 (55047) - http://www.bohemiancoding.com/sketch -->
    <title>category-industrial</title>
    <desc>Created with Sketch.</desc>
    <defs></defs>
    <g id="Symbols" stroke="none" stroke-width="1" fill="none" fill-rule="evenodd">
        <g id="icon-/-category-/-industrial" transform="translate(0.000000, -1.000000)" fill="#91A6B6">
            <path d="M11,15 C11.5522847,15 12,14.5522847 12,14 L12,5 L11,5.75 L11,4.5 L13,3 L13,14 C13,14.3642871 12.9026057,14.7058266 12.7324356,15 L1,15 C0.44771525,15 1.84399221e-15,14.5522847 1.77635684e-15,14 L1.88737914e-15,8 L4,5 L4,8 L8,5 L8,8 L11,5.75 L11,2 C11,1.44771525 11.4477153,1 12,1 L15,1 C15.5522847,1 16,1.44771525 16,2 L16,15 L11,15 L11,5.75 L11,15 Z M2,12 L2,14 L4,14 L4,12 L2,12 Z M5,12 L5,14 L7,14 L7,12 L5,12 Z M8,12 L8,14 L10,14 L10,12 L8,12 Z M2,9 L2,11 L4,11 L4,9 L2,9 Z M5,9 L5,11 L7,11 L7,9 L5,9 Z M8,9 L8,11 L10,11 L10,9 L8,9 Z" id="category-industrial"></path>
        </g>
    </g>
</svg>