<?xml version="1.0" encoding="UTF-8"?>
<svg width="16px" height="14px" viewBox="0 0 16 14" version="1.1" xmlns="http://www.w3.org/2000/svg" xmlns:xlink="http://www.w3.org/1999/xlink">
    <!-- Generator: Sketch 50.2 (55047) - http://www.bohemiancoding.com/sketch -->
    <title>category-outdoor</title>
    <desc>Created with Sketch.</desc>
    <defs></defs>
    <g id="Symbols" stroke="none" stroke-width="1" fill="none" fill-rule="evenodd">
        <g id="icon-/-category-/-outdoor" transform="translate(0.000000, -1.000000)" fill="#91A6B6">
            <path d="M3.83333333,9 L4.16666667,10 L3.51975035,10 C3.20711693,10 2.92727639,10.1939296 2.81750347,10.4866574 L1.62666782,13.6622191 C1.61614185,13.6902884 1.61075012,13.720022 1.61075012,13.75 C1.61075012,13.8880712 1.72267893,14 1.86075012,14 L14.1392499,14 C14.1692279,14 14.1989615,13.9946083 14.2270307,13.9840823 C14.3563108,13.9356023 14.4218122,13.7914992 14.3733322,13.6622191 L13.1824965,10.4866574 C13.0727236,10.1939296 12.7928831,10 12.4802496,10 L11.8333333,10 L12.1666667,9 L12.5584816,9 C13.4193424,9 14.1836201,9.55086019 14.4558482,10.3675445 L15.5612574,13.6837722 C15.7359052,14.2077156 15.4527452,14.7740355 14.9288019,14.9486833 C14.8268354,14.9826721 14.7200562,15 14.6125741,15 L1.38742589,15 C0.835141137,15 0.387425887,14.5522847 0.387425887,14 C0.387425887,13.8925179 0.404753766,13.7857387 0.438742589,13.6837722 L1.54415184,10.3675445 C1.81637994,9.55086019 2.58065762,9 3.44151844,9 L3.83333333,9 Z M6,1.99980749 C6,1.44762906 6.44371665,1 6.99980749,1 L10.0001925,1 C10.5523709,1 11,1.44371665 11,1.99980749 L11,5.00019251 C11,5.55237094 10.5562834,6 10.0001925,6 L6.99980749,6 C6.44762906,6 6,5.55628335 6,5.00019251 L6,1.99980749 Z M7,2 L7,3 L10,3 L10,2 L7,2 Z M5,7.99077797 C5,7.44358641 5.45097518,7 5.99077797,7 L10.009222,7 C10.5564136,7 11,7.45097518 11,7.99077797 L11,12.009222 C11,12.5564136 10.5490248,13 10.009222,13 L5.99077797,13 C5.44358641,13 5,12.5490248 5,12.009222 L5,7.99077797 Z M6,8 L6,9 L10,9 L10,8 L6,8 Z" id="Combined-Shape"></path>
        </g>
    </g>
</svg>