<svg xmlns="http://www.w3.org/2000/svg" width="16" height="16" viewBox="0 0 16 16">
  <path fill="#91A6B6" fill-rule="evenodd" d="M-1.11022302e-16,14 L16,14 L16,15 L-3.68031412e-17,15 L-1.11022302e-16,14 Z M1,15 L3,15 L3,16 L1,16 L1,15 Z M13,15 L15,15 L15,16 L13,16 L13,15 Z M1,7.00292933 C1,6.44902676 1.43788135,6 2.00292933,6 L6.99707067,6 C7.55097324,6 8,6.43788135 8,7.00292933 L8,11.9970707 C8,12.5509732 7.56211865,13 6.99707067,13 L2.00292933,13 C1.44902676,13 1,12.5621186 1,11.9970707 L1,7.00292933 Z M9,1.99980749 C9,1.44762906 9.44371665,1 9.99980749,1 L13.0001925,1 C13.5523709,1 14,1.44371665 14,1.99980749 L14,5.00019251 C14,5.55237094 13.5562834,6 13.0001925,6 L9.99980749,6 C9.44762906,6 9,5.55628335 9,5.00019251 L9,1.99980749 Z M2,0.999807492 C2,0.447629061 2.44371665,0 2.99980749,0 L6.00019251,0 C6.55237094,0 7,0.443716645 7,0.999807492 L7,4.00019251 C7,4.55237094 6.55628335,5 6.00019251,5 L2.99980749,5 C2.44762906,5 2,4.55628335 2,4.00019251 L2,0.999807492 Z M9,7.99077797 C9,7.44358641 9.45097518,7 9.99077797,7 L14.009222,7 C14.5564136,7 15,7.45097518 15,7.99077797 L15,12.009222 C15,12.5564136 14.5490248,13 14.009222,13 L9.99077797,13 C9.44358641,13 9,12.5490248 9,12.009222 L9,7.99077797 Z M2,7 L2,8 L7,8 L7,7 L2,7 Z M3,1 L3,2 L6,2 L6,1 L3,1 Z M10,2 L10,3 L13,3 L13,2 L10,2 Z M10,8 L10,9 L14,9 L14,8 L10,8 Z"/>
</svg>
