<?xml version="1.0" encoding="UTF-8"?>
<svg width="17px" height="16px" viewBox="0 0 17 16" version="1.1" xmlns="http://www.w3.org/2000/svg" xmlns:xlink="http://www.w3.org/1999/xlink">
    <!-- Generator: Sketch 50.2 (55047) - http://www.bohemiancoding.com/sketch -->
    <title>category-showroom</title>
    <desc>Created with Sketch.</desc>
    <defs></defs>
    <g id="Symbols" stroke="none" stroke-width="1" fill="none" fill-rule="evenodd">
        <g id="icon-/-category-/-showroom" fill="#91A6B6">
            <path d="M2,9 L3,9 L3,12 L14,12 L14,9 L15,9 L15,14 C15,15.1045695 14.1045695,16 13,16 L4,16 C2.8954305,16 2,15.1045695 2,14 L2,9 Z M2.5,8.5 C1.0625,8.5 0,7.08333333 0,5 C0,4.22628787 0.754514562,2.82809688 2.28901828,0.639050538 C2.56975408,0.238495605 3.0281729,-1.67887973e-12 3.51731754,-1.66155978e-12 L13.4826144,-4.00504578e-05 C13.971745,-4.00504577e-05 14.4301565,0.238440317 14.7109215,0.638964619 C16.2454737,2.82807475 17,4.22628229 17,5 C17,7.08333333 15.9375,8.5 14.5,8.5 C13.6591697,8.5 12.946641,8.0153048 12.5,7.19600824 C12.053359,8.0153048 11.3408303,8.5 10.5,8.5 C9.65916966,8.5 8.94664099,8.0153048 8.5,7.19600824 C8.05335901,8.0153048 7.34083034,8.5 6.5,8.5 C5.65916966,8.5 4.94664099,8.0153048 4.5,7.19600824 C4.05335901,8.0153048 3.34083034,8.5 2.5,8.5 Z M3.10789246,1.21302361 C1.71113035,3.20557464 1,4.52337035 1,5 C1,6.58333333 1.6875,7.5 2.5,7.5 C3.3125,7.5 4,6.58333333 4,5 L5,5 C5,6.58333333 5.6875,7.5 6.5,7.5 C7.3125,7.5 8,6.58333333 8,5 L9,5 C9,6.58333333 9.6875,7.5 10.5,7.5 C11.3125,7.5 12,6.58333333 12,5 L13,5 C13,6.58333333 13.6875,7.5 14.5,7.5 C15.3125,7.5 16,6.58333333 16,5 C16,4.52336572 15.2888575,3.20555243 13.892072,1.21297288 C13.7984787,1.07945765 13.6456667,0.99995995 13.4826164,0.99995995 L3.51731955,1 C3.35427269,1 3.20148118,1.07949085 3.10789246,1.21302361 Z" id="category-showroom"></path>
        </g>
    </g>
</svg>