<?xml version="1.0" encoding="UTF-8"?>
<svg width="16px" height="16px" viewBox="0 0 16 16" version="1.1" xmlns="http://www.w3.org/2000/svg" xmlns:xlink="http://www.w3.org/1999/xlink">
    <!-- Generator: Sketch 52.5 (67469) - http://www.bohemiancoding.com/sketch -->
    <title>change-under-offer</title>
    <desc>Created with Sketch.</desc>
    <g id="Symbols" stroke="none" stroke-width="1" fill="none" fill-rule="evenodd">
        <g id="change-under-offer" fill="#F5A623">
            <path d="M2,0 L14,0 C15.1045695,-2.02906125e-16 16,0.8954305 16,2 L16,14 C16,15.1045695 15.1045695,16 14,16 L2,16 C0.8954305,16 1.3527075e-16,15.1045695 0,14 L0,2 C-1.3527075e-16,0.8954305 0.8954305,2.02906125e-16 2,0 Z M3,2 C2.44771525,2 2,2.44771525 2,3 L2,13 C2,13.5522847 2.44771525,14 3,14 L13,14 C13.5522847,14 14,13.5522847 14,13 L14,3 C14,2.44771525 13.5522847,2 13,2 L3,2 Z M3.4945625,12.3932787 L4.1973125,9.63032787 L6.3090625,11.7032787 L3.4945625,12.3932787 Z M8.0640625,5.89409836 L10.1753125,7.96680328 L6.8410625,11.1851639 L4.7295625,9.11245902 L8.0640625,5.89409836 Z M12.2868125,4.85786885 C12.5783125,5.14385246 12.5783125,5.60786885 12.2868125,5.89409836 L10.7030625,7.44868852 L8.5915625,5.37598361 L10.1750625,3.82139344 C10.4665625,3.53516393 10.9393125,3.53516393 11.2308125,3.82139344 L12.2868125,4.85786885 Z"></path>
        </g>
    </g>
</svg>