<?xml version="1.0" encoding="UTF-8"?>
<svg width="16px" height="16px" viewBox="0 0 16 16" version="1.1" xmlns="http://www.w3.org/2000/svg" xmlns:xlink="http://www.w3.org/1999/xlink">
    <!-- Generator: Sketch 52.5 (67469) - http://www.bohemiancoding.com/sketch -->
    <title>change-removed</title>
    <desc>Created with Sketch.</desc>
    <g id="Symbols" stroke="none" stroke-width="1" fill="none" fill-rule="evenodd">
        <g id="change-removed" fill="#FF6B6B">
            <path d="M2,0 L14,0 C15.1045695,-2.02906125e-16 16,0.8954305 16,2 L16,14 C16,15.1045695 15.1045695,16 14,16 L2,16 C0.8954305,16 1.3527075e-16,15.1045695 0,14 L0,2 C-1.3527075e-16,0.8954305 0.8954305,2.02906125e-16 2,0 Z M3,2 C2.44771525,2 2,2.44771525 2,3 L2,13 C2,13.5522847 2.44771525,14 3,14 L13,14 C13.5522847,14 14,13.5522847 14,13 L14,3 C14,2.44771525 13.5522847,2 13,2 L3,2 Z M5,7 L11,7 C11.5522847,7 12,7.44771525 12,8 C12,8.55228475 11.5522847,9 11,9 L5,9 C4.44771525,9 4,8.55228475 4,8 C4,7.44771525 4.44771525,7 5,7 Z"></path>
        </g>
    </g>
</svg>