<svg xmlns="http://www.w3.org/2000/svg" width="16" height="16" viewBox="0 0 16 16">
  <path fill="#DCE6ED" fill-rule="evenodd" d="M0,3.99620271 C0,1.78916089 1.78883037,0 3.99620271,0 L12.0037973,0 C14.2108391,0 16,1.78883037 16,3.99620271 L16,12.0037973 C16,14.2108391 14.2111696,16 12.0037973,16 L3.99620271,16 C1.78916089,16 0,14.2111696 0,12.0037973 L0,3.99620271 Z M6.03436293,10.7699801 C6.1843648,10.9173028 6.38776735,11 6.59997,11 C6.81217265,11 7.01557519,10.9173028 7.16557707,10.7699801 L11.7656971,6.34132448 C12.078101,6.03450031 12.078101,5.53694229 11.7656971,5.23011813 C11.4534932,4.92329396 10.9468868,4.92329396 10.6344829,5.23011813 L6.59997,9.10326878 L5.36551707,7.94444593 C5.05331317,7.63762176 4.54670683,7.63762176 4.23430293,7.94444593 C3.92189902,8.2512701 3.92189902,8.74863168 4.23430293,9.05545585 L6.03436293,10.7699801 Z"/>
</svg>
