<svg xmlns="http://www.w3.org/2000/svg" width="10" height="10" viewBox="0 0 10 10">
  <path fill="#91A6B6" fill-rule="evenodd" d="M10,1.07142857 C10,0.479642857 9.52035714,0 8.92857143,0 C8.63285714,0 8.365,0.12 8.17107143,0.313928571 L5,3.485 L1.82892857,0.313928571 C1.63535714,0.12 1.36714286,0 1.07142857,0 C0.479642857,0 0,0.479642857 0,1.07142857 C0,1.36714286 0.12,1.635 0.313928571,1.82892857 L3.48464286,5 L0.313571429,8.17107143 C0.12,8.365 0,8.63285714 0,8.92857143 C0,9.52035714 0.479642857,10 1.07142857,10 C1.36714286,10 1.63535714,9.88 1.82892857,9.68607143 L5,6.51535714 L8.17107143,9.68642857 C8.365,9.88 8.63285714,10 8.92857143,10 C9.52035714,10 10,9.52035714 10,8.92857143 C10,8.63285714 9.88,8.365 9.68607143,8.17107143 L6.51535714,5 L9.68642857,1.82928571 C9.88,1.635 10,1.3675 10,1.07142857 L10,1.07142857 Z"/>
</svg>
