<svg xmlns="http://www.w3.org/2000/svg" width="12" height="12" viewBox="0 0 12 12">
  <path fill="#FFFFFF" fill-rule="evenodd" d="M10.9285714,0 C10.6328571,0 10.365,0.12 10.1710714,0.313928571 L6,4.485 L1.82892857,0.313928571 C1.63535714,0.12 1.36714286,0 1.07142857,0 C0.479642857,0 0,0.479642857 0,1.07142857 C0,1.36714286 0.12,1.635 0.313928571,1.82892857 L4.48464286,6 L0.313571429,10.1710714 C0.12,10.365 0,10.6328571 0,10.9285714 C0,11.5203571 0.479642857,12 1.07142857,12 C1.36714286,12 1.63535714,11.88 1.82892857,11.6860714 L6,7.51535714 L10.1710714,11.6864286 C10.365,11.88 10.6328571,12 10.9285714,12 C11.5203571,12 12,11.5203571 12,10.9285714 C12,10.6328571 11.88,10.365 11.6860714,10.1710714 L7.51535714,6 L11.6864286,1.82928571 C11.88,1.635 12,1.3675 12,1.07142857 C12,0.479642857 11.5203571,0 10.9285714,0 Z"/>
</svg>
