<svg xmlns="http://www.w3.org/2000/svg" width="12" height="12" viewBox="0 0 12 12">
  <path fill="#91A6B6" fill-rule="evenodd" d="M5.99989662,12 C9.31360511,12 11.9998966,9.3137085 11.9998966,6 C11.9998966,2.6862915 9.31360511,0 5.99989662,0 C2.68618812,0 -0.000103384002,2.6862915 -0.000103384002,6 C-0.000103384002,9.3137085 2.68618812,12 5.99989662,12 Z M8.04880689,7.26923077 C8.26925259,7.48874296 8.26925259,7.8489681 8.04880689,8.0684803 C7.82948591,8.2879925 7.47294874,8.2879925 7.2530654,8.0684803 L5.99393805,6.80769231 L4.71850223,8.08536585 C4.49693181,8.30487805 4.13758282,8.30487805 3.9160124,8.08536585 C3.69444198,7.86022514 3.69444198,7.5 3.9160124,7.2804878 L5.19144823,6.00281426 L3.93232088,4.74765479 C3.71243755,4.52814259 3.71243755,4.16791745 3.93232088,3.94840525 C4.15220422,3.72889306 4.5087414,3.72889306 4.72806237,3.94840525 L5.98718972,5.20919325 L7.28062111,3.91463415 C7.50275389,3.69512195 7.86154052,3.69512195 8.08311094,3.91463415 C8.30524372,4.13977486 8.30524372,4.49437148 8.08311094,4.7195122 L6.78967954,6.01407129 L8.04880689,7.26923077 L8.04880689,7.26923077 L8.04880689,7.26923077 Z"/>
</svg>
