<svg xmlns="http://www.w3.org/2000/svg" width="16" height="16" viewBox="0 0 16 16">
  <path fill="#91A6B6" fill-rule="evenodd" d="M7.99986215,16 C12.4181402,16 15.9998622,12.418278 15.9998622,8 C15.9998622,3.581722 12.4181402,0 7.99986215,0 C3.58158416,0 -0.000137845335,3.581722 -0.000137845335,8 C-0.000137845335,12.418278 3.58158416,16 7.99986215,16 Z M10.7317425,9.69230769 C11.0256701,9.98499062 11.0256701,10.4652908 10.7317425,10.7579737 C10.4393145,11.0506567 9.96393165,11.0506567 9.67075387,10.7579737 L7.99191741,9.07692307 L6.2913363,10.7804878 C5.99590907,11.0731707 5.5167771,11.0731707 5.22134987,10.7804878 C4.92592264,10.4803002 4.92592264,10 5.22134987,9.70731707 L6.92193097,8.00375234 L5.24309451,6.33020638 C4.94991673,6.03752345 4.94991673,5.55722327 5.24309451,5.26454034 C5.5362723,4.97185741 6.0116552,4.97185741 6.30408316,5.26454034 L7.98291962,6.945591 L9.70749482,5.2195122 C10.0036719,4.92682927 10.482054,4.92682927 10.7774813,5.2195122 C11.0736583,5.51969981 11.0736583,5.99249531 10.7774813,6.29268293 L9.05290606,8.01876172 L10.7317425,9.69230769 L10.7317425,9.69230769 L10.7317425,9.69230769 Z"/>
</svg>
