<svg xmlns="http://www.w3.org/2000/svg" width="18" height="12" viewBox="0 0 18 12">
  <path fill="#91A6B6" fill-rule="evenodd" d="M14.7313277,7.69230769 C15.0252634,7.98499062 15.0252634,8.46529081 14.7313277,8.75797373 C14.4388916,9.05065666 13.9634956,9.05065666 13.6703098,8.75797373 L11.991427,7.07692307 L10.290799,8.7804878 C9.99536365,9.07317073 9.51621846,9.07317073 9.22078309,8.7804878 C8.92534772,8.48030019 8.92534772,8 9.22078309,7.70731707 L10.9214111,6.00375234 L9.24252833,4.33020638 C8.94934247,4.03752345 8.94934247,3.55722327 9.24252833,3.26454034 C9.5357142,2.97185741 10.0111102,2.97185741 10.3035462,3.26454034 L11.982429,4.945591 L13.7070517,3.2195122 C14.0032369,2.92682927 14.4816323,2.92682927 14.7770677,3.2195122 C15.0732529,3.51969981 15.0732529,3.99249531 14.7770677,4.29268293 L13.0524449,6.01876172 L14.7313277,7.69230769 L14.7313277,7.69230769 L14.7313277,7.69230769 Z M6.02673005,0.00135973478 C5.88674575,-0.00863902909 5.74376177,0.0363554084 5.63677377,0.141342429 L1.14348392,5.62004697 C1.03799574,5.72503399 0.992500841,5.86501669 1,6 C0.992500841,6.13998269 1.03799574,6.27996539 1.14348392,6.38495241 L5.63677377,11.8450192 C5.73476278,11.9400074 5.86274844,11.9900012 5.99073409,11.9900012 L16.9943103,11.9984596 C18.1010415,11.9993103 18.9983579,11.0981518 18.9985216,9.99169739 L18.9997028,2.00966235 C18.999867,0.900507441 18.1082946,0.0013597348 17.0013579,0.0013597348 L6.02673005,0.00135973478 Z" transform="translate(-1)"/>
</svg>
