<svg xmlns="http://www.w3.org/2000/svg" width="12" height="16" viewBox="0 0 12 16">
  <path fill="#91A6B6" fill-rule="evenodd" d="M8,1 L8,0.997131348 C8,0.446430911 7.55664682,0 6.9906311,0 L5.0093689,0 C4.45190985,0 4,0.453186035 4,0.997131348 L4,1 L1.52363926,1 C0.682156533,1 0,1.67710876 0,2.51585579 L0,3 L12,3 C12,3.23304906 12,2.53557926 12,2.53557926 C12,1.68750225 11.3214545,1 10.4763607,1 L8,1 Z M1.83374779,14.0049735 C1.92556635,15.1067962 2.88670635,16 3.99810135,16 L8.00189864,16 C9.10541955,16 10.0751625,15.0980496 10.1662522,14.0049735 L11,4 L1,4 L1.83374779,14.0049735 Z M2.10499607,6.02136135 C2.04700834,5.50372923 2.42414856,5.0841055 2.95314026,5.08410551 L3.04685974,5.08410551 C3.57326457,5.08410551 4,5.5131543 4,6.03876893 L3.99999999,14.5 L3.05481546,14.5 L2.10499607,6.02136135 Z M9.89500392,6.02136135 C9.95299166,5.50372923 9.57585144,5.0841055 9.04685974,5.08410551 L8.95314026,5.08410551 C8.42673543,5.08410551 8,5.5131543 8,6.03876893 L8.00000001,14.5 L8.94518454,14.5 L9.89500392,6.02136135 Z M5,6.13261732 C5,5.57676532 5.44386482,5.12615825 6,5.12615826 L6,5.12615826 C6.55228475,5.12615826 7,5.5703255 7,6.1326173 L7,13.8673827 C7,14.4232347 6.55613518,14.8738418 6,14.8738419 L6,14.8738419 C5.44771525,14.873842 5,14.4296748 5,13.867383 L5,6.13261732 Z"/>
</svg>
