<?xml version="1.0" encoding="UTF-8"?>
<svg width="20px" height="16px" viewBox="0 0 20 16" version="1.1" xmlns="http://www.w3.org/2000/svg" xmlns:xlink="http://www.w3.org/1999/xlink">
    <!-- Generator: Sketch 53.2 (72643) - https://sketchapp.com -->
    <title>document-type-xml</title>
    <desc>Created with Sketch.</desc>
    <g id="document-type-xml" stroke="none" stroke-width="1" fill="none" fill-rule="evenodd">
        <g id="icon-/-document">
            <path d="M1.00684547,16 C0.450780073,16 -1.95399252e-14,15.5553691 -1.95399252e-14,14.9991283 L-1.95399252e-14,1.00087166 C-1.95399252e-14,0.448105505 0.445462696,1.0658141e-14 0.998710953,1.0658141e-14 L9.00261442,1.0658141e-14 C9.27731289,1.0658141e-14 9.66015738,0.160157382 9.85310745,0.353107452 L13.6468925,4.14689255 C13.8419084,4.34190841 14,4.71945888 14,4.99414063 L14,14.9995679 C14,15.5520913 13.5500512,16 12.9931545,16 L1.00684547,16 Z" id="bg" fill="#91A6B6"></path>
            <path d="M1.50034732,15 C1.22401312,15 1,14.7800934 1,14.5017326 L1,1.49826741 C1,1.22308192 1.23079681,1 1.50043583,1 L9,1 L9,5 L13,5 L13,14.4903505 C13,14.7718221 12.7709994,15 12.4996527,15 L1.50034732,15 Z" id="inset" fill="#FFFFFF"></path>
            <polygon id="curl" fill-opacity="0.7" fill="#FFFFFF" points="9 1 9 5 13 5"></polygon>
        </g>
        <g id="mime-type" transform="translate(5.000000, 6.000000)">
            <rect id="Rectangle" fill="#91A6B6" x="0" y="0" width="15" height="8" rx="2"></rect>
            <path d="M3.33178711,3.30761719 L4.21704102,1.5234375 L5.3449707,1.5234375 L3.94360352,3.99121094 L5.37915039,6.5 L4.25805664,6.5 L3.34545898,4.68847656 L2.4362793,6.5 L1.30151367,6.5 L2.73706055,3.99121094 L1.33911133,1.5234375 L2.46020508,1.5234375 L3.33178711,3.30761719 Z M7.02661133,1.5234375 L7.49829102,3.39306641 L8.03491211,1.5234375 L9.2277832,1.5234375 L9.2277832,6.5 L8.34594727,6.5 L8.34594727,5.02685547 L8.38696289,2.69921875 L7.73413086,4.859375 L7.2590332,4.859375 L6.67456055,2.79150391 L6.71557617,5.02685547 L6.71557617,6.5 L5.83374023,6.5 L5.83374023,1.5234375 L7.02661133,1.5234375 Z M11.0769043,5.72412109 L13.407959,5.72412109 L13.407959,6.5 L10.1130371,6.5 L10.1130371,1.5234375 L11.0769043,1.5234375 L11.0769043,5.72412109 Z" id="XML" fill="#FFFFFF" fill-rule="nonzero"></path>
        </g>
    </g>
</svg>