<?xml version="1.0" encoding="UTF-8"?>
<svg width="20px" height="16px" viewBox="0 0 20 16" version="1.1" xmlns="http://www.w3.org/2000/svg" xmlns:xlink="http://www.w3.org/1999/xlink">
    <!-- Generator: Sketch 53.2 (72643) - https://sketchapp.com -->
    <title>document-type-png</title>
    <desc>Created with Sketch.</desc>
    <g id="document-type-png" stroke="none" stroke-width="1" fill="none" fill-rule="evenodd">
        <g id="icon-/-document-type">
            <g id="icon-/-document" fill-rule="evenodd">
                <path d="M1.00684547,16 C0.450780073,16 -1.95399252e-14,15.5553691 -1.95399252e-14,14.9991283 L-1.95399252e-14,1.00087166 C-1.95399252e-14,0.448105505 0.445462696,1.0658141e-14 0.998710953,1.0658141e-14 L9.00261442,1.0658141e-14 C9.27731289,1.0658141e-14 9.66015738,0.160157382 9.85310745,0.353107452 L13.6468925,4.14689255 C13.8419084,4.34190841 14,4.71945888 14,4.99414063 L14,14.9995679 C14,15.5520913 13.5500512,16 12.9931545,16 L1.00684547,16 Z" id="bg" fill="#91A6B6"></path>
                <path d="M1.50034732,15 C1.22401312,15 1,14.7800934 1,14.5017326 L1,1.49826741 C1,1.22308192 1.23079681,1 1.50043583,1 L9,1 L9,5 L13,5 L13,14.4903505 C13,14.7718221 12.7709994,15 12.4996527,15 L1.50034732,15 Z" id="inset" fill="#FFFFFF"></path>
                <polygon id="curl" fill-opacity="0.7" fill="#FFFFFF" points="9 1 9 5 13 5"></polygon>
            </g>
            <g id="icon-/-mime-type" transform="translate(6.000000, 6.000000)">
                <rect id="Rectangle" fill="#91A6B6" fill-rule="evenodd" x="0" y="0" width="14" height="8" rx="2"></rect>
                <rect id="Rectangle" fill="#EDF2F6" fill-rule="evenodd" x="1" y="1" width="12" height="6" rx="1"></rect>
                <text id="mime" font-family="RobotoMono-Bold, Roboto Mono" font-size="6" font-weight="bold" line-spacing="6" fill="#91A6B6">
                    <tspan x="1.45" y="7.1">PNG</tspan>
                </text>
            </g>
        </g>
    </g>
</svg>