<?xml version="1.0" encoding="UTF-8"?>
<svg width="20px" height="16px" viewBox="0 0 20 16" version="1.1" xmlns="http://www.w3.org/2000/svg" xmlns:xlink="http://www.w3.org/1999/xlink">
    <!-- Generator: Sketch 53.2 (72643) - https://sketchapp.com -->
    <title>document-type-xls</title>
    <desc>Created with Sketch.</desc>
    <g id="document-type-xls" stroke="none" stroke-width="1" fill="none" fill-rule="evenodd">
        <g id="icon-/-document">
            <path d="M1.00684547,16 C0.450780073,16 -1.95399252e-14,15.5553691 -1.95399252e-14,14.9991283 L-1.95399252e-14,1.00087166 C-1.95399252e-14,0.448105505 0.445462696,1.0658141e-14 0.998710953,1.0658141e-14 L9.00261442,1.0658141e-14 C9.27731289,1.0658141e-14 9.66015738,0.160157382 9.85310745,0.353107452 L13.6468925,4.14689255 C13.8419084,4.34190841 14,4.71945888 14,4.99414063 L14,14.9995679 C14,15.5520913 13.5500512,16 12.9931545,16 L1.00684547,16 Z" id="bg" fill="#91A6B6"></path>
            <path d="M1.50034732,15 C1.22401312,15 1,14.7800934 1,14.5017326 L1,1.49826741 C1,1.22308192 1.23079681,1 1.50043583,1 L9,1 L9,5 L13,5 L13,14.4903505 C13,14.7718221 12.7709994,15 12.4996527,15 L1.50034732,15 Z" id="inset" fill="#FFFFFF"></path>
            <polygon id="curl" fill-opacity="0.7" fill="#FFFFFF" points="9 1 9 5 13 5"></polygon>
        </g>
        <g id="mime-type" transform="translate(5.000000, 6.000000)">
            <rect id="Rectangle" fill="#91A6B6" x="0" y="0" width="15" height="8" rx="2"></rect>
            <path d="M3.33178711,3.30761719 L4.21704102,1.5234375 L5.3449707,1.5234375 L3.94360352,3.99121094 L5.37915039,6.5 L4.25805664,6.5 L3.34545898,4.68847656 L2.4362793,6.5 L1.30151367,6.5 L2.73706055,3.99121094 L1.33911133,1.5234375 L2.46020508,1.5234375 L3.33178711,3.30761719 Z M6.8762207,5.72412109 L9.20727539,5.72412109 L9.20727539,6.5 L5.91235352,6.5 L5.91235352,1.5234375 L6.8762207,1.5234375 L6.8762207,5.72412109 Z M12.6320801,5.20117188 C12.6320801,5.11230424 12.6166994,5.0291345 12.5859375,4.95166016 C12.5551756,4.87418581 12.5027673,4.80183953 12.4287109,4.73461914 C12.3546546,4.66739875 12.2578131,4.60587593 12.1381836,4.55004883 C12.0185541,4.49422173 11.8698739,4.44238305 11.6921387,4.39453125 C11.4756662,4.33528616 11.2688812,4.26123091 11.0717773,4.17236328 C10.8746735,4.08349565 10.7009285,3.97640037 10.5505371,3.85107422 C10.4001457,3.72574807 10.2799484,3.5799162 10.1899414,3.41357422 C10.0999344,3.24723224 10.0549316,3.05582791 10.0549316,2.83935547 C10.0549316,2.629719 10.0993648,2.43945398 10.1882324,2.26855469 C10.2771001,2.0976554 10.4001457,1.95182352 10.557373,1.83105469 C10.7146004,1.71028585 10.9003082,1.61743197 11.114502,1.55249023 C11.3286957,1.4875485 11.5611153,1.45507812 11.8117676,1.45507812 C12.0715345,1.45507812 12.309081,1.49267541 12.5244141,1.56787109 C12.7397472,1.64306678 12.9248853,1.7484531 13.079834,1.8840332 C13.2347827,2.01961331 13.3555497,2.18082589 13.4421387,2.36767578 C13.5287276,2.55452567 13.5720215,2.75960175 13.5720215,2.98291016 L12.635498,2.98291016 C12.6309407,2.87125595 12.6110028,2.76871792 12.5756836,2.67529297 C12.5403644,2.58186802 12.4879561,2.50154656 12.418457,2.43432617 C12.348958,2.36710578 12.2623703,2.31469745 12.1586914,2.27709961 C12.0550125,2.23950177 11.9336758,2.22070312 11.7946777,2.22070312 C11.6670729,2.22070312 11.5537114,2.23608383 11.4545898,2.2668457 C11.3554683,2.29760758 11.2717289,2.34090141 11.2033691,2.39672852 C11.1350094,2.45255562 11.0831707,2.51863569 11.0478516,2.5949707 C11.0125324,2.67130572 10.994873,2.75390581 10.994873,2.84277344 C10.994873,2.93619838 11.0182289,3.02050744 11.0649414,3.09570312 C11.1116539,3.17089881 11.1794429,3.23868785 11.2683105,3.29907227 C11.3571782,3.35945668 11.4648431,3.41471329 11.5913086,3.46484375 C11.7177741,3.51497421 11.8607577,3.56168598 12.0202637,3.60498047 C12.2481294,3.67106153 12.4577627,3.75195265 12.6491699,3.84765625 C12.8405771,3.94335985 13.0052076,4.05672135 13.1430664,4.18774414 C13.2809252,4.31876693 13.3880205,4.46801674 13.4643555,4.63549805 C13.5406905,4.80297935 13.5788574,4.98925679 13.5788574,5.19433594 C13.5788574,5.41308703 13.5349939,5.60733965 13.4472656,5.77709961 C13.3595373,5.94685957 13.2382006,6.09041282 13.083252,6.20776367 C12.9283033,6.32511452 12.7437348,6.41398082 12.529541,6.47436523 C12.3153472,6.53474965 12.0817884,6.56494141 11.8288574,6.56494141 C11.6716301,6.56494141 11.5149747,6.55070001 11.3588867,6.5222168 C11.2027987,6.49373358 11.0535489,6.44987009 10.9111328,6.390625 C10.7687167,6.33137991 10.6359869,6.25732466 10.5129395,6.16845703 C10.389892,6.0795894 10.2833663,5.97591205 10.1933594,5.85742188 C10.1033524,5.7389317 10.0327151,5.60449294 9.98144531,5.45410156 C9.93017552,5.30371019 9.90454102,5.1373707 9.90454102,4.95507812 L10.8479004,4.95507812 C10.8524577,5.1054695 10.8786619,5.2342117 10.9265137,5.34130859 C10.9743655,5.44840548 11.0410152,5.53613247 11.1264648,5.60449219 C11.2119145,5.6728519 11.3144525,5.72298161 11.434082,5.75488281 C11.5537115,5.78678401 11.685302,5.80273438 11.8288574,5.80273438 C11.9564622,5.80273438 12.0698237,5.78792333 12.1689453,5.75830078 C12.2680669,5.72867824 12.3518063,5.68766302 12.420166,5.63525391 C12.4885257,5.58284479 12.5409341,5.519613 12.5773926,5.44555664 C12.6138511,5.37150028 12.6320801,5.29003951 12.6320801,5.20117188 Z" id="XLS" fill="#FFFFFF" fill-rule="nonzero"></path>
        </g>
    </g>
</svg>