<?xml version="1.0" encoding="UTF-8"?>
<svg width="20px" height="16px" viewBox="0 0 20 16" version="1.1" xmlns="http://www.w3.org/2000/svg" xmlns:xlink="http://www.w3.org/1999/xlink">
    <!-- Generator: Sketch 53.2 (72643) - https://sketchapp.com -->
    <title>document-type-jpg</title>
    <desc>Created with Sketch.</desc>
    <g id="document-type-jpg" stroke="none" stroke-width="1" fill="none" fill-rule="evenodd">
        <g id="icon-/-document">
            <path d="M1.00684547,16 C0.450780073,16 -1.95399252e-14,15.5553691 -1.95399252e-14,14.9991283 L-1.95399252e-14,1.00087166 C-1.95399252e-14,0.448105505 0.445462696,1.0658141e-14 0.998710953,1.0658141e-14 L9.00261442,1.0658141e-14 C9.27731289,1.0658141e-14 9.66015738,0.160157382 9.85310745,0.353107452 L13.6468925,4.14689255 C13.8419084,4.34190841 14,4.71945888 14,4.99414063 L14,14.9995679 C14,15.5520913 13.5500512,16 12.9931545,16 L1.00684547,16 Z" id="bg" fill="#91A6B6"></path>
            <path d="M1.50034732,15 C1.22401312,15 1,14.7800934 1,14.5017326 L1,1.49826741 C1,1.22308192 1.23079681,1 1.50043583,1 L9,1 L9,5 L13,5 L13,14.4903505 C13,14.7718221 12.7709994,15 12.4996527,15 L1.50034732,15 Z" id="inset" fill="#FFFFFF"></path>
            <polygon id="curl" fill-opacity="0.7" fill="#FFFFFF" points="9 1 9 5 13 5"></polygon>
        </g>
        <g id="mime-type" transform="translate(5.000000, 6.000000)">
            <rect id="Rectangle" fill="#91A6B6" x="0" y="0" width="15" height="8" rx="2"></rect>
            <path d="M3.99487305,1.5234375 L4.95532227,1.5234375 L4.95874023,4.97216797 C4.95646158,5.20914832 4.91145877,5.42504785 4.82373047,5.61987305 C4.73600217,5.81469824 4.6158048,5.98274669 4.46313477,6.12402344 C4.31046473,6.26530019 4.13102317,6.37467409 3.92480469,6.45214844 C3.71858621,6.52962278 3.49699012,6.56835938 3.26000977,6.56835938 C3.00935747,6.56835938 2.78149517,6.53645865 2.57641602,6.47265625 C2.37133687,6.40885385 2.19531323,6.31372134 2.04833984,6.18725586 C1.90136645,6.06079038 1.78686564,5.90185643 1.70483398,5.71044922 C1.62280232,5.51904201 1.5806478,5.29459764 1.57836914,5.03710938 L2.54223633,5.03710938 C2.54451499,5.30371227 2.60375918,5.49682557 2.7199707,5.61645508 C2.83618222,5.73608458 3.01619344,5.79589844 3.26000977,5.79589844 C3.36938531,5.79589844 3.46964473,5.77482117 3.56079102,5.73266602 C3.6519373,5.69051086 3.72941049,5.63297563 3.79321289,5.56005859 C3.85701529,5.48714156 3.90657534,5.39998423 3.94189453,5.29858398 C3.97721372,5.19718374 3.99487305,5.08837949 3.99487305,4.97216797 L3.99487305,1.5234375 Z M6.86938477,4.67480469 L6.86938477,6.5 L5.90893555,6.5 L5.90893555,1.5234375 L7.61108398,1.5234375 C7.88224419,1.5234375 8.12719617,1.56274375 8.34594727,1.64135742 C8.56469836,1.7199711 8.75097579,1.829345 8.90478516,1.96948242 C9.05859452,2.10961984 9.17708292,2.27766829 9.26025391,2.47363281 C9.3434249,2.66959733 9.38500977,2.88720583 9.38500977,3.12646484 C9.38500977,3.34977325 9.3434249,3.55598864 9.26025391,3.74511719 C9.17708292,3.93424574 9.05859452,4.09773694 8.90478516,4.2355957 C8.75097579,4.37345447 8.56469836,4.4811194 8.34594727,4.55859375 C8.12719617,4.6360681 7.88224419,4.67480469 7.61108398,4.67480469 L6.86938477,4.67480469 Z M6.86938477,3.89550781 L7.61108398,3.89550781 C7.74780342,3.89550781 7.86629182,3.87500021 7.96655273,3.83398438 C8.06681365,3.79296854 8.15055305,3.73714228 8.21777344,3.66650391 C8.28499383,3.59586553 8.33512353,3.51440476 8.36816406,3.42211914 C8.40120459,3.32983352 8.41772461,3.2335617 8.41772461,3.13330078 C8.41772461,3.01708926 8.40120459,2.90885467 8.36816406,2.80859375 C8.33512353,2.70833283 8.28499383,2.62060584 8.21777344,2.54541016 C8.15055305,2.47021447 8.06681365,2.41097027 7.96655273,2.36767578 C7.86629182,2.32438129 7.74780342,2.30273438 7.61108398,2.30273438 L6.86938477,2.30273438 L6.86938477,3.89550781 Z M13.4694824,5.91894531 C13.4079587,5.994141 13.3236496,6.07047487 13.2165527,6.14794922 C13.1094558,6.22542356 12.9824226,6.29549122 12.8354492,6.3581543 C12.6884758,6.42081737 12.5238453,6.47151673 12.3415527,6.51025391 C12.1592602,6.54899108 11.9632986,6.56835938 11.7536621,6.56835938 C11.4711086,6.56835938 11.2159028,6.51822967 10.9880371,6.41796875 C10.7601714,6.31770783 10.5653491,6.17301527 10.4035645,5.98388672 C10.2417798,5.79475817 10.1170252,5.56290827 10.0292969,5.28833008 C9.94156857,5.01375188 9.89770508,4.70215018 9.89770508,4.35351562 L9.89770508,3.67675781 C9.89770508,3.32812326 9.94384719,3.01652156 10.0361328,2.74194336 C10.1284184,2.46736516 10.2560213,2.23437596 10.4189453,2.04296875 C10.5818693,1.85156154 10.7732736,1.70572967 10.9931641,1.60546875 C11.2130545,1.50520783 11.4517402,1.45507812 11.7092285,1.45507812 C11.9895034,1.45507812 12.2338857,1.49039678 12.4423828,1.56103516 C12.6508799,1.63167353 12.8269036,1.73364191 12.970459,1.86694336 C13.1140144,2.00024481 13.2262366,2.1625967 13.3071289,2.35400391 C13.3880212,2.54541111 13.4409992,2.76074099 13.4660645,3 L12.529541,3 C12.4976398,2.74479039 12.4207363,2.5528164 12.2988281,2.42407227 C12.17692,2.29532813 11.9883639,2.23095703 11.7331543,2.23095703 C11.6101068,2.23095703 11.4961757,2.2622881 11.3913574,2.32495117 C11.2865392,2.38761425 11.1953943,2.47932882 11.1179199,2.60009766 C11.0404456,2.72086649 10.9789228,2.87068595 10.9333496,3.04956055 C10.8877765,3.22843514 10.8649902,3.43522018 10.8649902,3.66992188 L10.8649902,4.35351562 C10.8672689,4.8183617 10.9447421,5.17439655 11.0974121,5.42163086 C11.2500821,5.66886517 11.483641,5.79361978 11.7980957,5.79589844 C11.8732914,5.79589844 11.9473466,5.79020188 12.0202637,5.77880859 C12.0931807,5.76741531 12.1615394,5.75146495 12.2253418,5.73095703 C12.2891442,5.71044912 12.3455401,5.68709323 12.3945312,5.66088867 C12.4435224,5.63468411 12.48055,5.60677098 12.5056152,5.57714844 L12.5090332,4.67480469 L11.6853027,4.67480469 L11.6853027,3.95703125 L13.4660645,3.95703125 L13.4694824,5.91894531 Z" id="JPG" fill="#FFFFFF" fill-rule="nonzero"></path>
        </g>
    </g>
</svg>