<?xml version="1.0" encoding="UTF-8"?>
<svg width="20px" height="16px" viewBox="0 0 20 16" version="1.1" xmlns="http://www.w3.org/2000/svg" xmlns:xlink="http://www.w3.org/1999/xlink">
    <!-- Generator: Sketch 53.2 (72643) - https://sketchapp.com -->
    <title>document-type-gif</title>
    <desc>Created with Sketch.</desc>
    <g id="document-type-gif" stroke="none" stroke-width="1" fill="none" fill-rule="evenodd">
        <g id="icon-/-document">
            <path d="M1.00684547,16 C0.450780073,16 -1.95399252e-14,15.5553691 -1.95399252e-14,14.9991283 L-1.95399252e-14,1.00087166 C-1.95399252e-14,0.448105505 0.445462696,1.0658141e-14 0.998710953,1.0658141e-14 L9.00261442,1.0658141e-14 C9.27731289,1.0658141e-14 9.66015738,0.160157382 9.85310745,0.353107452 L13.6468925,4.14689255 C13.8419084,4.34190841 14,4.71945888 14,4.99414063 L14,14.9995679 C14,15.5520913 13.5500512,16 12.9931545,16 L1.00684547,16 Z" id="bg" fill="#91A6B6"></path>
            <path d="M1.50034732,15 C1.22401312,15 1,14.7800934 1,14.5017326 L1,1.49826741 C1,1.22308192 1.23079681,1 1.50043583,1 L9,1 L9,5 L13,5 L13,14.4903505 C13,14.7718221 12.7709994,15 12.4996527,15 L1.50034732,15 Z" id="inset" fill="#FFFFFF"></path>
            <polygon id="curl" fill-opacity="0.7" fill="#FFFFFF" points="9 1 9 5 13 5"></polygon>
        </g>
        <g id="mime-type" transform="translate(5.000000, 6.000000)">
            <rect id="Rectangle" fill="#91A6B6" x="0" y="0" width="15" height="8" rx="2"></rect>
            <path d="M5.06811523,5.91894531 C5.00659149,5.994141 4.92228244,6.07047487 4.81518555,6.14794922 C4.70808866,6.22542356 4.58105542,6.29549122 4.43408203,6.3581543 C4.28710864,6.42081737 4.12247813,6.47151673 3.94018555,6.51025391 C3.75789297,6.54899108 3.56193139,6.56835938 3.35229492,6.56835938 C3.06974143,6.56835938 2.81453564,6.51822967 2.58666992,6.41796875 C2.3588042,6.31770783 2.16398193,6.17301527 2.00219727,5.98388672 C1.8404126,5.79475817 1.71565799,5.56290827 1.62792969,5.28833008 C1.54020138,5.01375188 1.49633789,4.70215018 1.49633789,4.35351562 L1.49633789,3.67675781 C1.49633789,3.32812326 1.54248001,3.01652156 1.63476562,2.74194336 C1.72705124,2.46736516 1.85465413,2.23437596 2.01757812,2.04296875 C2.18050212,1.85156154 2.37190645,1.70572967 2.59179688,1.60546875 C2.8116873,1.50520783 3.05037306,1.45507812 3.30786133,1.45507812 C3.58813617,1.45507812 3.83251849,1.49039678 4.04101562,1.56103516 C4.24951276,1.63167353 4.42553639,1.73364191 4.5690918,1.86694336 C4.7126472,2.00024481 4.82486939,2.1625967 4.90576172,2.35400391 C4.98665405,2.54541111 5.03963204,2.76074099 5.06469727,3 L4.12817383,3 C4.09627263,2.74479039 4.0193691,2.5528164 3.89746094,2.42407227 C3.77555278,2.29532813 3.58699672,2.23095703 3.33178711,2.23095703 C3.20873962,2.23095703 3.09480847,2.2622881 2.98999023,2.32495117 C2.885172,2.38761425 2.79402708,2.47932882 2.71655273,2.60009766 C2.63907839,2.72086649 2.57755557,2.87068595 2.53198242,3.04956055 C2.48640928,3.22843514 2.46362305,3.43522018 2.46362305,3.66992188 L2.46362305,4.35351562 C2.4659017,4.8183617 2.54337489,5.17439655 2.69604492,5.42163086 C2.84871496,5.66886517 3.08227382,5.79361978 3.39672852,5.79589844 C3.4719242,5.79589844 3.54597945,5.79020188 3.61889648,5.77880859 C3.69181352,5.76741531 3.76017221,5.75146495 3.82397461,5.73095703 C3.88777701,5.71044912 3.94417293,5.68709323 3.99316406,5.66088867 C4.04215519,5.63468411 4.07918282,5.60677098 4.10424805,5.57714844 L4.10766602,4.67480469 L3.28393555,4.67480469 L3.28393555,3.95703125 L5.06469727,3.95703125 L5.06811523,5.91894531 Z M6.05932617,1.5234375 L8.93725586,1.5234375 L8.93725586,2.29931641 L7.96655273,2.29931641 L7.96655273,5.72753906 L8.93725586,5.72753906 L8.93725586,6.5 L6.05932617,6.5 L6.05932617,5.72753906 L7.00610352,5.72753906 L7.00610352,2.29931641 L6.05932617,2.29931641 L6.05932617,1.5234375 Z M13.2062988,4.43896484 L11.0734863,4.43896484 L11.0734863,6.5 L10.1096191,6.5 L10.1096191,1.5234375 L13.4729004,1.5234375 L13.4729004,2.30615234 L11.0734863,2.30615234 L11.0734863,3.65966797 L13.2062988,3.65966797 L13.2062988,4.43896484 Z" id="GIF" fill="#FFFFFF" fill-rule="nonzero"></path>
        </g>
    </g>
</svg>