<?xml version="1.0" encoding="UTF-8"?>
<svg width="40px" height="16px" viewBox="0 0 40 16" version="1.1" xmlns="http://www.w3.org/2000/svg" xmlns:xlink="http://www.w3.org/1999/xlink">
    <!-- Generator: Sketch 53.2 (72643) - https://sketchapp.com -->
    <title>document-type-leaddadi</title>
    <desc>Created with Sketch.</desc>
    <g id="document-type-leaddadi" stroke="none" stroke-width="1" fill="none" fill-rule="evenodd">
        <g id="icon-/-document">
            <path d="M1.00684547,16 C0.450780073,16 -1.95399252e-14,15.5553691 -1.95399252e-14,14.9991283 L-1.95399252e-14,1.00087166 C-1.95399252e-14,0.448105505 0.445462696,1.0658141e-14 0.998710953,1.0658141e-14 L9.00261442,1.0658141e-14 C9.27731289,1.0658141e-14 9.66015738,0.160157382 9.85310745,0.353107452 L13.6468925,4.14689255 C13.8419084,4.34190841 14,4.71945888 14,4.99414063 L14,14.9995679 C14,15.5520913 13.5500512,16 12.9931545,16 L1.00684547,16 Z" id="bg" fill="#91A6B6"></path>
            <path d="M1.50034732,15 C1.22401312,15 1,14.7800934 1,14.5017326 L1,1.49826741 C1,1.22308192 1.23079681,1 1.50043583,1 L9,1 L9,5 L13,5 L13,14.4903505 C13,14.7718221 12.7709994,15 12.4996527,15 L1.50034732,15 Z" id="inset" fill="#FFFFFF"></path>
            <polygon id="curl" fill-opacity="0.7" fill="#FFFFFF" points="9 1 9 5 13 5"></polygon>
        </g>
        <g id="mime-type" transform="translate(5.000000, 6.000000)">
            <rect id="Rectangle" fill="#91A6B6" x="0" y="0" width="35" height="8" rx="2"></rect>
            <path d="M1.37744141,1.25 L3.4453125,1.25 L3.4453125,5.72753906 L4.50488281,5.72753906 L4.50488281,6.5 L1.37744141,6.5 L1.37744141,5.72753906 L2.48486328,5.72753906 L2.48486328,2.02587891 L1.37744141,2.02587891 L1.37744141,1.25 Z M7.17431641,6.56835938 C6.88948425,6.56835938 6.63086054,6.5216476 6.3984375,6.42822266 C6.16601446,6.33479771 5.96663495,6.20776448 5.80029297,6.04711914 C5.63395099,5.88647381 5.50577844,5.69734809 5.41577148,5.47973633 C5.32576452,5.26212456 5.28076172,5.02913536 5.28076172,4.78076172 L5.28076172,4.64404297 C5.28076172,4.36148947 5.32519487,4.10343541 5.4140625,3.86987305 C5.50293013,3.63631068 5.62711509,3.4352222 5.78662109,3.26660156 C5.9461271,3.09798093 6.13525281,2.9669601 6.35400391,2.87353516 C6.572755,2.78011021 6.81087111,2.73339844 7.06835938,2.73339844 C7.33496227,2.73339844 7.57250872,2.77726193 7.78100586,2.86499023 C7.989503,2.95271854 8.16609628,3.07633384 8.31079102,3.23583984 C8.45548575,3.39534585 8.56542931,3.58731984 8.640625,3.81176758 C8.71582069,4.03621531 8.75341797,4.28401557 8.75341797,4.55517578 L8.75341797,4.95849609 L6.24462891,4.95849609 C6.26285816,5.08382224 6.29988579,5.19832305 6.35571289,5.30200195 C6.41153999,5.40568086 6.48274696,5.49511681 6.56933594,5.5703125 C6.65592491,5.64550819 6.75504501,5.70361308 6.86669922,5.74462891 C6.97835342,5.78564474 7.10025976,5.80615234 7.23242188,5.80615234 C7.32584682,5.80615234 7.41870071,5.79703785 7.51098633,5.77880859 C7.60327195,5.76057934 7.69156859,5.73380552 7.77587891,5.69848633 C7.86018922,5.66316714 7.93880172,5.61930365 8.01171875,5.56689453 C8.08463578,5.51448542 8.14843723,5.45296259 8.203125,5.38232422 L8.67822266,5.89501953 C8.61897757,5.97932985 8.54207404,6.06192993 8.44750977,6.14282227 C8.35294549,6.2237146 8.24129296,6.29549122 8.11254883,6.3581543 C7.98380469,6.42081737 7.8408211,6.47151673 7.68359375,6.51025391 C7.5263664,6.54899108 7.35660898,6.56835938 7.17431641,6.56835938 Z M7.06152344,3.50244141 C6.95442655,3.50244141 6.85644576,3.52124005 6.76757812,3.55883789 C6.67871049,3.59643573 6.60066765,3.65055303 6.53344727,3.72119141 C6.46622688,3.79182978 6.40983096,3.87613883 6.36425781,3.97412109 C6.31868467,4.07210335 6.28450532,4.18147726 6.26171875,4.30224609 L7.8203125,4.30224609 L7.8203125,4.22705078 C7.81575519,4.12678986 7.79638689,4.03222701 7.76220703,3.94335938 C7.72802717,3.85449174 7.67903678,3.77758822 7.61523438,3.71264648 C7.55143197,3.64770475 7.47338913,3.59643573 7.38110352,3.55883789 C7.2888179,3.52124005 7.18229227,3.50244141 7.06152344,3.50244141 Z M11.8911133,6.5 C11.8683267,6.45442686 11.8489584,6.40201853 11.8330078,6.34277344 C11.8170572,6.28352835 11.8033855,6.22086622 11.7919922,6.15478516 C11.7395831,6.21175159 11.6791996,6.26529923 11.6108398,6.31542969 C11.5424801,6.36556015 11.4667159,6.40942364 11.3835449,6.44702148 C11.3003739,6.48461933 11.2086594,6.51424143 11.1083984,6.53588867 C11.0081375,6.55753592 10.8999029,6.56835938 10.7836914,6.56835938 C10.5945629,6.56835938 10.4208178,6.5410159 10.2624512,6.48632812 C10.1040845,6.43164035 9.96793677,6.35530648 9.85400391,6.25732422 C9.74007104,6.15934196 9.65120475,6.04256253 9.58740234,5.90698242 C9.52359994,5.77140232 9.49169922,5.62386147 9.49169922,5.46435547 C9.49169922,5.07470508 9.63696144,4.77335719 9.92749023,4.56030273 C10.218019,4.34724828 10.6515271,4.24072266 11.2280273,4.24072266 L11.7578125,4.24072266 L11.7578125,4.02197266 C11.7578125,3.84423739 11.6997076,3.70353242 11.5834961,3.59985352 C11.4672846,3.49617461 11.2998058,3.44433594 11.0810547,3.44433594 C10.8873688,3.44433594 10.7460942,3.48592081 10.6572266,3.5690918 C10.5683589,3.65226279 10.5239258,3.76334566 10.5239258,3.90234375 L9.57373047,3.90234375 C9.57373047,3.7451164 9.60847947,3.59586659 9.67797852,3.45458984 C9.74747756,3.3133131 9.84887629,3.18912814 9.98217773,3.08203125 C10.1154792,2.97493436 10.2784007,2.89005565 10.4709473,2.82739258 C10.6634938,2.7647295 10.8839506,2.73339844 11.1323242,2.73339844 C11.3556326,2.73339844 11.563557,2.76074191 11.7561035,2.81542969 C11.9486501,2.87011746 12.1155592,2.95100858 12.2568359,3.05810547 C12.3981127,3.16520236 12.5086259,3.30021077 12.5883789,3.46313477 C12.6681319,3.62605876 12.7080078,3.81461481 12.7080078,4.02880859 L12.7080078,5.61474609 C12.7080078,5.81298927 12.7205402,5.97705013 12.7456055,6.10693359 C12.7706707,6.23681706 12.8071287,6.34846958 12.8549805,6.44189453 L12.8549805,6.5 L11.8911133,6.5 Z M10.9853516,5.83349609 C11.0810552,5.83349609 11.1699215,5.82210298 11.2519531,5.79931641 C11.3339848,5.77652983 11.40804,5.74690773 11.4741211,5.71044922 C11.5402022,5.6739907 11.5971677,5.63240583 11.6450195,5.58569336 C11.6928713,5.53898089 11.7304686,5.49169946 11.7578125,5.44384766 L11.7578125,4.80810547 L11.2724609,4.80810547 C11.1243482,4.80810547 10.9978846,4.82234686 10.8930664,4.85083008 C10.7882482,4.87931329 10.7027998,4.9191892 10.6367188,4.97045898 C10.5706377,5.02172877 10.5216473,5.08325159 10.4897461,5.1550293 C10.4578449,5.226807 10.4418945,5.30484984 10.4418945,5.38916016 C10.4418945,5.51676496 10.4868973,5.62272093 10.5769043,5.70703125 C10.6669113,5.79134157 10.803059,5.83349609 10.9853516,5.83349609 Z M13.6821289,4.62353516 C13.6821289,4.34326032 13.7145993,4.08691522 13.779541,3.85449219 C13.8444827,3.62206915 13.9396153,3.42268963 14.0649414,3.25634766 C14.1902676,3.09000568 14.3423656,2.96126348 14.5212402,2.87011719 C14.7001148,2.7789709 14.9046212,2.73339844 15.1347656,2.73339844 C15.3284515,2.73339844 15.4987786,2.76814744 15.645752,2.83764648 C15.7927253,2.90714553 15.9231765,3.00569598 16.0371094,3.13330078 L16.0371094,1.25 L16.9907227,1.25 L16.9907227,6.5 L16.1328125,6.5 L16.0849609,6.11376953 C15.9687494,6.25732494 15.832032,6.36897747 15.6748047,6.44873047 C15.5175773,6.52848347 15.3352875,6.56835938 15.1279297,6.56835938 C14.9023426,6.56835938 14.7001148,6.52107795 14.5212402,6.42651367 C14.3423656,6.3319494 14.1908372,6.20149823 14.0666504,6.03515625 C13.9424636,5.86881427 13.8473311,5.67114372 13.78125,5.44213867 C13.7151689,5.21313362 13.6821289,4.96419405 13.6821289,4.6953125 L13.6821289,4.62353516 Z M14.6323242,4.6953125 C14.6323242,4.85026119 14.6454263,4.9943841 14.6716309,5.12768555 C14.6978354,5.26098699 14.7405596,5.37719677 14.7998047,5.47631836 C14.8590498,5.57543995 14.9353836,5.65348279 15.0288086,5.71044922 C15.1222335,5.76741565 15.2361647,5.79589844 15.3706055,5.79589844 C15.5346688,5.79589844 15.6708165,5.76057978 15.7790527,5.68994141 C15.887289,5.61930303 15.973307,5.52246155 16.0371094,5.39941406 L16.0371094,3.90234375 C15.973307,3.7770176 15.8878586,3.67960647 15.7807617,3.61010742 C15.6736648,3.54060838 15.5392261,3.50585938 15.3774414,3.50585938 C15.2430006,3.50585938 15.1284998,3.53491182 15.0339355,3.59301758 C14.9393713,3.65112334 14.8624677,3.73087514 14.8032227,3.83227539 C14.7439776,3.93367564 14.7006837,4.05216404 14.6733398,4.18774414 C14.645996,4.32332425 14.6323242,4.46858646 14.6323242,4.62353516 L14.6323242,4.6953125 Z M17.9272461,6.5 L17.9272461,1.5234375 L19.2158203,1.5234375 C19.5462256,1.5234375 19.8452949,1.57983342 20.1130371,1.69262695 C20.3807793,1.80542049 20.6097809,1.96264548 20.8000488,2.16430664 C20.9903167,2.36596781 21.1372879,2.60693219 21.2409668,2.88720703 C21.3446457,3.16748187 21.3964844,3.47509598 21.3964844,3.81005859 L21.3964844,4.22021484 C21.3964844,4.55517746 21.3446457,4.86222191 21.2409668,5.14135742 C21.1372879,5.42049293 20.9920257,5.66088766 20.8051758,5.86254883 C20.6183259,6.06420999 20.3938815,6.22086533 20.1318359,6.33251953 C19.8697904,6.44417374 19.5804052,6.5 19.2636719,6.5 L17.9272461,6.5 Z M18.8945312,2.30273438 L18.8945312,5.72753906 L19.2636719,5.72753906 C19.4436858,5.72753906 19.6048984,5.69335972 19.7473145,5.625 C19.8897305,5.55664028 20.0104976,5.45752018 20.1096191,5.32763672 C20.2087407,5.19775326 20.2845049,5.03995861 20.3369141,4.85424805 C20.3893232,4.66853748 20.4155273,4.4571952 20.4155273,4.22021484 L20.4155273,3.80322266 C20.4155273,3.57991425 20.3898928,3.37654714 20.338623,3.19311523 C20.2873533,3.00968333 20.2110194,2.85188868 20.1096191,2.71972656 C20.0082189,2.58756444 19.8828946,2.48502641 19.7336426,2.41210938 C19.5843905,2.33919234 19.4117848,2.30273438 19.2158203,2.30273438 L18.8945312,2.30273438 Z M24.5957031,5.4609375 L23.1020508,5.4609375 L22.8081055,6.5 L21.7963867,6.5 L23.4267578,1.5234375 L24.2983398,1.5234375 L25.8979492,6.5 L24.8862305,6.5 L24.5957031,5.4609375 Z M23.3378906,4.64404297 L24.3701172,4.64404297 L23.8608398,2.81201172 L23.3378906,4.64404297 Z M26.3286133,6.5 L26.3286133,1.5234375 L27.6171875,1.5234375 C27.9475928,1.5234375 28.2466621,1.57983342 28.5144043,1.69262695 C28.7821465,1.80542049 29.0111481,1.96264548 29.201416,2.16430664 C29.3916839,2.36596781 29.5386551,2.60693219 29.642334,2.88720703 C29.7460129,3.16748187 29.7978516,3.47509598 29.7978516,3.81005859 L29.7978516,4.22021484 C29.7978516,4.55517746 29.7460129,4.86222191 29.642334,5.14135742 C29.5386551,5.42049293 29.3933929,5.66088766 29.206543,5.86254883 C29.0196931,6.06420999 28.7952487,6.22086533 28.5332031,6.33251953 C28.2711575,6.44417374 27.9817724,6.5 27.6650391,6.5 L26.3286133,6.5 Z M27.2958984,2.30273438 L27.2958984,5.72753906 L27.6650391,5.72753906 C27.845053,5.72753906 28.0062656,5.69335972 28.1486816,5.625 C28.2910977,5.55664028 28.4118647,5.45752018 28.5109863,5.32763672 C28.6101079,5.19775326 28.6858721,5.03995861 28.7382812,4.85424805 C28.7906904,4.66853748 28.8168945,4.4571952 28.8168945,4.22021484 L28.8168945,3.80322266 C28.8168945,3.57991425 28.79126,3.37654714 28.7399902,3.19311523 C28.6887204,3.00968333 28.6123866,2.85188868 28.5109863,2.71972656 C28.4095861,2.58756444 28.2842618,2.48502641 28.1350098,2.41210938 C27.9857577,2.33919234 27.813152,2.30273438 27.6171875,2.30273438 L27.2958984,2.30273438 Z M30.7617188,1.5234375 L33.6396484,1.5234375 L33.6396484,2.29931641 L32.6689453,2.29931641 L32.6689453,5.72753906 L33.6396484,5.72753906 L33.6396484,6.5 L30.7617188,6.5 L30.7617188,5.72753906 L31.7084961,5.72753906 L31.7084961,2.29931641 L30.7617188,2.29931641 L30.7617188,1.5234375 Z" id="leadDADI" fill="#FFFFFF" fill-rule="nonzero"></path>
        </g>
    </g>
</svg>