<?xml version="1.0" encoding="UTF-8"?>
<svg width="20px" height="16px" viewBox="0 0 20 16" version="1.1" xmlns="http://www.w3.org/2000/svg" xmlns:xlink="http://www.w3.org/1999/xlink">
    <!-- Generator: Sketch 53.2 (72643) - https://sketchapp.com -->
    <title>document-type-doc</title>
    <desc>Created with Sketch.</desc>
    <g id="document-type-doc" stroke="none" stroke-width="1" fill="none" fill-rule="evenodd">
        <g id="icon-/-document">
            <path d="M1.00684547,16 C0.450780073,16 -1.95399252e-14,15.5553691 -1.95399252e-14,14.9991283 L-1.95399252e-14,1.00087166 C-1.95399252e-14,0.448105505 0.445462696,1.0658141e-14 0.998710953,1.0658141e-14 L9.00261442,1.0658141e-14 C9.27731289,1.0658141e-14 9.66015738,0.160157382 9.85310745,0.353107452 L13.6468925,4.14689255 C13.8419084,4.34190841 14,4.71945888 14,4.99414063 L14,14.9995679 C14,15.5520913 13.5500512,16 12.9931545,16 L1.00684547,16 Z" id="bg" fill="#91A6B6"></path>
            <path d="M1.50034732,15 C1.22401312,15 1,14.7800934 1,14.5017326 L1,1.49826741 C1,1.22308192 1.23079681,1 1.50043583,1 L9,1 L9,5 L13,5 L13,14.4903505 C13,14.7718221 12.7709994,15 12.4996527,15 L1.50034732,15 Z" id="inset" fill="#FFFFFF"></path>
            <polygon id="curl" fill-opacity="0.7" fill="#FFFFFF" points="9 1 9 5 13 5"></polygon>
        </g>
        <g id="mime-type" transform="translate(5.000000, 6.000000)">
            <rect id="Rectangle" fill="#91A6B6" x="0" y="0" width="15" height="8" rx="2"></rect>
            <path d="M1.6262207,6.5 L1.6262207,1.5234375 L2.91479492,1.5234375 C3.24520022,1.5234375 3.54426949,1.57983342 3.81201172,1.69262695 C4.07975394,1.80542049 4.30875556,1.96264548 4.49902344,2.16430664 C4.68929132,2.36596781 4.8362625,2.60693219 4.93994141,2.88720703 C5.04362031,3.16748187 5.09545898,3.47509598 5.09545898,3.81005859 L5.09545898,4.22021484 C5.09545898,4.55517746 5.04362031,4.86222191 4.93994141,5.14135742 C4.8362625,5.42049293 4.69100028,5.66088766 4.50415039,5.86254883 C4.3173005,6.06420999 4.09285613,6.22086533 3.83081055,6.33251953 C3.56876497,6.44417374 3.27937984,6.5 2.96264648,6.5 L1.6262207,6.5 Z M2.59350586,2.30273438 L2.59350586,5.72753906 L2.96264648,5.72753906 C3.14266041,5.72753906 3.30387299,5.69335972 3.44628906,5.625 C3.58870514,5.55664028 3.70947216,5.45752018 3.80859375,5.32763672 C3.90771534,5.19775326 3.98347956,5.03995861 4.03588867,4.85424805 C4.08829779,4.66853748 4.11450195,4.4571952 4.11450195,4.22021484 L4.11450195,3.80322266 C4.11450195,3.57991425 4.08886744,3.37654714 4.03759766,3.19311523 C3.98632787,3.00968333 3.909994,2.85188868 3.80859375,2.71972656 C3.7071935,2.58756444 3.58186924,2.48502641 3.43261719,2.41210938 C3.28336514,2.33919234 3.11075944,2.30273438 2.91479492,2.30273438 L2.59350586,2.30273438 Z M9.32006836,4.37744141 C9.32006836,4.69645342 9.27791383,4.99039579 9.19360352,5.25927734 C9.1092932,5.5281589 8.98738687,5.75943914 8.82788086,5.953125 C8.66837485,6.14681086 8.47412224,6.29776964 8.24511719,6.40600586 C8.01611214,6.51424208 7.75805808,6.56835938 7.47094727,6.56835938 C7.18383646,6.56835938 6.92863067,6.51424208 6.70532227,6.40600586 C6.48201386,6.29776964 6.29402746,6.14624121 6.14135742,5.95141602 C5.98868739,5.75659082 5.87247761,5.52531058 5.79272461,5.25756836 C5.71297161,4.98982614 5.6730957,4.69645342 5.6730957,4.37744141 L5.6730957,3.65283203 C5.6730957,3.33382002 5.71297161,3.03987765 5.79272461,2.77099609 C5.87247761,2.50211454 5.98868739,2.27026465 6.14135742,2.07543945 C6.29402746,1.88061426 6.4814442,1.72851617 6.70361328,1.61914062 C6.92578236,1.50976508 7.18041849,1.45507812 7.4675293,1.45507812 C7.75691876,1.45507812 8.01611214,1.50976508 8.24511719,1.61914062 C8.47412224,1.72851617 8.66837485,1.88061426 8.82788086,2.07543945 C8.98738687,2.27026465 9.1092932,2.50211454 9.19360352,2.77099609 C9.27791383,3.03987765 9.32006836,3.33382002 9.32006836,3.65283203 L9.32006836,4.37744141 Z M8.34594727,3.64599609 C8.34594727,3.4431956 8.32942725,3.25634851 8.29638672,3.08544922 C8.26334619,2.91454993 8.21150751,2.76757874 8.14086914,2.64453125 C8.07023077,2.52148376 7.9796555,2.42521194 7.86914062,2.35571289 C7.75862575,2.28621385 7.62475665,2.25146484 7.4675293,2.25146484 C7.31258061,2.25146484 7.18269909,2.28621385 7.07788086,2.35571289 C6.97306263,2.42521194 6.88875357,2.52148376 6.82495117,2.64453125 C6.76114877,2.76757874 6.71557631,2.91454993 6.68823242,3.08544922 C6.66088854,3.25634851 6.6472168,3.4431956 6.6472168,3.64599609 L6.6472168,4.37744141 C6.6472168,4.57796324 6.66088854,4.76367102 6.68823242,4.93457031 C6.71557631,5.1054696 6.76114877,5.2535801 6.82495117,5.37890625 C6.88875357,5.5042324 6.97306263,5.60221319 7.07788086,5.67285156 C7.18269909,5.74348994 7.31371992,5.77880859 7.47094727,5.77880859 C7.62589596,5.77880859 7.75862575,5.74348994 7.86914062,5.67285156 C7.9796555,5.60221319 8.06966111,5.50480205 8.13916016,5.38061523 C8.2086592,5.25642842 8.26049788,5.10888757 8.29467773,4.93798828 C8.32885759,4.76708899 8.34594727,4.5802419 8.34594727,4.37744141 L8.34594727,3.64599609 Z M13.5036621,4.94140625 C13.4877115,5.19205854 13.4335942,5.41764223 13.3413086,5.61816406 C13.249023,5.8186859 13.1254077,5.98958263 12.970459,6.13085938 C12.8155103,6.27213612 12.6309418,6.38094037 12.416748,6.45727539 C12.2025543,6.53361041 11.9655775,6.57177734 11.7058105,6.57177734 C11.4118638,6.57177734 11.1509614,6.51766005 10.9230957,6.40942383 C10.69523,6.30118761 10.5038256,6.14965918 10.348877,5.95483398 C10.1939283,5.76000879 10.0754399,5.52588027 9.9934082,5.25244141 C9.91137654,4.97900254 9.87036133,4.6782243 9.87036133,4.35009766 L9.87036133,3.68017578 C9.87036133,3.34977048 9.91365517,3.04785293 10.0002441,2.77441406 C10.0868331,2.5009752 10.2098788,2.26627702 10.3693848,2.0703125 C10.5288908,1.87434798 10.7220041,1.72224989 10.9487305,1.61401367 C11.1754569,1.50577745 11.430093,1.45166016 11.7126465,1.45166016 C11.9860854,1.45166016 12.2293284,1.49039675 12.4423828,1.56787109 C12.6554373,1.64534544 12.8371575,1.75585866 12.9875488,1.89941406 C13.1379402,2.04296947 13.2564286,2.21842344 13.3430176,2.42578125 C13.4296066,2.63313906 13.4842935,2.86669792 13.5070801,3.12646484 L12.5500488,3.12646484 C12.5409342,2.97835212 12.5187176,2.84847061 12.4833984,2.73681641 C12.4480793,2.6251622 12.3968102,2.53230831 12.3295898,2.45825195 C12.2623695,2.38419559 12.1780604,2.32836933 12.0766602,2.29077148 C11.9752599,2.25317364 11.8539232,2.234375 11.7126465,2.234375 C11.5645338,2.234375 11.4357916,2.26627572 11.326416,2.33007812 C11.2170405,2.39388053 11.1264652,2.48730407 11.0546875,2.61035156 C10.9829098,2.73339905 10.9299318,2.88435783 10.895752,3.06323242 C10.8615721,3.24210701 10.8444824,3.44547412 10.8444824,3.67333984 L10.8444824,4.35009766 C10.8444824,4.84000896 10.9134108,5.20231002 11.0512695,5.43701172 C11.1891283,5.67171341 11.4073065,5.7890625 11.7058105,5.7890625 C11.9564628,5.7890625 12.154703,5.72241278 12.3005371,5.58911133 C12.4463712,5.45580988 12.5272623,5.23991035 12.5432129,4.94140625 L13.5036621,4.94140625 Z" id="DOC" fill="#FFFFFF" fill-rule="nonzero"></path>
        </g>
    </g>
</svg>