<?xml version="1.0" encoding="UTF-8"?>
<svg width="20px" height="16px" viewBox="0 0 20 16" version="1.1" xmlns="http://www.w3.org/2000/svg" xmlns:xlink="http://www.w3.org/1999/xlink">
    <!-- Generator: Sketch 53.2 (72643) - https://sketchapp.com -->
    <title>document-type-ppt</title>
    <desc>Created with Sketch.</desc>
    <g id="document-type-ppt" stroke="none" stroke-width="1" fill="none" fill-rule="evenodd">
        <g id="icon-/-document">
            <path d="M1.00684547,16 C0.450780073,16 -1.95399252e-14,15.5553691 -1.95399252e-14,14.9991283 L-1.95399252e-14,1.00087166 C-1.95399252e-14,0.448105505 0.445462696,1.0658141e-14 0.998710953,1.0658141e-14 L9.00261442,1.0658141e-14 C9.27731289,1.0658141e-14 9.66015738,0.160157382 9.85310745,0.353107452 L13.6468925,4.14689255 C13.8419084,4.34190841 14,4.71945888 14,4.99414063 L14,14.9995679 C14,15.5520913 13.5500512,16 12.9931545,16 L1.00684547,16 Z" id="bg" fill="#91A6B6"></path>
            <path d="M1.50034732,15 C1.22401312,15 1,14.7800934 1,14.5017326 L1,1.49826741 C1,1.22308192 1.23079681,1 1.50043583,1 L9,1 L9,5 L13,5 L13,14.4903505 C13,14.7718221 12.7709994,15 12.4996527,15 L1.50034732,15 Z" id="inset" fill="#FFFFFF"></path>
            <polygon id="curl" fill-opacity="0.7" fill="#FFFFFF" points="9 1 9 5 13 5"></polygon>
        </g>
        <g id="mime-type" transform="translate(5.000000, 6.000000)">
            <rect id="Rectangle" fill="#91A6B6" x="0" y="0" width="15" height="8" rx="2"></rect>
            <path d="M2.66870117,4.67480469 L2.66870117,6.5 L1.70825195,6.5 L1.70825195,1.5234375 L3.41040039,1.5234375 C3.6815606,1.5234375 3.92651258,1.56274375 4.14526367,1.64135742 C4.36401477,1.7199711 4.5502922,1.829345 4.70410156,1.96948242 C4.85791093,2.10961984 4.97639932,2.27766829 5.05957031,2.47363281 C5.1427413,2.66959733 5.18432617,2.88720583 5.18432617,3.12646484 C5.18432617,3.34977325 5.1427413,3.55598864 5.05957031,3.74511719 C4.97639932,3.93424574 4.85791093,4.09773694 4.70410156,4.2355957 C4.5502922,4.37345447 4.36401477,4.4811194 4.14526367,4.55859375 C3.92651258,4.6360681 3.6815606,4.67480469 3.41040039,4.67480469 L2.66870117,4.67480469 Z M2.66870117,3.89550781 L3.41040039,3.89550781 C3.54711982,3.89550781 3.66560822,3.87500021 3.76586914,3.83398438 C3.86613006,3.79296854 3.94986946,3.73714228 4.01708984,3.66650391 C4.08431023,3.59586553 4.13443994,3.51440476 4.16748047,3.42211914 C4.200521,3.32983352 4.21704102,3.2335617 4.21704102,3.13330078 C4.21704102,3.01708926 4.200521,2.90885467 4.16748047,2.80859375 C4.13443994,2.70833283 4.08431023,2.62060584 4.01708984,2.54541016 C3.94986946,2.47021447 3.86613006,2.41097027 3.76586914,2.36767578 C3.66560822,2.32438129 3.54711982,2.30273438 3.41040039,2.30273438 L2.66870117,2.30273438 L2.66870117,3.89550781 Z M6.86938477,4.67480469 L6.86938477,6.5 L5.90893555,6.5 L5.90893555,1.5234375 L7.61108398,1.5234375 C7.88224419,1.5234375 8.12719617,1.56274375 8.34594727,1.64135742 C8.56469836,1.7199711 8.75097579,1.829345 8.90478516,1.96948242 C9.05859452,2.10961984 9.17708292,2.27766829 9.26025391,2.47363281 C9.3434249,2.66959733 9.38500977,2.88720583 9.38500977,3.12646484 C9.38500977,3.34977325 9.3434249,3.55598864 9.26025391,3.74511719 C9.17708292,3.93424574 9.05859452,4.09773694 8.90478516,4.2355957 C8.75097579,4.37345447 8.56469836,4.4811194 8.34594727,4.55859375 C8.12719617,4.6360681 7.88224419,4.67480469 7.61108398,4.67480469 L6.86938477,4.67480469 Z M6.86938477,3.89550781 L7.61108398,3.89550781 C7.74780342,3.89550781 7.86629182,3.87500021 7.96655273,3.83398438 C8.06681365,3.79296854 8.15055305,3.73714228 8.21777344,3.66650391 C8.28499383,3.59586553 8.33512353,3.51440476 8.36816406,3.42211914 C8.40120459,3.32983352 8.41772461,3.2335617 8.41772461,3.13330078 C8.41772461,3.01708926 8.40120459,2.90885467 8.36816406,2.80859375 C8.33512353,2.70833283 8.28499383,2.62060584 8.21777344,2.54541016 C8.15055305,2.47021447 8.06681365,2.41097027 7.96655273,2.36767578 C7.86629182,2.32438129 7.74780342,2.30273438 7.61108398,2.30273438 L6.86938477,2.30273438 L6.86938477,3.89550781 Z M13.7053223,2.30615234 L12.1706543,2.30615234 L12.1706543,6.5 L11.2067871,6.5 L11.2067871,2.30615234 L9.69262695,2.30615234 L9.69262695,1.5234375 L13.7053223,1.5234375 L13.7053223,2.30615234 Z" id="PPT" fill="#FFFFFF" fill-rule="nonzero"></path>
        </g>
    </g>
</svg>