<?xml version="1.0" encoding="UTF-8"?>
<svg width="40px" height="41px" viewBox="0 0 40 41" version="1.1" xmlns="http://www.w3.org/2000/svg" xmlns:xlink="http://www.w3.org/1999/xlink">
    <!-- Generator: Sketch 52.2 (67145) - http://www.bohemiancoding.com/sketch -->
    <title>drag_drop</title>
    <desc>Created with Sketch.</desc>
    <g id="Symbols" stroke="none" stroke-width="1" fill="none" fill-rule="evenodd">
        <g id="drag_drop" fill="#91A6B6">
            <path d="M28,32.9479321 C28,35.1566828 29.794,36.9529261 32,36.9529261 C34.206,36.9529261 36,35.1566888 36,32.9479321 C36,30.7391814 34.206,28.9429381 32,28.9429381 C29.794,28.9429381 28,30.7391754 28,32.9479321 Z M7.638,35.0345489 L10.1126916,37.4967936 C10.5041993,37.8863321 10.5057956,38.519495 10.1162571,38.9110027 C10.1141371,38.9131334 10.1120076,38.9152545 10.1098684,38.917366 L8.70840291,40.3007412 C8.3166342,40.687453 7.68599265,40.6848139 7.29747411,40.294837 L1.41244001,34.3859555 C0.633197539,33.6037879 0.635176418,32.3381353 1.41686095,31.5584083 L7.28970661,25.6985187 C7.68072019,25.3084843 8.31388467,25.3092781 8.70391906,25.7002916 C8.70468279,25.7010573 8.70544528,25.7018242 8.70620652,25.7025923 L10.1267975,27.1360207 C10.5144988,27.5272255 10.5128804,28.1582818 10.1231777,28.5474928 L7.638,31.029535 L24.282,31.029535 C25.174,27.024541 28.276,24.990004 32,24.990004 C36.418,24.990004 40,28.5444387 40,32.969972 C40,37.3935054 36.418,41 32,41 C28.276,41 25.174,37.0370459 24.282,35.0345489 L7.638,35.0345489 Z M4,8.01798797 C4,10.2267407 5.794,12.022982 8,12.022982 C10.206,12.022982 12,10.2267447 12,8.01798797 C12,5.80923729 10.206,4.01299398 8,4.01299398 C5.794,4.01299398 4,5.80923129 4,8.01798797 Z M8,16.017996 C3.582,16.017996 0,12.4375213 0,8.01400798 C0,3.59047461 3.582,-8.60767017e-14 8,-8.52651283e-14 C11.724,-8.45810406e-14 14.826,1.99449701 15.718,5.999491 L32.362,5.999491 L29.8827915,3.53119787 C29.4914066,3.14153612 29.4900097,2.50837268 29.8796715,2.11698775 C29.8803761,2.11628 29.8810818,2.1155733 29.8817886,2.11486766 L31.292983,0.707197184 C31.6835623,0.317234475 32.3162273,0.317444171 32.706548,0.70766571 L38.5871945,6.58552138 C39.367722,7.3658506 39.3685931,8.63095558 38.5891411,9.412359 L32.7080472,15.3081762 C32.3180114,15.6991884 31.6848469,15.69998 31.2938347,15.3099442 C31.2932257,15.3093367 31.2926174,15.3087284 31.2920099,15.3081193 L29.8777723,13.8908992 C29.487768,13.4998556 29.4886104,12.8666912 29.879654,12.4766869 C29.879785,12.4765562 29.8799161,12.4764255 29.8800472,12.4762949 L32.362,10.004469 L15.718,10.004469 C14.826,14.009479 11.724,16.017996 8,16.017996 Z"></path>
        </g>
    </g>
</svg>