<svg xmlns="http://www.w3.org/2000/svg" width="16" height="8" viewBox="0 0 16 8">
  <path fill="#DCE6ED" fill-rule="evenodd" d="M0,1 C0,0.44771525 0.444630861,0 1.00087166,0 L14.9991283,0 C15.5518945,0 16,0.443864822 16,1 C16,1.55228475 15.5553691,2 14.9991283,2 L1.00087166,2 C0.448105505,2 0,1.55613518 0,1 Z M0,4 C0,3.44771525 0.444630861,3 1.00087166,3 L14.9991283,3 C15.5518945,3 16,3.44386482 16,4 C16,4.55228475 15.5553691,5 14.9991283,5 L1.00087166,5 C0.448105505,5 0,4.55613518 0,4 Z M0,7 C0,6.44771525 0.444630861,6 1.00087166,6 L14.9991283,6 C15.5518945,6 16,6.44386482 16,7 C16,7.55228475 15.5553691,8 14.9991283,8 L1.00087166,8 C0.448105505,8 0,7.55613518 0,7 Z"/>
</svg>
