<svg xmlns="http://www.w3.org/2000/svg" width="16" height="16" viewBox="0 0 16 16">
  <path fill="#91A6B6" fill-rule="evenodd" d="M10.2583125,2.28737705 L2.9238125,9.5057377 L5.0353125,11.5784426 L12.3695625,4.36008197 L10.2583125,2.28737705 Z M14.4810625,2.28737705 C14.7725625,2.00114754 14.7725625,1.53713115 14.4810625,1.25114754 L13.4250625,0.214672131 C13.1335625,-0.071557377 12.6608125,-0.071557377 12.3693125,0.214672131 L10.7858125,1.7692623 L12.8973125,3.84196721 L14.4810625,2.28737705 L14.4810625,2.28737705 Z M16.0000005,15 C16.0000005,14.4477153 15.5553696,14 14.9991288,14 L1.00087169,14 C0.448105516,14 -1.76249256e-09,14.4438648 -4.02455846e-15,15 L-4.02455846e-15,15 C1.75028184e-09,15.5522847 0.444630879,16 1.00087169,16 L14.9991288,16 C15.551895,16 16.0000005,15.5561352 16.0000005,15 L16.0000005,15 Z M2.3915625,10.0236066 L1.6888125,12.7865574 L4.5033125,12.0965574 L2.3915625,10.0236066 L2.3915625,10.0236066 Z"/>
</svg>
