<?xml version="1.0" encoding="UTF-8"?>
<svg width="12px" height="10px" viewBox="0 0 12 10" version="1.1" xmlns="http://www.w3.org/2000/svg" xmlns:xlink="http://www.w3.org/1999/xlink">
    <!-- Generator: Sketch 45.1 (43504) - http://www.bohemiancoding.com/sketch -->
    <title>expand-white</title>
    <desc>Created with Sketch.</desc>
    <defs></defs>
    <g id="Symbols" stroke="none" stroke-width="1" fill="none" fill-rule="evenodd">
        <g id="icon-/-misc-/-expand-white" fill="#FFFFFF">
            <path d="M0,5 C0,4.44771525 0.455760956,4 1.00247329,4 L10.9975267,4 C11.5511774,4 12,4.44386482 12,5 C12,5.55228475 11.544239,6 10.9975267,6 L1.00247329,6 C0.448822582,6 0,5.55613518 0,5 Z M6.3559202,0.355920196 L8.6440798,2.6440798 C8.83870697,2.83870697 8.78016949,3 8.50899482,3 L3.49100518,3 C3.22788048,3 3.1593509,2.8406491 3.3559202,2.6440798 L5.6440798,0.355920196 C5.83870697,0.16129303 6.1593509,0.159350899 6.3559202,0.355920196 Z M6.3559202,9.6440798 C6.1593509,9.8406491 5.83870697,9.83870697 5.6440798,9.6440798 L3.3559202,7.3559202 C3.1593509,7.1593509 3.22788048,7 3.49100518,7 L8.50899482,7 C8.78016949,7 8.83870697,7.16129303 8.6440798,7.3559202 L6.3559202,9.6440798 Z" id="expand-white"></path>
        </g>
    </g>
</svg>