<svg xmlns="http://www.w3.org/2000/svg" width="23" height="13" viewBox="0 0 23 13">
  <path fill="#91A6B6" fill-rule="evenodd" d="M3.00684834,0 L19.9931517,0 C21.6640085,0 23,1.3426021 23,2.9987856 L23,10.0012144 C23,11.6577357 21.6537881,13 19.9931517,13 L3.00684834,13 C1.33599155,13 0,11.6573979 0,10.0012144 L0,2.9987856 C0,1.3422643 1.34621185,0 3.00684834,0 Z M2.99456145,1 C1.89299558,1 1,1.9001762 1,2.992017 L1,10.007983 C1,11.1081436 1.90234375,12 2.99456145,12 L20.0054385,12 C21.1070044,12 22,11.0998238 22,10.007983 L22,2.992017 C22,1.8918564 21.0976562,1 20.0054385,1 L2.99456145,1 Z M7.9999916,8 C7.9968339,9.1165689 7.1004316,10 5.9951185,10 L5.0048815,10 C3.8938998,10 3,9.1019194 3,7.9940809 L3,5.0059191 C3,3.8865548 3.897616,3 5.0048815,3 L5.9951185,3 C7.1041209,3 7.9968142,3.8948834 7.9999915,5 L7,5 C7,4.4476291 6.5573397,4 6.0010434,4 L4.9989566,4 C4.4472481,4 4,4.4437166 4,4.9998075 L4,8.0001925 C4,8.5523709 4.4426603,9 4.9989566,9 L6.0010434,9 C6.5527519,9 7,8.5562834 7,8.0001925 L7.9999923,8 L7.9999916,8 L7.9999916,8 L7.9999916,8 Z M11.0048815,3 C9.897616,3 9,3.8877296 9,5 C9,6.1045695 9.8877296,7 11,7 L11.9906311,7 C12.5480902,7 13,7.4438648 13,8 C13,8.5522847 12.5573397,9 12.0010434,9 L10.9989566,9 C10.4472481,9 10,8.543716 10,8.0044713 L10,7.9931641 L9,7.9931641 L9,7.998921 C9,9.1040864 9.8938998,10 11.0048815,10 L11.9951185,10 C13.102384,10 14,9.1122704 14,8 C14,6.8954305 13.1122704,6 12,6 L11.0093689,6 C10.4519098,6 10,5.5561352 10,5 C10,4.4477153 10.4426603,4 10.9989566,4 L12.0010434,4 C12.5527519,4 13,4.453186 13,5 L14,5 C14,3.8954305 13.1061002,3 11.9951185,3 L11.0048815,3 L11.0048815,3 L11.0048815,3 Z M17.5,8.25 L19,3 L20,3 L18,10 L17.5,10 L17,10 L15,3 L16,3 L17.5,8.25 L17.5,8.25 L17.5,8.25 Z"/>
</svg>
