<svg xmlns="http://www.w3.org/2000/svg" width="23" height="13" viewBox="0 0 23 13">
  <path fill="#91A6B6" fill-rule="evenodd" d="M3.00684834,0 L19.9931517,0 C21.6640085,0 23,1.3426021 23,2.9987856 L23,10.0012144 C23,11.6577357 21.6537881,13 19.9931517,13 L3.00684834,13 C1.33599155,13 0,11.6573979 0,10.0012144 L0,2.9987856 C0,1.3422643 1.34621185,0 3.00684834,0 Z M2.99456145,1 C1.89299558,1 1,1.9001762 1,2.992017 L1,10.007983 C1,11.1081436 1.90234375,12 2.99456145,12 L20.0054385,12 C21.1070044,12 22,11.0998238 22,10.007983 L22,2.992017 C22,1.8918564 21.0976562,1 20.0054385,1 L2.99456145,1 Z M16,6 L16,4 L20,4 L20,3 L15,3 L15,10 L16,10 L16,7 L19,7 L19,6 L16,6 L16,6 L16,6 Z M3,5 L3,10 L4,10 L4,7 L5.9951185,7 C7.102384,7 8,6.1122704 8,5 C8,3.8954305 7.1061002,3 5.9951185,3 L3,3 L3,5 L3,5 L3,5 Z M4,4 L4,6 L6.0010434,6 C6.5527519,6 7,5.5561352 7,5 C7,4.4477153 6.5573397,4 6.0010434,4 L4,4 L4,4 L4,4 Z M9,3 L9,10 L11.9951185,10 C13.102384,10 14,9.1134452 14,7.9940809 L14,5.0059191 C14,3.8980806 13.1061002,3 11.9951185,3 L9,3 L9,3 L9,3 Z M10,4 L10,9 L12.0010434,9 C12.5527519,9 13,8.5562834 13,8.0001925 L13,4.9998075 C13,4.4476291 12.5573397,4 12.0010434,4 L10,4 L10,4 L10,4 Z"/>
</svg>
