<?xml version="1.0" encoding="UTF-8"?>
<svg width="21px" height="16px" viewBox="0 0 21 16" version="1.1" xmlns="http://www.w3.org/2000/svg" xmlns:xlink="http://www.w3.org/1999/xlink">
    <!-- Generator: Sketch 50.2 (55047) - http://www.bohemiancoding.com/sketch -->
    <title>file_type-pdf</title>
    <desc>Created with Sketch.</desc>
    <defs></defs>
    <g id="Symbols" stroke="none" stroke-width="1" fill="none" fill-rule="evenodd">
        <g id="icon-/-file-/-jpg">
            <g id="file_type-pdf">
                <path d="M1.00684547,16 C0.450780073,16 0,15.5553691 0,14.9991283 L0,1.00087166 C0,0.448105505 0.444836974,0 0.995577499,0 L11,0 L14,3 L14,15.0014977 C14,15.5529553 13.5500512,16 12.9931545,16 L1.00684547,16 Z M1.50034732,15 L12.4996527,15 C12.7709994,15 13,14.7755913 13,14.4987692 L13,4 L10,4 L10,1 L1.50966585,1 C1.22247314,1 1,1.22308192 1,1.49826741 L1,14.5017326 C1,14.7800934 1.22401312,15 1.50034732,15 Z" id="doc" fill="#91A6B6"></path>
                <g id="mime-type" transform="translate(5.000000, 5.000000)">
                    <rect id="Rectangle" fill="#91A6B6" fill-rule="evenodd" x="0" y="0" width="16" height="9" rx="2"></rect>
                    <rect id="Rectangle" fill="#FFFFFF" fill-rule="evenodd" x="1" y="1" width="14" height="7" rx="1"></rect>
                    <text id="PDF" font-family="RobotoMono-Bold, Roboto Mono" font-size="7" font-weight="bold" fill="#91A6B6">
                        <tspan x="1.69897461" y="7">JPG</tspan>
                    </text>
                </g>
            </g>
        </g>
    </g>
</svg>