<svg xmlns="http://www.w3.org/2000/svg" width="16" height="16" viewBox="0 0 16 16">
  <path fill="#DCE6ED" fill-rule="evenodd" d="M0,3.99620271 C0,1.78916089 1.78883037,0 3.99620271,0 L12.0037973,0 C14.2108391,0 16,1.78883037 16,3.99620271 L16,12.0037973 C16,14.2108391 14.2111696,16 12.0037973,16 L3.99620271,16 C1.78916089,16 0,14.2111696 0,12.0037973 L0,3.99620271 Z M2,4.0085302 L2,11.9914698 C2,13.0980496 2.8992496,14 4.0085302,14 L11.9914698,14 C13.0980496,14 14,13.1007504 14,11.9914698 L14,4.0085302 C14,2.90195036 13.1007504,2 11.9914698,2 L4.0085302,2 C2.90195036,2 2,2.8992496 2,4.0085302 Z"/>
</svg>
