<svg xmlns="http://www.w3.org/2000/svg" width="10" height="10" viewBox="0 0 10 10">
  <path fill="#91A6B6" fill-rule="evenodd" d="M1.99961499,0 L8.00038502,0 C9.11256671,0 10,0.895258101 10,1.99961493 L10,8.00038482 C10,9.11256649 9.10474188,9.99999978 8.00038502,9.99999981 L1.99961498,9.99999998 C0.887433289,10 -9.38385691e-10,9.10474191 -1.9921202e-13,8.00038504 L5.09764688e-09,1.99961499 C6.0424808e-09,0.887433294 0.895258129,0 1.99961499,0 Z M0.999999999,1.99703016 L0.999999999,8.00296988 C0.999999999,8.54696371 1.4463856,9.00000002 1.99703014,9.00000002 L8.00296986,9.00000002 C8.54696369,9.00000002 9,8.55361442 9,8.00296988 L9,1.99703016 C9,1.45303633 8.5536144,1.00000002 8.00296986,1.00000002 L1.99703014,1.00000002 C1.45303631,1.00000002 0.999999999,1.44638562 0.999999999,1.99703016 Z"/>
</svg>
