<svg xmlns="http://www.w3.org/2000/svg" width="12" height="10" viewBox="0 0 12 10">
  <path fill="#91A6B6" fill-rule="evenodd" d="M0,1 C0,0.44771525 0.443864822,0 1,0 C1.55228475,0 2,0.443864822 2,1 C2,1.55228475 1.55613518,2 1,2 C0.44771525,2 0,1.55613518 0,1 Z M0,5 C0,4.44771525 0.443864822,4 1,4 C1.55228475,4 2,4.44386482 2,5 C2,5.55228475 1.55613518,6 1,6 C0.44771525,6 0,5.55613518 0,5 Z M0,9 C0,8.44771525 0.443864822,8 1,8 C1.55228475,8 2,8.44386482 2,9 C2,9.55228475 1.55613518,10 1,10 C0.44771525,10 0,9.55613518 0,9 Z M5,1 C5,0.44771525 5.44386482,0 6,0 C6.55228475,0 7,0.443864822 7,1 C7,1.55228475 6.55613518,2 6,2 C5.44771525,2 5,1.55613518 5,1 Z M5,5 C5,4.44771525 5.44386482,4 6,4 C6.55228475,4 7,4.44386482 7,5 C7,5.55228475 6.55613518,6 6,6 C5.44771525,6 5,5.55613518 5,5 Z M5,9 C5,8.44771525 5.44386482,8 6,8 C6.55228475,8 7,8.44386482 7,9 C7,9.55228475 6.55613518,10 6,10 C5.44771525,10 5,9.55613518 5,9 Z M10,1 C10,0.44771525 10.4438648,0 11,0 C11.5522847,0 12,0.443864822 12,1 C12,1.55228475 11.5561352,2 11,2 C10.4477153,2 10,1.55613518 10,1 Z M10,5 C10,4.44771525 10.4438648,4 11,4 C11.5522847,4 12,4.44386482 12,5 C12,5.55228475 11.5561352,6 11,6 C10.4477153,6 10,5.55613518 10,5 Z M10,9 C10,8.44771525 10.4438648,8 11,8 C11.5522847,8 12,8.44386482 12,9 C12,9.55228475 11.5561352,10 11,10 C10.4477153,10 10,9.55613518 10,9 Z"/>
</svg>
