<?xml version="1.0" encoding="UTF-8"?>
<svg width="20px" height="18px" viewBox="0 0 20 18" version="1.1" xmlns="http://www.w3.org/2000/svg" xmlns:xlink="http://www.w3.org/1999/xlink">
    <!-- Generator: Sketch 50.2 (55047) - http://www.bohemiancoding.com/sketch -->
    <title>inbox</title>
    <desc>Created with Sketch.</desc>
    <defs></defs>
    <g id="Symbols" stroke="none" stroke-width="1" fill="none" fill-rule="evenodd">
        <g id="icon-/-misc-/-inbox" fill="#91A6B6" fill-rule="nonzero">
            <path d="M6.43975683,3.55271368e-15 L13.5602432,0 C14.7407747,3.55271368e-15 15.8115592,0.692353835 16.2960077,1.76890597 L20,10 L20,15 C20,16.6568543 18.6568542,18 17,18 L3,18 C1.34314575,18 -8.75843398e-10,16.6568543 -8.75843398e-10,15 L6.82121026e-13,10 L3.70399231,1.76890597 C4.18844077,0.692353835 5.25922525,3.55271368e-15 6.43975683,3.55271368e-15 Z M2,15 C2,15.5522848 2.44771525,16 3,16 L17,16 C17.5522847,16 18,15.5522848 18,15 L18,10.4292694 L14.4721647,2.58963532 C14.3106819,2.23078461 13.9537537,2 13.5602432,2 L6.43975683,2 C6.0462463,2 5.68931814,2.23078461 5.52783532,2.58963532 L2,10.4292694 L2,15 Z M2,11 L2,9 L8,9 L8,10 C8,10.5522847 8.44771525,11 9,11 L11,11 C11.5522847,11 12,10.5522847 12,10 L12,9 L18,9 L18,11 L13.8292943,11 C13.4174579,12.1651924 12.3062188,13 11,13 L9,13 C7.69378117,13 6.58254212,12.1651924 6.17070571,11 L2,11 Z" id="inbox"></path>
        </g>
    </g>
</svg>