<?xml version="1.0" encoding="UTF-8"?>
<svg width="20px" height="18px" viewBox="0 0 20 18" version="1.1" xmlns="http://www.w3.org/2000/svg" xmlns:xlink="http://www.w3.org/1999/xlink">
    <!-- Generator: Sketch 50.2 (55047) - http://www.bohemiancoding.com/sketch -->
    <title>inbox-contents</title>
    <desc>Created with Sketch.</desc>
    <defs></defs>
    <g id="Symbols" stroke="none" stroke-width="1" fill="none" fill-rule="evenodd">
        <g id="icon-/-misc-/-inbox-contents" fill="#91A6B6" fill-rule="nonzero">
            <path d="M6.43975683,3.55271368e-15 L13.5602432,0 C14.7407747,3.55271368e-15 15.8115592,0.692353835 16.2960077,1.76890597 L20,10 L20,15 C20,16.6568543 18.6568542,18 17,18 L3,18 C1.34314575,18 -8.75843398e-10,16.6568543 -8.75843398e-10,15 L6.82121026e-13,10 L3.70399231,1.76890597 C4.18844077,0.692353835 5.25922525,3.55271368e-15 6.43975683,3.55271368e-15 Z M2,15 C2,15.5522848 2.44771525,16 3,16 L17,16 C17.5522847,16 18,15.5522848 18,15 L18,10.4292694 L14.4721647,2.58963532 C14.3106819,2.23078461 13.9537537,2 13.5602432,2 L6.43975683,2 C6.0462463,2 5.68931814,2.23078461 5.52783532,2.58963532 L2,10.4292694 L2,15 Z M2,11 L2,9 L8,9 L8,10 C8,10.5522847 8.44771525,11 9,11 L11,11 C11.5522847,11 12,10.5522847 12,10 L12,9 L18,9 L18,11 L13.8292943,11 C13.4174579,12.1651924 12.3062188,13 11,13 L9,13 C7.69378117,13 6.58254212,12.1651924 6.17070571,11 L2,11 Z M6.5,3 L13.5,3 C13.7761424,3 14,3.22385763 14,3.5 C14,3.77614237 13.7761424,4 13.5,4 L6.5,4 C6.22385763,4 6,3.77614237 6,3.5 C6,3.22385763 6.22385763,3 6.5,3 Z M5.5,5 L14.5,5 C14.7761424,5 15,5.22385763 15,5.5 C15,5.77614237 14.7761424,6 14.5,6 L5.5,6 C5.22385763,6 5,5.77614237 5,5.5 C5,5.22385763 5.22385763,5 5.5,5 Z M4.5,7 L15.5,7 C15.7761424,7 16,7.22385763 16,7.5 C16,7.77614237 15.7761424,8 15.5,8 L4.5,8 C4.22385763,8 4,7.77614237 4,7.5 C4,7.22385763 4.22385763,7 4.5,7 Z" id="inbox-contents"></path>
        </g>
    </g>
</svg>