<?xml version="1.0" encoding="UTF-8"?>
<svg width="18px" height="18px" viewBox="0 0 18 18" version="1.1" xmlns="http://www.w3.org/2000/svg" xmlns:xlink="http://www.w3.org/1999/xlink">
    <!-- Generator: Sketch 50.2 (55047) - http://www.bohemiancoding.com/sketch -->
    <title>incentive-renewal</title>
    <desc>Created with Sketch.</desc>
    <defs></defs>
    <g id="Symbols" stroke="none" stroke-width="1" fill="none" fill-rule="evenodd">
        <g id="icon-/-incentive-/-renewal" fill="#152435">
            <path d="M0.07787,7.8108 C0.659805,3.40232 4.43257,-9.99999997e-06 9,-9.99999997e-06 C11.73982,-9.99999997e-06 14.19369,1.22426 15.84441,3.15558 L18,0.99999 L18,6.99999 L12,6.99999 L14.42458,4.57541 C13.14095,3.00355 11.18767,1.99999 9,1.99999 C5.47353,1.99999 2.55612,4.6077 2.07089,7.99999 L2.0599987,7.99999 C2.0599987,8.552275 1.6122837,8.99999 1.0599987,8.99999 C0.5077137,8.99999 0.0599987,8.552275 0.0599987,7.99999 L0.05492992,7.99999 C0.05714495,7.9799525 0.05942577,7.9599348 0.06177215,7.9399371 C0.06437039,7.8960703 0.0697964,7.8529644 0.07787045,7.8107991 L0.07787,7.8108 Z M17.92217,10.18918 C17.340234,14.59766 13.56747,17.99999 9.00004,17.99999 C6.26022,17.99999 3.80635,16.77572 2.15563,14.8444 L4e-05,16.99999 L4e-05,10.99999 L6.00004,10.99999 L3.57546,13.42457 C4.85909,14.99643 6.81237,15.99999 9.00004,15.99999 C12.52651,15.99999 15.44392,13.39228 15.92915,9.99999 L15.9400413,9.99999 C15.9400413,9.447705 16.3877563,8.99999 16.9400413,8.99999 C17.4923263,8.99999 17.9400413,9.447705 17.9400413,9.99999 L17.9451101,9.99999 C17.9428951,10.0200275 17.9406143,10.0400452 17.9382679,10.0600429 C17.9356697,10.1039097 17.9302436,10.1470156 17.9221696,10.1891809 L17.92217,10.18918 Z" id="incentive-renewal"></path>
        </g>
    </g>
</svg>