<?xml version="1.0" encoding="UTF-8"?>
<svg width="22px" height="19px" viewBox="0 0 22 19" version="1.1" xmlns="http://www.w3.org/2000/svg" xmlns:xlink="http://www.w3.org/1999/xlink">
    <!-- Generator: Sketch 50.2 (55047) - http://www.bohemiancoding.com/sketch -->
    <title>incentive-renegotiation</title>
    <desc>Created with Sketch.</desc>
    <defs></defs>
    <g id="Symbols" stroke="none" stroke-width="1" fill="none" fill-rule="evenodd">
        <g id="icon-/-incentive-/-renegotiation" fill="#152435">
            <path d="M11,19 C6.581722,19 3,15.418278 3,11 C3,6.581722 6.581722,3 11,3 C15.418278,3 19,6.581722 19,11 C19,15.418278 15.418278,19 11,19 Z M11,17 C14.3137085,17 17,14.3137085 17,11 C17,7.6862915 14.3137085,5 11,5 C7.6862915,5 5,7.6862915 5,11 C5,14.3137085 7.6862915,17 11,17 Z M11,2 C10.4477153,2 10,1.55228475 10,1 C10,0.44771525 10.4477153,0 11,0 C11.5522847,0 12,0.44771525 12,1 C12,1.55228475 11.5522847,2 11,2 Z M15.5,3.20577137 C15.0217074,2.92962899 14.8578322,2.31803859 15.1339746,1.83974596 C15.410117,1.36145334 16.0217074,1.19757818 16.5,1.47372056 C16.9782926,1.74986293 17.1421678,2.36145334 16.8660254,2.83974596 C16.589883,3.31803859 15.9782926,3.48191374 15.5,3.20577137 Z M18.7942286,6.5 C18.5180863,6.02170738 18.6819614,5.41011697 19.160254,5.1339746 C19.6385467,4.85783222 20.2501371,5.02170738 20.5262794,5.5 C20.8024218,5.97829262 20.6385467,6.58988303 20.160254,6.8660254 C19.6819614,7.14216778 19.070371,6.97829262 18.7942286,6.5 Z M20,11 C20,10.4477153 20.4477153,10 21,10 C21.5522847,10 22,10.4477153 22,11 C22,11.5522847 21.5522847,12 21,12 C20.4477153,12 20,11.5522847 20,11 Z M2,11 C2,11.5522847 1.55228475,12 1,12 C0.44771525,12 1.39800648e-16,11.5522847 3.83475851e-17,11 C-6.31054776e-17,10.4477153 0.44771525,10 1,10 C1.55228475,10 2,10.4477153 2,11 Z M3.20577137,6.5 C2.92962899,6.97829262 2.31803859,7.14216778 1.83974596,6.8660254 C1.36145334,6.58988303 1.19757818,5.97829262 1.47372056,5.5 C1.74986293,5.02170738 2.36145334,4.85783222 2.83974596,5.1339746 C3.31803859,5.41011697 3.48191374,6.02170738 3.20577137,6.5 Z M6.5,3.20577137 C6.02170738,3.48191374 5.41011697,3.31803859 5.1339746,2.83974596 C4.85783222,2.36145334 5.02170738,1.74986293 5.5,1.47372056 C5.97829262,1.19757818 6.58988303,1.36145334 6.8660254,1.83974596 C7.14216778,2.31803859 6.97829262,2.92962899 6.5,3.20577137 Z M13.5,6.66987298 C13.9782926,6.94601536 14.1421678,7.55760576 13.8660254,8.03589838 L12.8660254,9.76794919 C12.589883,10.2462418 11.9782926,10.410117 11.5,10.1339746 C11.0217074,9.85783222 10.8578322,9.24624182 11.1339746,8.76794919 L12.1339746,7.03589838 C12.410117,6.55760576 13.0217074,6.39373061 13.5,6.66987298 Z" id="incentive-renegotiation"></path>
        </g>
    </g>
</svg>