<?xml version="1.0" encoding="UTF-8"?>
<svg width="20px" height="18px" viewBox="0 0 20 18" version="1.1" xmlns="http://www.w3.org/2000/svg" xmlns:xlink="http://www.w3.org/1999/xlink">
    <!-- Generator: Sketch 50.2 (55047) - http://www.bohemiancoding.com/sketch -->
    <title>incentive-reduction</title>
    <desc>Created with Sketch.</desc>
    <defs></defs>
    <g id="Symbols" stroke="none" stroke-width="1" fill="none" fill-rule="evenodd">
        <g id="icon-/-incentive-/-reduction" fill="#152435" fill-rule="nonzero">
            <path d="M6,6 L6,12 L14,12 L14,6 L6,6 Z M5.00044473,4 L14.9995553,4 L14.9995553,1.00044473 C14.9995553,-0.207383219 16.7432614,-0.380044151 16.9801359,0.804328593 C17.109787,1.45258385 17.353666,1.94034194 17.7066621,2.29333795 C18.0596581,2.64633396 18.5474161,2.890213 19.1956714,3.01986405 C20.3800442,3.2567386 20.2073832,5.00044473 18.9995553,5.00044473 L16,5.00044473 L16,13 L18.9995553,13 C20.2073832,13 20.3800442,14.7437061 19.1956714,14.9805807 C18.5474161,15.1102317 18.0596581,15.3541108 17.7066621,15.7071068 C17.353666,16.0601028 17.109787,16.5478609 16.9801359,17.1961161 C16.7432614,18.3804889 14.9995553,18.2078279 14.9995553,17 L14.9995553,14 L5.00044473,14 L5.00044473,16.9995553 C5.00044473,18.2073832 3.2567386,18.3800442 3.01986405,17.1956714 C2.890213,16.5474161 2.64633396,16.0596581 2.29333795,15.7066621 C1.94034194,15.353666 1.45258385,15.109787 0.804328593,14.9801359 C-0.380044151,14.7432614 -0.207383219,12.9995553 1.00044473,12.9995553 L4,12.9995553 L4,5 L1.00044473,5 C-0.207383219,5 -0.380044151,3.25629387 0.804328593,3.01941932 C1.45258385,2.88976827 1.94034194,2.64588923 2.29333795,2.29289322 C2.64633396,1.93989721 2.890213,1.45213912 3.01986405,0.803883865 C3.2567386,-0.380488879 5.00044473,-0.207827947 5.00044473,1 L5.00044473,4 Z" id="incentive-reduction"></path>
        </g>
    </g>
</svg>