<?xml version="1.0" encoding="UTF-8"?>
<svg width="14px" height="14px" viewBox="0 0 14 14" version="1.1" xmlns="http://www.w3.org/2000/svg" xmlns:xlink="http://www.w3.org/1999/xlink">
    <!-- Generator: Sketch 50.2 (55047) - http://www.bohemiancoding.com/sketch -->
    <title>incentives-blue</title>
    <desc>Created with Sketch.</desc>
    <defs></defs>
    <g id="Symbols" stroke="none" stroke-width="1" fill="none" fill-rule="evenodd">
        <g id="icon-/-misc-/-incentives-blue" fill="#4DC9FF" fill-rule="nonzero">
            <path d="M11.8320503,1.5547002 L3.83205029,13.5547002 C3.52569784,14.0142289 2.90482849,14.1384028 2.4452998,13.8320503 C1.98577112,13.5256978 1.86159725,12.9048285 2.16794971,12.4452998 L10.1679497,0.445299804 C10.4743022,-0.0142288849 11.0951715,-0.138402753 11.5547002,0.167949706 C12.0142289,0.474302165 12.1384028,1.09517151 11.8320503,1.5547002 Z M13.1213068,13.1213368 C11.9497336,14.29291 10.0502379,14.29291 8.87866322,13.1213368 C7.70709,11.9497636 7.70709,10.0502679 8.87866322,8.87869322 C10.0502364,7.70712 11.9497321,7.70712 13.1213063,8.87869277 C14.29288,10.0502664 14.29288,11.9497621 13.1213068,13.1213368 Z M10.2928772,10.2929063 C9.902352,10.6834321 9.902352,11.3165984 10.2928763,11.7071228 C10.6834021,12.097648 11.3165684,12.097648 11.7070928,11.7071237 C12.097618,11.3165979 12.097618,10.6834316 11.7070932,10.2929068 C11.3165679,9.902382 10.6834016,9.902382 10.2928772,10.2929063 Z M5.12131678,5.12132678 C3.94974356,6.2929 2.05024794,6.2929 0.878673219,5.12132678 C-0.292899997,3.94975356 -0.292899997,2.05025794 0.878673219,0.878683219 C2.05024644,-0.292889997 3.94974206,-0.292889997 5.12131633,0.878682766 C6.29289,2.05025644 6.29289,3.94975206 5.12131678,5.12132678 Z M2.29288723,2.29289633 C1.902362,2.68342206 1.902362,3.31658844 2.29288633,3.70711277 C2.68341206,4.097638 3.31657844,4.097638 3.70710277,3.70711367 C4.097628,3.31658794 4.097628,2.68342156 3.70710322,2.29289678 C3.31657794,1.902372 2.68341156,1.902372 2.29288723,2.29289633 Z" id="incentives-blue"></path>
        </g>
    </g>
</svg>