<?xml version="1.0" encoding="UTF-8"?>
<svg width="22px" height="22px" viewBox="0 0 22 22" version="1.1" xmlns="http://www.w3.org/2000/svg" xmlns:xlink="http://www.w3.org/1999/xlink">
    <!-- Generator: Sketch 50.2 (55047) - http://www.bohemiancoding.com/sketch -->
    <title>incentive-new_agreement</title>
    <desc>Created with Sketch.</desc>
    <defs></defs>
    <g id="Symbols" stroke="none" stroke-width="1" fill="none" fill-rule="evenodd">
        <g id="icon-/-incentive-/-new-agreement" fill="#152435">
            <path d="M8.67543,2.324574 L11,3.99999999e-06 L13.32457,2.324574 L16.5,1.473721 L17.350853,4.649151 L20.526283,5.500004 L19.67543,8.675434 L22,11.000004 L19.67543,13.324574 L20.526283,16.500004 L17.350853,17.350857 L16.5,20.526287 L13.32457,19.675434 L11,22.000004 L8.67543,19.675434 L5.5,20.526287 L4.649147,17.350857 L1.473717,16.500004 L2.32457,13.324574 L0,11.000004 L2.32457,8.675434 L1.473717,5.500004 L4.649147,4.649151 L5.5,1.473721 L8.67543,2.324574 Z M6.05030678,6.05025678 C3.31664107,8.78392249 3.31664107,13.2160775 6.05030678,15.9497432 C8.78397249,18.6834089 13.2161275,18.6834089 15.9497932,15.9497432 C18.6834589,13.2160775 18.6834589,8.78392249 15.9497932,6.05025678 C13.2161275,3.31659107 8.78397249,3.31659107 6.05030678,6.05025678 Z M13.2928932,8.29289322 C13.6834175,7.90236893 14.3165825,7.90236893 14.7071068,8.29289322 C15.0976311,8.68341751 15.0976311,9.31658249 14.7071068,9.70710678 L10.7071068,13.7071068 C10.3165825,14.0976311 9.68341751,14.0976311 9.29289322,13.7071068 L7.29289322,11.7071068 C6.90236893,11.3165825 6.90236893,10.6834175 7.29289322,10.2928932 C7.68341751,9.90236893 8.31658249,9.90236893 8.70710678,10.2928932 L10,11.5857864 L13.2928932,8.29289322 Z" id="incentive-new_agreement"></path>
        </g>
    </g>
</svg>