<?xml version="1.0" encoding="UTF-8"?>
<svg width="14px" height="14px" viewBox="0 0 14 14" version="1.1" xmlns="http://www.w3.org/2000/svg" xmlns:xlink="http://www.w3.org/1999/xlink">
    <!-- Generator: Sketch 50.2 (55047) - http://www.bohemiancoding.com/sketch -->
    <title>incentive-expansion</title>
    <desc>Created with Sketch.</desc>
    <defs></defs>
    <g id="Symbols" stroke="none" stroke-width="1" fill="none" fill-rule="evenodd">
        <g id="icon-/-incentive-/-expansion" fill="#152435" fill-rule="nonzero">
            <path d="M5.58578644,7 L2.5,3.91421356 L1.70710678,4.70710678 C1.07714192,5.33707164 0,4.89090485 0,4 L0,1 C0,0.44771525 0.44771525,-1.0125234e-13 1,-1.0125234e-13 L4,-1.0125234e-13 C4.89090485,-1.0125234e-13 5.33707164,1.07714192 4.70710678,1.70710678 L3.91421356,2.5 L7,5.58578644 L10.0857864,2.5 L9.29289322,1.70710678 C8.66292836,1.07714192 9.10909515,-2.3625546e-13 10,-2.85993451e-13 L13,-4.54747351e-13 C13.5522847,-4.88498131e-13 14,0.44771525 14,1 L14,4 C14,4.89090485 12.9228581,5.33707164 12.2928932,4.70710678 L11.5,3.91421356 L8.41421356,7 L11.5,10.0857864 L12.2928932,9.29289322 C12.9228581,8.66292836 14,9.10909515 14,10 L14,13 C14,13.5522847 13.5522847,14 13,14 L10,14 C9.10909515,14 8.66292836,12.9228581 9.29289322,12.2928932 L10.0857864,11.5 L7,8.41421356 L3.91421356,11.5 L4.70710678,12.2928932 C5.33707164,12.9228581 4.89090485,14 4,14 L1,14 C0.44771525,14 -1.77635684e-15,13.5522847 0,13 L0,10 C0,9.10909515 1.07714192,8.66292836 1.70710678,9.29289322 L2.5,10.0857864 L5.58578644,7 Z" id="incentive-expansion"></path>
        </g>
    </g>
</svg>