<svg xmlns="http://www.w3.org/2000/svg" width="16" height="16" viewBox="0 0 16 16">
  <path fill="#91A6B6" fill-rule="evenodd" d="M8,16 C3.581722,16 0,12.418278 0,8 C0,3.581722 3.581722,0 8,0 C12.418278,0 16,3.581722 16,8 C16,12.418278 12.418278,16 8,16 Z M8,15 C11.8659932,15 15,11.8659932 15,8 C15,4.13400675 11.8659932,1 8,1 C4.13400675,1 1,4.13400675 1,8 C1,11.8659932 4.13400675,15 8,15 Z M9.25913043,4.6516972 C9.0973913,4.8116972 8.87304348,4.90460043 8.64347826,4.90460043 C8.41391304,4.90460043 8.19130435,4.8116972 8.02956522,4.6516972 C7.86608696,4.4916972 7.77391304,4.26976172 7.77391304,4.04438538 C7.77391304,3.8172886 7.86608696,3.59535312 8.02956522,3.43535312 C8.19130435,3.27535312 8.41565217,3.18417032 8.64347826,3.18417032 C8.87304348,3.18417032 9.0973913,3.27535312 9.25913043,3.43535312 C9.42086957,3.59535312 9.51304348,3.8172886 9.51304348,4.04438538 C9.51304348,4.26976172 9.42086957,4.4916972 9.25913043,4.6516972 Z M7.53147826,12.8684714 C7.39513043,12.8684714 7.26017391,12.823052 7.14991304,12.7354822 C6.97356522,12.5952671 6.89043478,12.3695467 6.93426087,12.1498477 L7.79095652,7.84722409 L7.31913043,8.11010581 C7.02591304,8.27337462 6.65478261,8.17066495 6.49008696,7.88094452 C6.32504348,7.59122409 6.42869565,7.2240843 6.72156522,7.06081548 L8.34486957,6.15621333 C8.552,6.04077247 8.808,6.05522409 9.00034783,6.19303054 C9.19286957,6.33066495 9.28678261,6.56670796 9.24086957,6.79724559 L8.35304348,11.2553961 L9.08104348,10.9415897 C9.38956522,10.8091166 9.748,10.9484714 9.88226087,11.2531596 C10.0165217,11.5580198 9.87547826,11.9127725 9.56730435,12.0457617 L7.7746087,12.8184069 C7.69652174,12.8519553 7.61373913,12.8684714 7.53147826,12.8684714 Z"/>
</svg>
