<?xml version="1.0" encoding="UTF-8"?>
<svg width="17px" height="16px" viewBox="0 0 17 16" version="1.1" xmlns="http://www.w3.org/2000/svg" xmlns:xlink="http://www.w3.org/1999/xlink">
    <!-- Generator: Sketch 53.2 (72643) - https://sketchapp.com -->
    <title>layout-grouped-blue</title>
    <desc>Created with Sketch.</desc>
    <g id="layout-grouped-blue" stroke="none" stroke-width="1" fill="none" fill-rule="evenodd" transform="translate(0.000000, 0.000000)">
        <g id="icon-/-layout-/-grid">
            <path d="M1.71825144e-15,1.0093689 C-2.3312542e-14,0.451909848 0.443353176,0 1.0093689,0 L2.9906311,0 C3.54809015,0 4,0.443353176 4,1.0093689 L4,2.9906311 C4,3.54809015 3.55664682,4 2.9906311,4 L1.0093689,4 C0.451909848,4 1.16095061e-13,3.55664682 9.06800598e-14,2.9906311 L1.71825144e-15,1.0093689 Z M4.61852778e-14,7.0093689 C4.61852778e-14,6.45190985 0.443353176,6 1.0093689,6 L2.9906311,6 C3.54809015,6 4,6.44335318 4,7.0093689 L4,8.9906311 C4,9.54809015 3.55664682,10 2.9906311,10 L1.0093689,10 C0.451909848,10 4.61852778e-14,9.55664682 4.61852778e-14,8.9906311 L4.61852778e-14,7.0093689 Z M4.61852778e-14,13.0093689 C4.61852778e-14,12.4519098 0.443353176,12 1.0093689,12 L2.9906311,12 C3.54809015,12 4,12.4433532 4,13.0093689 L4,14.9906311 C4,15.5480902 3.55664682,16 2.9906311,16 L1.0093689,16 C0.451909848,16 4.61852778e-14,15.5566468 4.61852778e-14,14.9906311 L4.61852778e-14,13.0093689 Z M6,1.0093689 C6,0.451909848 6.44335318,0 7.0093689,0 L8.9906311,0 C9.54809015,0 10,0.443353176 10,1.0093689 L10,2.9906311 C10,3.54809015 9.55664682,4 8.9906311,4 L7.0093689,4 C6.45190985,4 6,3.55664682 6,2.9906311 L6,1.0093689 Z M6,7.0093689 C6,6.45190985 6.44335318,6 7.0093689,6 L8.9906311,6 C9.54809015,6 10,6.44335318 10,7.0093689 L10,8.9906311 C10,9.54809015 9.55664682,10 8.9906311,10 L7.0093689,10 C6.45190985,10 6,9.55664682 6,8.9906311 L6,7.0093689 Z M6,13.0093689 C6,12.4519098 6.44335318,12 7.0093689,12 L8.9906311,12 C9.54809015,12 10,12.4433532 10,13.0093689 L10,14.9906311 C10,15.5480902 9.55664682,16 8.9906311,16 L7.0093689,16 C6.45190985,16 6,15.5566468 6,14.9906311 L6,13.0093689 Z M12,1.0093689 C12,0.451909848 12.4433532,0 13.0093689,0 L14.9906311,0 C15.5480902,0 16,0.443353176 16,1.0093689 L16,2.9906311 C16,3.54809015 15.5566468,4 14.9906311,4 L13.0093689,4 C12.4519098,4 12,3.55664682 12,2.9906311 L12,1.0093689 Z M12,7.0093689 C12,6.45190985 12.4433532,6 13.0093689,6 L14.9906311,6 C15.5480902,6 16,6.44335318 16,7.0093689 L16,8.9906311 C16,9.54809015 15.5566468,10 14.9906311,10 L13.0093689,10 C12.4519098,10 12,9.55664682 12,8.9906311 L12,7.0093689 Z M12,13.0093689 C12,12.4519098 12.4433532,12 13.0093689,12 L14.9906311,12 C15.5480902,12 16,12.4433532 16,13.0093689 L16,14.9906311 C16,15.5480902 15.5566468,16 14.9906311,16 L13.0093689,16 C12.4519098,16 12,15.5566468 12,14.9906311 L12,13.0093689 Z" id="primary" fill="#4DC9FF"></path>
            <path d="M1,1 L3,1 L3,3 L1,3 L1,1 Z M7,1 L9,1 L9,3 L7,3 L7,1 Z M13,1 L15,1 L15,3 L13,3 L13,1 Z M1,7 L3,7 L3,9 L1,9 L1,7 Z M7,7 L9,7 L9,9 L7,9 L7,7 Z M13,7 L15,7 L15,9 L13,9 L13,7 Z M1,13 L3,13 L3,15 L1,15 L1,13 Z M7,13 L9,13 L9,15 L7,15 L7,13 Z M13,13 L15,13 L15,15 L13,15 L13,13 Z" id="secondary" fill-opacity="0.7" fill="#FFFFFF"></path>
        </g>
    </g>
</svg>