<?xml version="1.0" encoding="UTF-8"?>
<svg width="17px" height="16px" viewBox="0 0 17 16" version="1.1" xmlns="http://www.w3.org/2000/svg" xmlns:xlink="http://www.w3.org/1999/xlink">
    <!-- Generator: Sketch 53.2 (72643) - https://sketchapp.com -->
    <title>layout-grouped</title>
    <desc>Created with Sketch.</desc>
    <g id="layout-grouped" stroke="none" stroke-width="1" fill="none" fill-rule="evenodd" transform="translate(0.000000, 0.000000)">
        <g id="icon-/-layout-/-grouped">
            <path d="M-3.29207069e-14,4.0093689 C-5.79515004e-14,3.45190985 0.443353176,3 1.0093689,3 L2.9906311,3 C3.54809015,3 4,3.44335318 4,4.0093689 L4,5.9906311 C4,6.54809015 3.55664682,7 2.9906311,7 L1.0093689,7 C0.451909848,7 8.1456103e-14,6.55664682 5.60411014e-14,5.9906311 L-3.29207069e-14,4.0093689 Z M5.68434189e-14,0 L16,0 L16,1 L5.68434189e-14,1 L5.68434189e-14,0 Z M5.68434189e-14,9 L16,9 L16,10 L5.68434189e-14,10 L5.68434189e-14,9 Z M4.97379915e-14,13.0093689 C4.97379915e-14,12.4519098 0.443353176,12 1.0093689,12 L2.9906311,12 C3.54809015,12 4,12.4433532 4,13.0093689 L4,14.9906311 C4,15.5480902 3.55664682,16 2.9906311,16 L1.0093689,16 C0.451909848,16 4.97379915e-14,15.5566468 4.97379915e-14,14.9906311 L4.97379915e-14,13.0093689 Z M6,4.0093689 C6,3.45190985 6.44335318,3 7.0093689,3 L8.9906311,3 C9.54809015,3 10,3.44335318 10,4.0093689 L10,5.9906311 C10,6.54809015 9.55664682,7 8.9906311,7 L7.0093689,7 C6.45190985,7 6,6.55664682 6,5.9906311 L6,4.0093689 Z M6,13.0093689 C6,12.4519098 6.44335318,12 7.0093689,12 L8.9906311,12 C9.54809015,12 10,12.4433532 10,13.0093689 L10,14.9906311 C10,15.5480902 9.55664682,16 8.9906311,16 L7.0093689,16 C6.45190985,16 6,15.5566468 6,14.9906311 L6,13.0093689 Z M12,4.0093689 C12,3.45190985 12.4433532,3 13.0093689,3 L14.9906311,3 C15.5480902,3 16,3.44335318 16,4.0093689 L16,5.9906311 C16,6.54809015 15.5566468,7 14.9906311,7 L13.0093689,7 C12.4519098,7 12,6.55664682 12,5.9906311 L12,4.0093689 Z M12,13.0093689 C12,12.4519098 12.4433532,12 13.0093689,12 L14.9906311,12 C15.5480902,12 16,12.4433532 16,13.0093689 L16,14.9906311 C16,15.5480902 15.5566468,16 14.9906311,16 L13.0093689,16 C12.4519098,16 12,15.5566468 12,14.9906311 L12,13.0093689 Z" id="primary" fill="#91A6B6"></path>
            <path d="M1,4 L3,4 L3,6 L1,6 L1,4 Z M7,4 L9,4 L9,6 L7,6 L7,4 Z M13,4 L15,4 L15,6 L13,6 L13,4 Z M1,13 L3,13 L3,15 L1,15 L1,13 Z M7,13 L9,13 L9,15 L7,15 L7,13 Z M13,13 L15,13 L15,15 L13,15 L13,13 Z" id="secondary" fill-opacity="0.7" fill="#FFFFFF"></path>
        </g>
    </g>
</svg>