<svg xmlns="http://www.w3.org/2000/svg" width="36.1" height="36" viewBox="0 0 36.1 36">
  <g id="LinkedIn_Logo_2013" transform="translate(-106)">
    <g id="Group_1" data-name="Group 1">
      <path id="Path_1" data-name="Path 1" d="M139.4,0H108.7A2.669,2.669,0,0,0,106,2.6V33.4a2.669,2.669,0,0,0,2.7,2.6h30.7a2.669,2.669,0,0,0,2.7-2.6V2.6A2.669,2.669,0,0,0,139.4,0Z" fill="#006192"/>
      <path id="Path_2" data-name="Path 2" d="M111.4,13.5h5.3V30.7h-5.3ZM114.1,5A3.1,3.1,0,1,1,111,8.1,3.052,3.052,0,0,1,114.1,5" fill="#fff"/>
      <path id="Path_3" data-name="Path 3" d="M120.1,13.5h5.1v2.3h.1a5.6,5.6,0,0,1,5.1-2.8c5.4,0,6.4,3.6,6.4,8.2v9.4h-5.3V22.2c0-2,0-4.6-2.8-4.6s-3.2,2.2-3.2,4.4v8.5h-5.3v-17Z" fill="#fff"/>
    </g>
  </g>
</svg>
