<svg xmlns="http://www.w3.org/2000/svg" width="14" height="14" viewBox="0 0 14 14">
  <path fill="#329798" fill-rule="evenodd" d="M13.2333734,5.71020733 L11.9412471,7.00054601 C11.1357431,7.80602487 9.93971825,7.96764481 8.96734738,7.50462551 L11.9412471,4.52994493 C12.2828437,4.188359 12.2828437,3.6353567 11.9412471,3.29464439 L10.7067817,2.05759661 C10.3651851,1.71601067 9.8130392,1.71601067 9.47144261,2.05759661 L6.49666921,5.03315081 C6.03363547,4.05993666 6.19526046,2.86394908 7.00076444,2.05759661 L8.29026974,0.767257921 C9.31418587,-0.25575264 10.9741182,-0.25575264 11.996287,0.767257921 L13.2333734,2.00255846 C14.2555422,3.02644265 14.2555422,4.68632315 13.2333734,5.71020733 Z M4.53008627,9.47027347 C4.18848968,9.12868754 4.18848968,8.57655887 4.53008627,8.23497293 L8.23610353,4.52907131 C8.57770012,4.18748537 9.12984602,4.18748537 9.47144261,4.52907131 C9.8130392,4.87065724 9.8130392,5.42278592 9.47144261,5.76437185 L5.76542536,9.47027347 C5.42470241,9.81185941 4.87080922,9.81185941 4.53008627,9.47027347 Z M2.05853445,10.7064476 L3.29387354,11.9417482 C3.63547013,12.2833341 4.18761603,12.2833341 4.52921262,11.9417482 L7.50485967,8.96619398 C7.96789341,9.93940812 7.80626843,11.1353957 7.00076444,11.9417482 L5.81959157,13.2320869 C4.79567544,14.255971 3.1366168,14.255971 2.11270067,13.2320869 L0.767281861,11.8875837 C-0.25576062,10.8636995 -0.25576062,9.20469259 0.767281861,8.18080841 L2.05766081,6.99967239 C2.86491209,6.19419354 4.06006334,6.03257359 5.0341815,6.49559289 L2.05853445,9.47027347 C1.71781151,9.81185941 1.71781151,10.3657353 2.05853445,10.7064476 Z"/>
</svg>
