<?xml version="1.0" encoding="UTF-8"?>
<svg width="7px" height="8px" viewBox="0 0 7 8" version="1.1" xmlns="http://www.w3.org/2000/svg" xmlns:xlink="http://www.w3.org/1999/xlink">
    <!-- Generator: Sketch 53.2 (72643) - https://sketchapp.com -->
    <title>lock-small-white</title>
    <desc>Created with Sketch.</desc>
    <g id="lock-small-white" stroke="none" stroke-width="1" fill="none" fill-rule="evenodd" transform="translate(0.000000, 0.000000)">
        <g id="icon-/-misc-/-lock-small" fill="#FFFFFF">
            <path d="M5,4 L5,2 C5,0.8954305 4.11227035,-2.22044605e-16 3,-2.22044605e-16 L3,-2.22044605e-16 C1.8954305,-2.22044605e-16 1,0.887729645 1,2 L1,4 L1,4 C0.447715253,4 3.97852284e-09,4.44335318 3.09447856e-09,5.0093689 L0,6.9906311 C-8.70679847e-10,7.54809015 0.450975143,8 0.990777891,8 L5.00922164,8 C5.55641316,8 5.99999953,7.55664682 5.99999953,6.9906311 L5.99999953,5.0093689 C5.99999953,4.45190985 5.54681371,4 5,4 L5,4 Z M2,4 L2,1.99895656 C2,1.44724809 2.44386482,1 3,1 L3,1 C3.55228475,1 4,1.44266033 4,1.99895656 L4,4 L2,4 Z" id="lock"></path>
        </g>
    </g>
</svg>