<svg xmlns="http://www.w3.org/2000/svg" width="12" height="16" viewBox="0 0 12 16">
  <path fill="#91A6B6" fill-rule="evenodd" d="M10.0000002,8 L10.0000002,4 C10.0000002,1.790861 8.20464408,0 6.00000023,0 L6.00000023,0 C3.79086123,0 2.00000023,1.79535615 2.00000023,4 L2.00000023,8 L1.00000024,8 C0.447715488,8 2.38006168e-07,8.45303631 2.37581346e-07,8.99703014 L2.32891125e-07,15.0029699 C2.3246111e-07,15.5536144 0.45576117,16 1.00247349,16 L10.9975265,16 C11.5511772,16 11.9999998,15.5469637 11.9999998,15.0029699 L11.9999998,8.99703014 C11.9999998,8.4463856 11.556135,8 11,8 L10.0000002,8 Z M3.00000023,8 L3.00000023,4.00925446 C3.00000023,2.34728911 4.34651735,1 6.00000023,1 L6.00000023,1 C7.65685448,1 9.00000023,2.34967041 9.00000023,4.00925446 L9.00000023,8 L3.00000023,8 Z"/>
</svg>
