<svg xmlns="http://www.w3.org/2000/svg" width="24" height="32" viewBox="0 0 24 32">
  <path fill="#91A6B6" fill-rule="evenodd" d="M20.0000008,16 L20.0000008,8 C20.0000008,3.581722 16.4092883,0 12.0000005,0 L12.0000005,0 C7.5817223,0 4.00000016,3.59071231 4.00000016,8 L4.00000016,16 L2.00000008,16 C0.895430544,16 1.02391124e-08,16.8945138 9.38044301e-09,17.9940603 L4.46174304e-16,30.0059397 C-8.60029745e-10,31.1072288 0.897026224,32 2.00494659,32 L21.9950534,32 C23.1023548,32 24,31.1054862 24,30.0059397 L24,17.9940603 C24,16.8927712 23.1122705,16 22.0000004,16 L20.0000008,16 Z M6.00000024,16 L6.00000024,7.99818512 C6.00000024,4.68547895 8.69303457,2 12.0000005,2 L12.0000005,2 C15.3137091,2 18.0000007,4.68277588 18.0000007,7.99818512 L18.0000007,16 L6.00000024,16 Z"/>
</svg>
