<svg xmlns="http://www.w3.org/2000/svg" width="12" height="16" viewBox="0 0 12 16">
  <path fill="#91A6B6" fill-rule="evenodd" d="M0,8.99703014 C0,8.4463856 0.443864822,8 1,8 L2,8 L2,4 C2,1.790861 3.79535615,-4.10408021e-14 6,-5.68434189e-14 L6,-5.68434189e-14 C8.209139,-7.26782564e-14 10,1.7909921 10,4.00019251 L10,5 L9,5 L9,3.9906311 C9,2.33895115 7.65348288,1 6,1 L6,1 C4.34314575,1 3,2.34967041 3,4.00925446 L3,8 L11.0024554,8 C11.553384,8 12,8.45303631 12,8.99703014 L12,15.0029699 C12,15.5536144 11.544239,16 10.9975267,16 L1.00247329,16 C0.448822582,16 0,15.5469637 0,15.0029699 L0,8.99703014 Z"/>
</svg>
