<?xml version="1.0" encoding="UTF-8"?>
<svg width="4px" height="8px" viewBox="0 0 4 8" version="1.1" xmlns="http://www.w3.org/2000/svg" xmlns:xlink="http://www.w3.org/1999/xlink">
    <!-- Generator: Sketch 48.2 (47327) - http://www.bohemiancoding.com/sketch -->
    <title>max-amount</title>
    <desc>Created with Sketch.</desc>
    <defs></defs>
    <g id="icon-/-misc-/-max-amount" stroke="none" stroke-width="1" fill="none" fill-rule="evenodd">
        <path d="M4,0.714285714 C4,0.906904762 3.91975,1.08142857 3.78975,1.21 L1.809,3.00166667 L3.7385,4.74404762 C3.8985,4.875 4,5.06904762 4,5.28571429 C4,5.6802381 3.66425,6 3.25,6 C3.04875,6 2.866,5.92428571 2.73125,5.80119048 L0.22925,3.51738095 C0.088,3.38714286 0,3.205 0,3.00309524 C0,2.79761905 0.088,2.61595238 0.2295,2.48571429 L2.72925,0.199761905 C2.86425,0.0761904762 3.04775,0 3.25,0 C3.66425,0 4,0.319761905 4,0.714285714 Z M3.25,6.5 C3.66421356,6.5 4,6.83578644 4,7.25 C4,7.66421356 3.66421356,8 3.25,8 L0.752319336,8.00083278 C0.338105774,8.00083278 0.00231933594,7.66504635 0.00231933594,7.25083278 C0.00231933594,6.83661922 0.338105774,6.50083278 0.752319336,6.50083278 L3.25,6.5 Z" id="max-amount" fill="#91A6B6"></path>
    </g>
</svg>