<?xml version="1.0" encoding="UTF-8"?>
<svg width="15px" height="8px" viewBox="0 0 15 8" version="1.1" xmlns="http://www.w3.org/2000/svg" xmlns:xlink="http://www.w3.org/1999/xlink">
    <!-- Generator: Sketch 53.2 (72643) - https://sketchapp.com -->
    <title>mime-type-pdf</title>
    <desc>Created with Sketch.</desc>
    <g id="mime-type-pdf" stroke="none" stroke-width="1" fill="none" fill-rule="evenodd">
        <rect id="Rectangle" fill="#91A6B6" x="0" y="0" width="15" height="8" rx="2"></rect>
        <path d="M2.66870117,4.67480469 L2.66870117,6.5 L1.70825195,6.5 L1.70825195,1.5234375 L3.41040039,1.5234375 C3.6815606,1.5234375 3.92651258,1.56274375 4.14526367,1.64135742 C4.36401477,1.7199711 4.5502922,1.829345 4.70410156,1.96948242 C4.85791093,2.10961984 4.97639932,2.27766829 5.05957031,2.47363281 C5.1427413,2.66959733 5.18432617,2.88720583 5.18432617,3.12646484 C5.18432617,3.34977325 5.1427413,3.55598864 5.05957031,3.74511719 C4.97639932,3.93424574 4.85791093,4.09773694 4.70410156,4.2355957 C4.5502922,4.37345447 4.36401477,4.4811194 4.14526367,4.55859375 C3.92651258,4.6360681 3.6815606,4.67480469 3.41040039,4.67480469 L2.66870117,4.67480469 Z M2.66870117,3.89550781 L3.41040039,3.89550781 C3.54711982,3.89550781 3.66560822,3.87500021 3.76586914,3.83398438 C3.86613006,3.79296854 3.94986946,3.73714228 4.01708984,3.66650391 C4.08431023,3.59586553 4.13443994,3.51440476 4.16748047,3.42211914 C4.200521,3.32983352 4.21704102,3.2335617 4.21704102,3.13330078 C4.21704102,3.01708926 4.200521,2.90885467 4.16748047,2.80859375 C4.13443994,2.70833283 4.08431023,2.62060584 4.01708984,2.54541016 C3.94986946,2.47021447 3.86613006,2.41097027 3.76586914,2.36767578 C3.66560822,2.32438129 3.54711982,2.30273438 3.41040039,2.30273438 L2.66870117,2.30273438 L2.66870117,3.89550781 Z M5.8269043,6.5 L5.8269043,1.5234375 L7.11547852,1.5234375 C7.44588381,1.5234375 7.74495309,1.57983342 8.01269531,1.69262695 C8.28043754,1.80542049 8.50943915,1.96264548 8.69970703,2.16430664 C8.88997491,2.36596781 9.0369461,2.60693219 9.140625,2.88720703 C9.2443039,3.16748187 9.29614258,3.47509598 9.29614258,3.81005859 L9.29614258,4.22021484 C9.29614258,4.55517746 9.2443039,4.86222191 9.140625,5.14135742 C9.0369461,5.42049293 8.89168388,5.66088766 8.70483398,5.86254883 C8.51798409,6.06420999 8.29353972,6.22086533 8.03149414,6.33251953 C7.76944856,6.44417374 7.48006343,6.5 7.16333008,6.5 L5.8269043,6.5 Z M6.79418945,2.30273438 L6.79418945,5.72753906 L7.16333008,5.72753906 C7.343344,5.72753906 7.50455658,5.69335972 7.64697266,5.625 C7.78938873,5.55664028 7.91015575,5.45752018 8.00927734,5.32763672 C8.10839893,5.19775326 8.18416315,5.03995861 8.23657227,4.85424805 C8.28898138,4.66853748 8.31518555,4.4571952 8.31518555,4.22021484 L8.31518555,3.80322266 C8.31518555,3.57991425 8.28955104,3.37654714 8.23828125,3.19311523 C8.18701146,3.00968333 8.11067759,2.85188868 8.00927734,2.71972656 C7.9078771,2.58756444 7.78255283,2.48502641 7.63330078,2.41210938 C7.48404873,2.33919234 7.31144304,2.30273438 7.11547852,2.30273438 L6.79418945,2.30273438 Z M13.2062988,4.43896484 L11.0734863,4.43896484 L11.0734863,6.5 L10.1096191,6.5 L10.1096191,1.5234375 L13.4729004,1.5234375 L13.4729004,2.30615234 L11.0734863,2.30615234 L11.0734863,3.65966797 L13.2062988,3.65966797 L13.2062988,4.43896484 Z" id="PDF" fill="#FFFFFF" fill-rule="nonzero"></path>
    </g>
</svg>