<?xml version="1.0" encoding="UTF-8"?>
<svg width="36px" height="8px" viewBox="0 0 36 8" version="1.1" xmlns="http://www.w3.org/2000/svg" xmlns:xlink="http://www.w3.org/1999/xlink">
    <!-- Generator: Sketch 53.2 (72643) - https://sketchapp.com -->
    <title>mime-type-leaddadi</title>
    <desc>Created with Sketch.</desc>
    <g id="mime-type-leaddadi" stroke="none" stroke-width="1" fill="none" fill-rule="evenodd">
        <rect id="Rectangle" fill="#91A6B6" x="0" y="0" width="36" height="8" rx="2"></rect>
        <path d="M1.87744141,1.25 L3.9453125,1.25 L3.9453125,5.72753906 L5.00488281,5.72753906 L5.00488281,6.5 L1.87744141,6.5 L1.87744141,5.72753906 L2.98486328,5.72753906 L2.98486328,2.02587891 L1.87744141,2.02587891 L1.87744141,1.25 Z M7.67431641,6.56835938 C7.38948425,6.56835938 7.13086054,6.5216476 6.8984375,6.42822266 C6.66601446,6.33479771 6.46663495,6.20776448 6.30029297,6.04711914 C6.13395099,5.88647381 6.00577844,5.69734809 5.91577148,5.47973633 C5.82576452,5.26212456 5.78076172,5.02913536 5.78076172,4.78076172 L5.78076172,4.64404297 C5.78076172,4.36148947 5.82519487,4.10343541 5.9140625,3.86987305 C6.00293013,3.63631068 6.12711509,3.4352222 6.28662109,3.26660156 C6.4461271,3.09798093 6.63525281,2.9669601 6.85400391,2.87353516 C7.072755,2.78011021 7.31087111,2.73339844 7.56835938,2.73339844 C7.83496227,2.73339844 8.07250872,2.77726193 8.28100586,2.86499023 C8.489503,2.95271854 8.66609628,3.07633384 8.81079102,3.23583984 C8.95548575,3.39534585 9.06542931,3.58731984 9.140625,3.81176758 C9.21582069,4.03621531 9.25341797,4.28401557 9.25341797,4.55517578 L9.25341797,4.95849609 L6.74462891,4.95849609 C6.76285816,5.08382224 6.79988579,5.19832305 6.85571289,5.30200195 C6.91153999,5.40568086 6.98274696,5.49511681 7.06933594,5.5703125 C7.15592491,5.64550819 7.25504501,5.70361308 7.36669922,5.74462891 C7.47835342,5.78564474 7.60025976,5.80615234 7.73242188,5.80615234 C7.82584682,5.80615234 7.91870071,5.79703785 8.01098633,5.77880859 C8.10327195,5.76057934 8.19156859,5.73380552 8.27587891,5.69848633 C8.36018922,5.66316714 8.43880172,5.61930365 8.51171875,5.56689453 C8.58463578,5.51448542 8.64843723,5.45296259 8.703125,5.38232422 L9.17822266,5.89501953 C9.11897757,5.97932985 9.04207404,6.06192993 8.94750977,6.14282227 C8.85294549,6.2237146 8.74129296,6.29549122 8.61254883,6.3581543 C8.48380469,6.42081737 8.3408211,6.47151673 8.18359375,6.51025391 C8.0263664,6.54899108 7.85660898,6.56835938 7.67431641,6.56835938 Z M7.56152344,3.50244141 C7.45442655,3.50244141 7.35644576,3.52124005 7.26757812,3.55883789 C7.17871049,3.59643573 7.10066765,3.65055303 7.03344727,3.72119141 C6.96622688,3.79182978 6.90983096,3.87613883 6.86425781,3.97412109 C6.81868467,4.07210335 6.78450532,4.18147726 6.76171875,4.30224609 L8.3203125,4.30224609 L8.3203125,4.22705078 C8.31575519,4.12678986 8.29638689,4.03222701 8.26220703,3.94335938 C8.22802717,3.85449174 8.17903678,3.77758822 8.11523438,3.71264648 C8.05143197,3.64770475 7.97338913,3.59643573 7.88110352,3.55883789 C7.7888179,3.52124005 7.68229227,3.50244141 7.56152344,3.50244141 Z M12.3911133,6.5 C12.3683267,6.45442686 12.3489584,6.40201853 12.3330078,6.34277344 C12.3170572,6.28352835 12.3033855,6.22086622 12.2919922,6.15478516 C12.2395831,6.21175159 12.1791996,6.26529923 12.1108398,6.31542969 C12.0424801,6.36556015 11.9667159,6.40942364 11.8835449,6.44702148 C11.8003739,6.48461933 11.7086594,6.51424143 11.6083984,6.53588867 C11.5081375,6.55753592 11.3999029,6.56835938 11.2836914,6.56835938 C11.0945629,6.56835938 10.9208178,6.5410159 10.7624512,6.48632812 C10.6040845,6.43164035 10.4679368,6.35530648 10.3540039,6.25732422 C10.240071,6.15934196 10.1512047,6.04256253 10.0874023,5.90698242 C10.0235999,5.77140232 9.99169922,5.62386147 9.99169922,5.46435547 C9.99169922,5.07470508 10.1369614,4.77335719 10.4274902,4.56030273 C10.718019,4.34724828 11.1515271,4.24072266 11.7280273,4.24072266 L12.2578125,4.24072266 L12.2578125,4.02197266 C12.2578125,3.84423739 12.1997076,3.70353242 12.0834961,3.59985352 C11.9672846,3.49617461 11.7998058,3.44433594 11.5810547,3.44433594 C11.3873688,3.44433594 11.2460942,3.48592081 11.1572266,3.5690918 C11.0683589,3.65226279 11.0239258,3.76334566 11.0239258,3.90234375 L10.0737305,3.90234375 C10.0737305,3.7451164 10.1084795,3.59586659 10.1779785,3.45458984 C10.2474776,3.3133131 10.3488763,3.18912814 10.4821777,3.08203125 C10.6154792,2.97493436 10.7784007,2.89005565 10.9709473,2.82739258 C11.1634938,2.7647295 11.3839506,2.73339844 11.6323242,2.73339844 C11.8556326,2.73339844 12.063557,2.76074191 12.2561035,2.81542969 C12.4486501,2.87011746 12.6155592,2.95100858 12.7568359,3.05810547 C12.8981127,3.16520236 13.0086259,3.30021077 13.0883789,3.46313477 C13.1681319,3.62605876 13.2080078,3.81461481 13.2080078,4.02880859 L13.2080078,5.61474609 C13.2080078,5.81298927 13.2205402,5.97705013 13.2456055,6.10693359 C13.2706707,6.23681706 13.3071287,6.34846958 13.3549805,6.44189453 L13.3549805,6.5 L12.3911133,6.5 Z M11.4853516,5.83349609 C11.5810552,5.83349609 11.6699215,5.82210298 11.7519531,5.79931641 C11.8339848,5.77652983 11.90804,5.74690773 11.9741211,5.71044922 C12.0402022,5.6739907 12.0971677,5.63240583 12.1450195,5.58569336 C12.1928713,5.53898089 12.2304686,5.49169946 12.2578125,5.44384766 L12.2578125,4.80810547 L11.7724609,4.80810547 C11.6243482,4.80810547 11.4978846,4.82234686 11.3930664,4.85083008 C11.2882482,4.87931329 11.2027998,4.9191892 11.1367188,4.97045898 C11.0706377,5.02172877 11.0216473,5.08325159 10.9897461,5.1550293 C10.9578449,5.226807 10.9418945,5.30484984 10.9418945,5.38916016 C10.9418945,5.51676496 10.9868973,5.62272093 11.0769043,5.70703125 C11.1669113,5.79134157 11.303059,5.83349609 11.4853516,5.83349609 Z M14.1821289,4.62353516 C14.1821289,4.34326032 14.2145993,4.08691522 14.279541,3.85449219 C14.3444827,3.62206915 14.4396153,3.42268963 14.5649414,3.25634766 C14.6902676,3.09000568 14.8423656,2.96126348 15.0212402,2.87011719 C15.2001148,2.7789709 15.4046212,2.73339844 15.6347656,2.73339844 C15.8284515,2.73339844 15.9987786,2.76814744 16.145752,2.83764648 C16.2927253,2.90714553 16.4231765,3.00569598 16.5371094,3.13330078 L16.5371094,1.25 L17.4907227,1.25 L17.4907227,6.5 L16.6328125,6.5 L16.5849609,6.11376953 C16.4687494,6.25732494 16.332032,6.36897747 16.1748047,6.44873047 C16.0175773,6.52848347 15.8352875,6.56835938 15.6279297,6.56835938 C15.4023426,6.56835938 15.2001148,6.52107795 15.0212402,6.42651367 C14.8423656,6.3319494 14.6908372,6.20149823 14.5666504,6.03515625 C14.4424636,5.86881427 14.3473311,5.67114372 14.28125,5.44213867 C14.2151689,5.21313362 14.1821289,4.96419405 14.1821289,4.6953125 L14.1821289,4.62353516 Z M15.1323242,4.6953125 C15.1323242,4.85026119 15.1454263,4.9943841 15.1716309,5.12768555 C15.1978354,5.26098699 15.2405596,5.37719677 15.2998047,5.47631836 C15.3590498,5.57543995 15.4353836,5.65348279 15.5288086,5.71044922 C15.6222335,5.76741565 15.7361647,5.79589844 15.8706055,5.79589844 C16.0346688,5.79589844 16.1708165,5.76057978 16.2790527,5.68994141 C16.387289,5.61930303 16.473307,5.52246155 16.5371094,5.39941406 L16.5371094,3.90234375 C16.473307,3.7770176 16.3878586,3.67960647 16.2807617,3.61010742 C16.1736648,3.54060838 16.0392261,3.50585938 15.8774414,3.50585938 C15.7430006,3.50585938 15.6284998,3.53491182 15.5339355,3.59301758 C15.4393713,3.65112334 15.3624677,3.73087514 15.3032227,3.83227539 C15.2439776,3.93367564 15.2006837,4.05216404 15.1733398,4.18774414 C15.145996,4.32332425 15.1323242,4.46858646 15.1323242,4.62353516 L15.1323242,4.6953125 Z M18.4272461,6.5 L18.4272461,1.5234375 L19.7158203,1.5234375 C20.0462256,1.5234375 20.3452949,1.57983342 20.6130371,1.69262695 C20.8807793,1.80542049 21.1097809,1.96264548 21.3000488,2.16430664 C21.4903167,2.36596781 21.6372879,2.60693219 21.7409668,2.88720703 C21.8446457,3.16748187 21.8964844,3.47509598 21.8964844,3.81005859 L21.8964844,4.22021484 C21.8964844,4.55517746 21.8446457,4.86222191 21.7409668,5.14135742 C21.6372879,5.42049293 21.4920257,5.66088766 21.3051758,5.86254883 C21.1183259,6.06420999 20.8938815,6.22086533 20.6318359,6.33251953 C20.3697904,6.44417374 20.0804052,6.5 19.7636719,6.5 L18.4272461,6.5 Z M19.3945312,2.30273438 L19.3945312,5.72753906 L19.7636719,5.72753906 C19.9436858,5.72753906 20.1048984,5.69335972 20.2473145,5.625 C20.3897305,5.55664028 20.5104976,5.45752018 20.6096191,5.32763672 C20.7087407,5.19775326 20.7845049,5.03995861 20.8369141,4.85424805 C20.8893232,4.66853748 20.9155273,4.4571952 20.9155273,4.22021484 L20.9155273,3.80322266 C20.9155273,3.57991425 20.8898928,3.37654714 20.838623,3.19311523 C20.7873533,3.00968333 20.7110194,2.85188868 20.6096191,2.71972656 C20.5082189,2.58756444 20.3828946,2.48502641 20.2336426,2.41210938 C20.0843905,2.33919234 19.9117848,2.30273438 19.7158203,2.30273438 L19.3945312,2.30273438 Z M25.0957031,5.4609375 L23.6020508,5.4609375 L23.3081055,6.5 L22.2963867,6.5 L23.9267578,1.5234375 L24.7983398,1.5234375 L26.3979492,6.5 L25.3862305,6.5 L25.0957031,5.4609375 Z M23.8378906,4.64404297 L24.8701172,4.64404297 L24.3608398,2.81201172 L23.8378906,4.64404297 Z M26.8286133,6.5 L26.8286133,1.5234375 L28.1171875,1.5234375 C28.4475928,1.5234375 28.7466621,1.57983342 29.0144043,1.69262695 C29.2821465,1.80542049 29.5111481,1.96264548 29.701416,2.16430664 C29.8916839,2.36596781 30.0386551,2.60693219 30.142334,2.88720703 C30.2460129,3.16748187 30.2978516,3.47509598 30.2978516,3.81005859 L30.2978516,4.22021484 C30.2978516,4.55517746 30.2460129,4.86222191 30.142334,5.14135742 C30.0386551,5.42049293 29.8933929,5.66088766 29.706543,5.86254883 C29.5196931,6.06420999 29.2952487,6.22086533 29.0332031,6.33251953 C28.7711575,6.44417374 28.4817724,6.5 28.1650391,6.5 L26.8286133,6.5 Z M27.7958984,2.30273438 L27.7958984,5.72753906 L28.1650391,5.72753906 C28.345053,5.72753906 28.5062656,5.69335972 28.6486816,5.625 C28.7910977,5.55664028 28.9118647,5.45752018 29.0109863,5.32763672 C29.1101079,5.19775326 29.1858721,5.03995861 29.2382812,4.85424805 C29.2906904,4.66853748 29.3168945,4.4571952 29.3168945,4.22021484 L29.3168945,3.80322266 C29.3168945,3.57991425 29.29126,3.37654714 29.2399902,3.19311523 C29.1887204,3.00968333 29.1123866,2.85188868 29.0109863,2.71972656 C28.9095861,2.58756444 28.7842618,2.48502641 28.6350098,2.41210938 C28.4857577,2.33919234 28.313152,2.30273438 28.1171875,2.30273438 L27.7958984,2.30273438 Z M31.2617188,1.5234375 L34.1396484,1.5234375 L34.1396484,2.29931641 L33.1689453,2.29931641 L33.1689453,5.72753906 L34.1396484,5.72753906 L34.1396484,6.5 L31.2617188,6.5 L31.2617188,5.72753906 L32.2084961,5.72753906 L32.2084961,2.29931641 L31.2617188,2.29931641 L31.2617188,1.5234375 Z" id="leadDADI" fill="#FFFFFF" fill-rule="nonzero"></path>
    </g>
</svg>