<?xml version="1.0" encoding="UTF-8"?>
<svg width="15px" height="8px" viewBox="0 0 15 8" version="1.1" xmlns="http://www.w3.org/2000/svg" xmlns:xlink="http://www.w3.org/1999/xlink">
    <!-- Generator: Sketch 53.2 (72643) - https://sketchapp.com -->
    <title>mime-type-csv</title>
    <desc>Created with Sketch.</desc>
    <g id="mime-type-csv" stroke="none" stroke-width="1" fill="none" fill-rule="evenodd">
        <rect id="Rectangle" fill="#91A6B6" x="0" y="0" width="15" height="8" rx="2"></rect>
        <path d="M5.10229492,4.94140625 C5.08634432,5.19205854 5.03222702,5.41764223 4.93994141,5.61816406 C4.84765579,5.8186859 4.72404049,5.98958263 4.5690918,6.13085938 C4.41414311,6.27213612 4.22957464,6.38094037 4.01538086,6.45727539 C3.80118708,6.53361041 3.56421028,6.57177734 3.30444336,6.57177734 C3.01049658,6.57177734 2.74959424,6.51766005 2.52172852,6.40942383 C2.29386279,6.30118761 2.10245846,6.14965918 1.94750977,5.95483398 C1.79256107,5.76000879 1.67407268,5.52588027 1.59204102,5.25244141 C1.51000936,4.97900254 1.46899414,4.6782243 1.46899414,4.35009766 L1.46899414,3.68017578 C1.46899414,3.34977048 1.51228798,3.04785293 1.59887695,2.77441406 C1.68546593,2.5009752 1.80851157,2.26627702 1.96801758,2.0703125 C2.12752358,1.87434798 2.32063689,1.72224989 2.54736328,1.61401367 C2.77408968,1.50577745 3.0287258,1.45166016 3.3112793,1.45166016 C3.58471816,1.45166016 3.82796117,1.49039675 4.04101562,1.56787109 C4.25407008,1.64534544 4.43579026,1.75585866 4.58618164,1.89941406 C4.73657302,2.04296947 4.85506142,2.21842344 4.94165039,2.42578125 C5.02823937,2.63313906 5.08292632,2.86669792 5.10571289,3.12646484 L4.14868164,3.12646484 C4.13956701,2.97835212 4.11735044,2.84847061 4.08203125,2.73681641 C4.04671206,2.6251622 3.99544304,2.53230831 3.92822266,2.45825195 C3.86100227,2.38419559 3.77669322,2.32836933 3.67529297,2.29077148 C3.57389272,2.25317364 3.45255604,2.234375 3.3112793,2.234375 C3.16316658,2.234375 3.03442437,2.26627572 2.92504883,2.33007812 C2.81567328,2.39388053 2.72509802,2.48730407 2.65332031,2.61035156 C2.58154261,2.73339905 2.52856462,2.88435783 2.49438477,3.06323242 C2.46020491,3.24210701 2.44311523,3.44547412 2.44311523,3.67333984 L2.44311523,4.35009766 C2.44311523,4.84000896 2.51204358,5.20231002 2.64990234,5.43701172 C2.78776111,5.67171341 3.00593926,5.7890625 3.30444336,5.7890625 C3.55509565,5.7890625 3.75333586,5.72241278 3.89916992,5.58911133 C4.04500398,5.45580988 4.1258951,5.23991035 4.1418457,4.94140625 L5.10229492,4.94140625 Z M8.43139648,5.20117188 C8.43139648,5.11230424 8.41601578,5.0291345 8.38525391,4.95166016 C8.35449203,4.87418581 8.3020837,4.80183953 8.22802734,4.73461914 C8.15397098,4.66739875 8.0571295,4.60587593 7.9375,4.55004883 C7.8178705,4.49422173 7.66919034,4.44238305 7.49145508,4.39453125 C7.27498264,4.33528616 7.0681976,4.26123091 6.87109375,4.17236328 C6.6739899,4.08349565 6.50024489,3.97640037 6.34985352,3.85107422 C6.19946214,3.72574807 6.07926477,3.5799162 5.98925781,3.41357422 C5.89925085,3.24723224 5.85424805,3.05582791 5.85424805,2.83935547 C5.85424805,2.629719 5.8986812,2.43945398 5.98754883,2.26855469 C6.07641646,2.0976554 6.1994621,1.95182352 6.35668945,1.83105469 C6.5139168,1.71028585 6.69962458,1.61743197 6.91381836,1.55249023 C7.12801214,1.4875485 7.36043169,1.45507812 7.61108398,1.45507812 C7.87085091,1.45507812 8.10839736,1.49267541 8.32373047,1.56787109 C8.53906358,1.64306678 8.7242017,1.7484531 8.87915039,1.8840332 C9.03409908,2.01961331 9.1548661,2.18082589 9.24145508,2.36767578 C9.32804405,2.55452567 9.37133789,2.75960175 9.37133789,2.98291016 L8.43481445,2.98291016 C8.43025714,2.87125595 8.41031919,2.76871792 8.375,2.67529297 C8.33968081,2.58186802 8.28727248,2.50154656 8.21777344,2.43432617 C8.14827439,2.36710578 8.06168672,2.31469745 7.95800781,2.27709961 C7.85432891,2.23950177 7.73299223,2.22070312 7.59399414,2.22070312 C7.46638934,2.22070312 7.35302784,2.23608383 7.25390625,2.2668457 C7.15478466,2.29760758 7.07104526,2.34090141 7.00268555,2.39672852 C6.93432583,2.45255562 6.88248716,2.51863569 6.84716797,2.5949707 C6.81184878,2.67130572 6.79418945,2.75390581 6.79418945,2.84277344 C6.79418945,2.93619838 6.81754534,3.02050744 6.86425781,3.09570312 C6.91097029,3.17089881 6.97875932,3.23868785 7.06762695,3.29907227 C7.15649458,3.35945668 7.26415952,3.41471329 7.390625,3.46484375 C7.51709048,3.51497421 7.66007407,3.56168598 7.81958008,3.60498047 C8.0474458,3.67106153 8.25707912,3.75195265 8.44848633,3.84765625 C8.63989354,3.94335985 8.80452405,4.05672135 8.94238281,4.18774414 C9.08024157,4.31876693 9.18733686,4.46801674 9.26367188,4.63549805 C9.34000689,4.80297935 9.37817383,4.98925679 9.37817383,5.19433594 C9.37817383,5.41308703 9.33431033,5.60733965 9.24658203,5.77709961 C9.15885373,5.94685957 9.03751705,6.09041282 8.88256836,6.20776367 C8.72761967,6.32511452 8.5430512,6.41398082 8.32885742,6.47436523 C8.11466364,6.53474965 7.88110478,6.56494141 7.62817383,6.56494141 C7.47094648,6.56494141 7.31429115,6.55070001 7.15820312,6.5222168 C7.0021151,6.49373358 6.8528653,6.44987009 6.71044922,6.390625 C6.56803314,6.33137991 6.43530335,6.25732466 6.31225586,6.16845703 C6.18920837,6.0795894 6.08268274,5.97591205 5.99267578,5.85742188 C5.90266882,5.7389317 5.83203151,5.60449294 5.78076172,5.45410156 C5.72949193,5.30371019 5.70385742,5.1373707 5.70385742,4.95507812 L6.6472168,4.95507812 C6.65177411,5.1054695 6.67797828,5.2342117 6.72583008,5.34130859 C6.77368188,5.44840548 6.8403316,5.53613247 6.92578125,5.60449219 C7.0112309,5.6728519 7.11376893,5.72298161 7.23339844,5.75488281 C7.35302794,5.78678401 7.48461842,5.80273438 7.62817383,5.80273438 C7.75577863,5.80273438 7.86914013,5.78792333 7.96826172,5.75830078 C8.06738331,5.72867824 8.15112271,5.68766302 8.21948242,5.63525391 C8.28784214,5.58284479 8.34025047,5.519613 8.37670898,5.44555664 C8.4131675,5.37150028 8.43139648,5.29003951 8.43139648,5.20117188 Z M11.6955566,5.10888672 L12.635498,1.5234375 L13.6950684,1.5234375 L12.1877441,6.5 L11.2102051,6.5 L9.70629883,1.5234375 L10.7658691,1.5234375 L11.6955566,5.10888672 Z" id="CSV" fill="#FFFFFF" fill-rule="nonzero"></path>
    </g>
</svg>