<?xml version="1.0" encoding="UTF-8"?>
<svg width="15px" height="8px" viewBox="0 0 15 8" version="1.1" xmlns="http://www.w3.org/2000/svg" xmlns:xlink="http://www.w3.org/1999/xlink">
    <!-- Generator: Sketch 53.2 (72643) - https://sketchapp.com -->
    <title>mime-type-svg</title>
    <desc>Created with Sketch.</desc>
    <g id="mime-type-svg" stroke="none" stroke-width="1" fill="none" fill-rule="evenodd">
        <rect id="Rectangle" fill="#91A6B6" x="0" y="0" width="15" height="8" rx="2"></rect>
        <path d="M4.23071289,5.20117188 C4.23071289,5.11230424 4.21533219,5.0291345 4.18457031,4.95166016 C4.15380844,4.87418581 4.10140011,4.80183953 4.02734375,4.73461914 C3.95328739,4.66739875 3.85644591,4.60587593 3.73681641,4.55004883 C3.6171869,4.49422173 3.46850675,4.44238305 3.29077148,4.39453125 C3.07429905,4.33528616 2.86751401,4.26123091 2.67041016,4.17236328 C2.47330631,4.08349565 2.2995613,3.97640037 2.14916992,3.85107422 C1.99877854,3.72574807 1.87858118,3.5799162 1.78857422,3.41357422 C1.69856726,3.24723224 1.65356445,3.05582791 1.65356445,2.83935547 C1.65356445,2.629719 1.6979976,2.43945398 1.78686523,2.26855469 C1.87573287,2.0976554 1.99877851,1.95182352 2.15600586,1.83105469 C2.31323321,1.71028585 2.49894099,1.61743197 2.71313477,1.55249023 C2.92732854,1.4875485 3.1597481,1.45507812 3.41040039,1.45507812 C3.67016731,1.45507812 3.90771377,1.49267541 4.12304688,1.56787109 C4.33837998,1.64306678 4.52351811,1.7484531 4.6784668,1.8840332 C4.83341549,2.01961331 4.95418251,2.18082589 5.04077148,2.36767578 C5.12736046,2.55452567 5.1706543,2.75960175 5.1706543,2.98291016 L4.23413086,2.98291016 C4.22957354,2.87125595 4.20963559,2.76871792 4.17431641,2.67529297 C4.13899722,2.58186802 4.08658889,2.50154656 4.01708984,2.43432617 C3.9475908,2.36710578 3.86100312,2.31469745 3.75732422,2.27709961 C3.65364531,2.23950177 3.53230864,2.22070312 3.39331055,2.22070312 C3.26570574,2.22070312 3.15234425,2.23608383 3.05322266,2.2668457 C2.95410107,2.29760758 2.87036167,2.34090141 2.80200195,2.39672852 C2.73364224,2.45255562 2.68180356,2.51863569 2.64648438,2.5949707 C2.61116519,2.67130572 2.59350586,2.75390581 2.59350586,2.84277344 C2.59350586,2.93619838 2.61686175,3.02050744 2.66357422,3.09570312 C2.71028669,3.17089881 2.77807573,3.23868785 2.86694336,3.29907227 C2.95581099,3.35945668 3.06347593,3.41471329 3.18994141,3.46484375 C3.31640688,3.51497421 3.45939048,3.56168598 3.61889648,3.60498047 C3.84676221,3.67106153 4.05639553,3.75195265 4.24780273,3.84765625 C4.43920994,3.94335985 4.60384046,4.05672135 4.74169922,4.18774414 C4.87955798,4.31876693 4.98665326,4.46801674 5.06298828,4.63549805 C5.1393233,4.80297935 5.17749023,4.98925679 5.17749023,5.19433594 C5.17749023,5.41308703 5.13362674,5.60733965 5.04589844,5.77709961 C4.95817013,5.94685957 4.83683346,6.09041282 4.68188477,6.20776367 C4.52693607,6.32511452 4.34236761,6.41398082 4.12817383,6.47436523 C3.91398005,6.53474965 3.68042119,6.56494141 3.42749023,6.56494141 C3.27026289,6.56494141 3.11360755,6.55070001 2.95751953,6.5222168 C2.80143151,6.49373358 2.6521817,6.44987009 2.50976562,6.390625 C2.36734955,6.33137991 2.23461976,6.25732466 2.11157227,6.16845703 C1.98852478,6.0795894 1.88199915,5.97591205 1.79199219,5.85742188 C1.70198523,5.7389317 1.63134791,5.60449294 1.58007812,5.45410156 C1.52880834,5.30371019 1.50317383,5.1373707 1.50317383,4.95507812 L2.4465332,4.95507812 C2.45109052,5.1054695 2.47729468,5.2342117 2.52514648,5.34130859 C2.57299829,5.44840548 2.63964801,5.53613247 2.72509766,5.60449219 C2.8105473,5.6728519 2.91308534,5.72298161 3.03271484,5.75488281 C3.15234435,5.78678401 3.28393483,5.80273438 3.42749023,5.80273438 C3.55509504,5.80273438 3.66845654,5.78792333 3.76757812,5.75830078 C3.86669971,5.72867824 3.95043911,5.68766302 4.01879883,5.63525391 C4.08715854,5.58284479 4.13956687,5.519613 4.17602539,5.44555664 C4.21248391,5.37150028 4.23071289,5.29003951 4.23071289,5.20117188 Z M7.49487305,5.10888672 L8.43481445,1.5234375 L9.49438477,1.5234375 L7.98706055,6.5 L7.00952148,6.5 L5.50561523,1.5234375 L6.56518555,1.5234375 L7.49487305,5.10888672 Z M13.4694824,5.91894531 C13.4079587,5.994141 13.3236496,6.07047487 13.2165527,6.14794922 C13.1094558,6.22542356 12.9824226,6.29549122 12.8354492,6.3581543 C12.6884758,6.42081737 12.5238453,6.47151673 12.3415527,6.51025391 C12.1592602,6.54899108 11.9632986,6.56835938 11.7536621,6.56835938 C11.4711086,6.56835938 11.2159028,6.51822967 10.9880371,6.41796875 C10.7601714,6.31770783 10.5653491,6.17301527 10.4035645,5.98388672 C10.2417798,5.79475817 10.1170252,5.56290827 10.0292969,5.28833008 C9.94156857,5.01375188 9.89770508,4.70215018 9.89770508,4.35351562 L9.89770508,3.67675781 C9.89770508,3.32812326 9.94384719,3.01652156 10.0361328,2.74194336 C10.1284184,2.46736516 10.2560213,2.23437596 10.4189453,2.04296875 C10.5818693,1.85156154 10.7732736,1.70572967 10.9931641,1.60546875 C11.2130545,1.50520783 11.4517402,1.45507812 11.7092285,1.45507812 C11.9895034,1.45507812 12.2338857,1.49039678 12.4423828,1.56103516 C12.6508799,1.63167353 12.8269036,1.73364191 12.970459,1.86694336 C13.1140144,2.00024481 13.2262366,2.1625967 13.3071289,2.35400391 C13.3880212,2.54541111 13.4409992,2.76074099 13.4660645,3 L12.529541,3 C12.4976398,2.74479039 12.4207363,2.5528164 12.2988281,2.42407227 C12.17692,2.29532813 11.9883639,2.23095703 11.7331543,2.23095703 C11.6101068,2.23095703 11.4961757,2.2622881 11.3913574,2.32495117 C11.2865392,2.38761425 11.1953943,2.47932882 11.1179199,2.60009766 C11.0404456,2.72086649 10.9789228,2.87068595 10.9333496,3.04956055 C10.8877765,3.22843514 10.8649902,3.43522018 10.8649902,3.66992188 L10.8649902,4.35351562 C10.8672689,4.8183617 10.9447421,5.17439655 11.0974121,5.42163086 C11.2500821,5.66886517 11.483641,5.79361978 11.7980957,5.79589844 C11.8732914,5.79589844 11.9473466,5.79020188 12.0202637,5.77880859 C12.0931807,5.76741531 12.1615394,5.75146495 12.2253418,5.73095703 C12.2891442,5.71044912 12.3455401,5.68709323 12.3945312,5.66088867 C12.4435224,5.63468411 12.48055,5.60677098 12.5056152,5.57714844 L12.5090332,4.67480469 L11.6853027,4.67480469 L11.6853027,3.95703125 L13.4660645,3.95703125 L13.4694824,5.91894531 Z" id="SVG" fill="#FFFFFF" fill-rule="nonzero"></path>
    </g>
</svg>