<?xml version="1.0" encoding="UTF-8"?>
<svg width="15px" height="8px" viewBox="0 0 15 8" version="1.1" xmlns="http://www.w3.org/2000/svg" xmlns:xlink="http://www.w3.org/1999/xlink">
    <!-- Generator: Sketch 53.2 (72643) - https://sketchapp.com -->
    <title>mime-type-zip</title>
    <desc>Created with Sketch.</desc>
    <g id="mime-type-zip" stroke="none" stroke-width="1" fill="none" fill-rule="evenodd">
        <rect id="Rectangle" fill="#91A6B6" x="0" y="0" width="15" height="8" rx="2"></rect>
        <path d="M2.67211914,5.72412109 L5.13989258,5.72412109 L5.13989258,6.5 L1.50317383,6.5 L1.50317383,5.91210938 L3.91625977,2.30615234 L1.51000977,2.30615234 L1.51000977,1.5234375 L5.07836914,1.5234375 L5.08178711,2.09423828 L2.67211914,5.72412109 Z M6.05932617,1.5234375 L8.93725586,1.5234375 L8.93725586,2.29931641 L7.96655273,2.29931641 L7.96655273,5.72753906 L8.93725586,5.72753906 L8.93725586,6.5 L6.05932617,6.5 L6.05932617,5.72753906 L7.00610352,5.72753906 L7.00610352,2.29931641 L6.05932617,2.29931641 L6.05932617,1.5234375 Z M11.0700684,4.67480469 L11.0700684,6.5 L10.1096191,6.5 L10.1096191,1.5234375 L11.8117676,1.5234375 C12.0829278,1.5234375 12.3278798,1.56274375 12.5466309,1.64135742 C12.765382,1.7199711 12.9516594,1.829345 13.1054688,1.96948242 C13.2592781,2.10961984 13.3777665,2.27766829 13.4609375,2.47363281 C13.5441085,2.66959733 13.5856934,2.88720583 13.5856934,3.12646484 C13.5856934,3.34977325 13.5441085,3.55598864 13.4609375,3.74511719 C13.3777665,3.93424574 13.2592781,4.09773694 13.1054688,4.2355957 C12.9516594,4.37345447 12.765382,4.4811194 12.5466309,4.55859375 C12.3278798,4.6360681 12.0829278,4.67480469 11.8117676,4.67480469 L11.0700684,4.67480469 Z M11.0700684,3.89550781 L11.8117676,3.89550781 C11.948487,3.89550781 12.0669754,3.87500021 12.1672363,3.83398438 C12.2674972,3.79296854 12.3512366,3.73714228 12.418457,3.66650391 C12.4856774,3.59586553 12.5358071,3.51440476 12.5688477,3.42211914 C12.6018882,3.32983352 12.6184082,3.2335617 12.6184082,3.13330078 C12.6184082,3.01708926 12.6018882,2.90885467 12.5688477,2.80859375 C12.5358071,2.70833283 12.4856774,2.62060584 12.418457,2.54541016 C12.3512366,2.47021447 12.2674972,2.41097027 12.1672363,2.36767578 C12.0669754,2.32438129 11.948487,2.30273438 11.8117676,2.30273438 L11.0700684,2.30273438 L11.0700684,3.89550781 Z" id="ZIP" fill="#FFFFFF" fill-rule="nonzero"></path>
    </g>
</svg>