<?xml version="1.0" encoding="UTF-8"?>
<svg width="4px" height="8px" viewBox="0 0 4 8" version="1.1" xmlns="http://www.w3.org/2000/svg" xmlns:xlink="http://www.w3.org/1999/xlink">
    <!-- Generator: Sketch 48.2 (47327) - http://www.bohemiancoding.com/sketch -->
    <title>min-amount</title>
    <desc>Created with Sketch.</desc>
    <defs></defs>
    <g id="icon-/-misc-/-min" stroke="none" stroke-width="1" fill="none" fill-rule="evenodd">
        <path d="M0,0.714285714 C0,0.319761905 0.33575,0 0.75,0 C0.95225,0 1.13575,0.0761904762 1.27075,0.199761905 L3.7705,2.48571429 C3.912,2.61595238 4,2.79761905 4,3.00309524 C4,3.205 3.912,3.38714286 3.77075,3.51738095 L1.26875,5.80119048 C1.134,5.92428571 0.95125,6 0.75,6 C0.33575,6 0,5.6802381 0,5.28571429 C0,5.06904762 0.1015,4.875 0.2615,4.74404762 L2.191,3.00166667 L0.21025,1.21 C0.08025,1.08142857 0,0.906904762 0,0.714285714 Z M0.75,6.5 L3.24768066,6.50083278 C3.66189423,6.50083278 3.99768066,6.83661922 3.99768066,7.25083278 C3.99768066,7.66504635 3.66189423,8.00083278 3.24768066,8.00083278 L0.75,8 C0.335786438,8 1.13686838e-13,7.66421356 0,7.25 C0,6.83578644 0.335786438,6.5 0.75,6.5 Z" id="min-amount" fill="#91A6B6"></path>
    </g>
</svg>