<?xml version="1.0" encoding="UTF-8"?>
<svg width="56px" height="20px" viewBox="0 0 56 20" version="1.1" xmlns="http://www.w3.org/2000/svg" xmlns:xlink="http://www.w3.org/1999/xlink">
    <!-- Generator: Sketch 53.2 (72643) - https://sketchapp.com -->
    <title>new-label_nl</title>
    <desc>Created with Sketch.</desc>
    <g id="Global-Interactions" stroke="none" stroke-width="1" fill="none" fill-rule="evenodd">
        <g id="email----digest" transform="translate(-500.000000, -598.000000)">
            <g id="asset" transform="translate(40.000000, 525.000000)">
                <g id="new-tag" transform="translate(460.000000, 73.000000)">
                    <path d="M0,10 C0,4.4771525 4.47627836,0 9.99553171,0 L46.0044683,0 C51.524848,0 56,4.47593818 56,10 L56,10 C56,15.5228475 51.5237216,20 46.0044683,20 L9.99553171,20 C4.47515198,20 0,15.5240618 0,10 L0,10 Z" id="bg" fill="#F5A623" fill-rule="evenodd"></path>
                    <g id="icon-/-misc-/-star-white" transform="translate(43.000000, 7.000000)" fill="#FFFFFF" fill-rule="nonzero">
                        <path d="M6,2.36065574 C6,2.19767213 5.87409375,2.06557377 5.71875,2.06557377 L3.84815625,2.06557377 L3.26896875,0.20852459 C3.233625,0.0878360656 3.12675,0 3,0 C2.8734375,0 2.766375,0.0877377049 2.731125,0.20852459 L2.15184375,2.06557377 L0.28125,2.06557377 C0.12590625,2.06557377 0,2.19767213 0,2.36065574 C0,2.45901639 0.0459375,2.54606557 0.1164375,2.59967213 L0.1164375,2.59967213 L1.6275,3.74655738 L1.04540625,5.61255738 C1.03621875,5.64167213 1.03125,5.67265574 1.03125,5.70491803 C1.03125,5.86790164 1.15715625,6 1.3125,6 C1.37409375,6 1.43090625,5.97904918 1.4773125,5.94393443 L1.47740625,5.94393443 L3,4.78839344 L4.5226875,5.94393443 L4.52278125,5.94393443 C4.569,5.97914754 4.62590625,6 4.6875,6 C4.84284375,6 4.96875,5.86790164 4.96875,5.70491803 C4.96875,5.67265574 4.96378125,5.64167213 4.9546875,5.61265574 L4.37259375,3.74655738 L5.88365625,2.59967213 L5.88365625,2.59967213 C5.9540625,2.54606557 6,2.45901639 6,2.36065574 Z" id="star-white"></path>
                    </g>
                    <text id="text" font-family="Roboto-Medium, Roboto" font-size="10" font-weight="400" fill="#FFFFFF">
                        <tspan x="7" y="13.5">NIEUW</tspan>
                    </text>
                </g>
            </g>
        </g>
    </g>
</svg>