<?xml version="1.0" encoding="UTF-8"?>
<svg width="56px" height="20px" viewBox="0 0 56 20" version="1.1" xmlns="http://www.w3.org/2000/svg" xmlns:xlink="http://www.w3.org/1999/xlink">
    <!-- Generator: Sketch 53.2 (72643) - https://sketchapp.com -->
    <title>new-label_nl</title>
    <desc>Created with Sketch.</desc>
    <g id="Global-Interactions" stroke="none" stroke-width="1" fill="none" fill-rule="evenodd">
        <g id="email----digest" transform="translate(-500.000000, -598.000000)">
            <g id="asset" transform="translate(40.000000, 525.000000)">
                <g id="new-label_nl" transform="translate(460.000000, 73.000000)">
                    <path d="M0,10 C0,4.4771525 4.47627836,0 9.99553171,0 L46.0044683,0 C51.524848,0 56,4.47593818 56,10 L56,10 C56,15.5228475 51.5237216,20 46.0044683,20 L9.99553171,20 C4.47515198,20 0,15.5240618 0,10 L0,10 Z" id="bg" fill="#F5A623"></path>
                    <g id="icon-/-misc-/-star-white" transform="translate(43.000000, 7.000000)" fill="#FFFFFF" fill-rule="nonzero">
                        <path d="M6,2.36065574 C6,2.19767213 5.87409375,2.06557377 5.71875,2.06557377 L3.84815625,2.06557377 L3.26896875,0.20852459 C3.233625,0.0878360656 3.12675,0 3,0 C2.8734375,0 2.766375,0.0877377049 2.731125,0.20852459 L2.15184375,2.06557377 L0.28125,2.06557377 C0.12590625,2.06557377 0,2.19767213 0,2.36065574 C0,2.45901639 0.0459375,2.54606557 0.1164375,2.59967213 L0.1164375,2.59967213 L1.6275,3.74655738 L1.04540625,5.61255738 C1.03621875,5.64167213 1.03125,5.67265574 1.03125,5.70491803 C1.03125,5.86790164 1.15715625,6 1.3125,6 C1.37409375,6 1.43090625,5.97904918 1.4773125,5.94393443 L1.47740625,5.94393443 L3,4.78839344 L4.5226875,5.94393443 L4.52278125,5.94393443 C4.569,5.97914754 4.62590625,6 4.6875,6 C4.84284375,6 4.96875,5.86790164 4.96875,5.70491803 C4.96875,5.67265574 4.96378125,5.64167213 4.9546875,5.61265574 L4.37259375,3.74655738 L5.88365625,2.59967213 L5.88365625,2.59967213 C5.9540625,2.54606557 6,2.45901639 6,2.36065574 Z" id="star-white"></path>
                    </g>
                    <path d="M13.3623047,13.5 L12.1269531,13.5 L8.95800781,8.45605469 L8.95800781,13.5 L7.72265625,13.5 L7.72265625,6.390625 L8.95800781,6.390625 L12.1367188,11.4541016 L12.1367188,6.390625 L13.3623047,6.390625 L13.3623047,13.5 Z M16.1259766,13.5 L14.8955078,13.5 L14.8955078,6.390625 L16.1259766,6.390625 L16.1259766,13.5 Z M21.7998047,10.3261719 L18.8798828,10.3261719 L18.8798828,12.5136719 L22.2929688,12.5136719 L22.2929688,13.5 L17.6445312,13.5 L17.6445312,6.390625 L22.2587891,6.390625 L22.2587891,7.38671875 L18.8798828,7.38671875 L18.8798828,9.34960938 L21.7998047,9.34960938 L21.7998047,10.3261719 Z M28.4990234,6.390625 L28.4990234,11.1416016 C28.4990234,11.8968137 28.2573266,12.4949522 27.7739258,12.9360352 C27.2905249,13.3771181 26.6468139,13.5976562 25.8427734,13.5976562 C25.0289673,13.5976562 24.3828149,13.3803733 23.9042969,12.9458008 C23.4257789,12.5112283 23.1865234,11.908207 23.1865234,11.1367188 L23.1865234,6.390625 L24.4169922,6.390625 L24.4169922,11.1464844 C24.4169922,11.6217472 24.5374337,11.9846993 24.7783203,12.2353516 C25.0192069,12.4860039 25.3740211,12.6113281 25.8427734,12.6113281 C26.793299,12.6113281 27.2685547,12.1100311 27.2685547,11.1074219 L27.2685547,6.390625 L28.4990234,6.390625 Z M35.3935547,11.7421875 L36.4873047,6.390625 L37.7128906,6.390625 L36.0722656,13.5 L34.890625,13.5 L33.5380859,8.30957031 L32.15625,13.5 L30.9697266,13.5 L29.3291016,6.390625 L30.5546875,6.390625 L31.6582031,11.7324219 L33.015625,6.390625 L34.0507812,6.390625 L35.3935547,11.7421875 Z" id="NIEUW" fill="#FFFFFF" fill-rule="nonzero"></path>
                </g>
            </g>
        </g>
    </g>
</svg>