<?xml version="1.0" encoding="UTF-8"?>
<svg width="71px" height="20px" viewBox="0 0 71 20" version="1.1" xmlns="http://www.w3.org/2000/svg" xmlns:xlink="http://www.w3.org/1999/xlink">
    <!-- Generator: Sketch 53.2 (72643) - https://sketchapp.com -->
    <title>new-label_fr</title>
    <desc>Created with Sketch.</desc>
    <g id="Global-Interactions" stroke="none" stroke-width="1" fill="none" fill-rule="evenodd">
        <g id="email----digest" transform="translate(-500.000000, -575.000000)">
            <g id="asset" transform="translate(40.000000, 525.000000)">
                <g id="new-label_fr" transform="translate(460.000000, 50.000000)">
                    <path d="M0,10 C0,4.4771525 4.46826439,0 10.0032152,0 L60.9967848,0 C66.521408,0 71,4.47593818 71,10 L71,10 C71,15.5228475 66.5317356,20 60.9967848,20 L10.0032152,20 C4.47859201,20 0,15.5240618 0,10 L0,10 Z" id="bg" fill="#F5A623"></path>
                    <g id="icon-/-misc-/-star-white" transform="translate(58.000000, 7.000000)" fill="#FFFFFF" fill-rule="nonzero">
                        <path d="M6,2.36065574 C6,2.19767213 5.87409375,2.06557377 5.71875,2.06557377 L3.84815625,2.06557377 L3.26896875,0.20852459 C3.233625,0.0878360656 3.12675,0 3,0 C2.8734375,0 2.766375,0.0877377049 2.731125,0.20852459 L2.15184375,2.06557377 L0.28125,2.06557377 C0.12590625,2.06557377 0,2.19767213 0,2.36065574 C0,2.45901639 0.0459375,2.54606557 0.1164375,2.59967213 L0.1164375,2.59967213 L1.6275,3.74655738 L1.04540625,5.61255738 C1.03621875,5.64167213 1.03125,5.67265574 1.03125,5.70491803 C1.03125,5.86790164 1.15715625,6 1.3125,6 C1.37409375,6 1.43090625,5.97904918 1.4773125,5.94393443 L1.47740625,5.94393443 L3,4.78839344 L4.5226875,5.94393443 L4.52278125,5.94393443 C4.569,5.97914754 4.62590625,6 4.6875,6 C4.84284375,6 4.96875,5.86790164 4.96875,5.70491803 C4.96875,5.67265574 4.96378125,5.64167213 4.9546875,5.61265574 L4.37259375,3.74655738 L5.88365625,2.59967213 L5.88365625,2.59967213 C5.9540625,2.54606557 6,2.45901639 6,2.36065574 Z" id="star-white"></path>
                    </g>
                    <path d="M13.3623047,13.5 L12.1269531,13.5 L8.95800781,8.45605469 L8.95800781,13.5 L7.72265625,13.5 L7.72265625,6.390625 L8.95800781,6.390625 L12.1367188,11.4541016 L12.1367188,6.390625 L13.3623047,6.390625 L13.3623047,13.5 Z M20.4960938,10.1308594 C20.4960938,10.8274774 20.3756522,11.4386367 20.1347656,11.9643555 C19.893879,12.4900742 19.5496442,12.893716 19.1020508,13.175293 C18.6544574,13.4568699 18.1393258,13.5976562 17.5566406,13.5976562 C16.9804659,13.5976562 16.4669619,13.4568699 16.0161133,13.175293 C15.5652647,12.893716 15.2169609,12.4925156 14.9711914,11.9716797 C14.7254219,11.4508438 14.6009115,10.8502638 14.5976562,10.1699219 L14.5976562,9.76953125 C14.5976562,9.07616841 14.7205391,8.46419536 14.9663086,7.93359375 C15.2120781,7.40299214 15.5587543,6.99690896 16.0063477,6.71533203 C16.453941,6.4337551 16.967445,6.29296875 17.546875,6.29296875 C18.126305,6.29296875 18.639809,6.43212751 19.0874023,6.71044922 C19.5349957,6.98877092 19.8808582,7.38915754 20.125,7.91162109 C20.3691418,8.43408464 20.4928385,9.04198872 20.4960938,9.73535156 L20.4960938,10.1308594 Z M19.2607422,9.75976562 C19.2607422,8.97200127 19.1118179,8.36816616 18.8139648,7.94824219 C18.5161118,7.52831821 18.0937527,7.31835938 17.546875,7.31835938 C17.0130182,7.31835938 16.5955419,7.52750442 16.2944336,7.94580078 C15.9933253,8.36409714 15.8395183,8.95572534 15.8330078,9.72070312 L15.8330078,10.1308594 C15.8330078,10.9121133 15.9851873,11.5159484 16.2895508,11.9423828 C16.5939143,12.3688172 17.0162733,12.5820312 17.5566406,12.5820312 C18.1035184,12.5820312 18.5242498,12.3737 18.8188477,11.9570312 C19.1134455,11.5403625 19.2607422,10.9316446 19.2607422,10.1308594 L19.2607422,9.75976562 Z M26.9267578,6.390625 L26.9267578,11.1416016 C26.9267578,11.8968137 26.685061,12.4949522 26.2016602,12.9360352 C25.7182593,13.3771181 25.0745483,13.5976562 24.2705078,13.5976562 C23.4567017,13.5976562 22.8105493,13.3803733 22.3320312,12.9458008 C21.8535132,12.5112283 21.6142578,11.908207 21.6142578,11.1367188 L21.6142578,6.390625 L22.8447266,6.390625 L22.8447266,11.1464844 C22.8447266,11.6217472 22.9651681,11.9846993 23.2060547,12.2353516 C23.4469413,12.4860039 23.8017555,12.6113281 24.2705078,12.6113281 C25.2210334,12.6113281 25.6962891,12.1100311 25.6962891,11.1074219 L25.6962891,6.390625 L26.9267578,6.390625 Z M30.75,11.9521484 L32.5566406,6.390625 L33.9140625,6.390625 L31.3554688,13.5 L30.1591797,13.5 L27.6103516,6.390625 L28.9628906,6.390625 L30.75,11.9521484 Z M38.8701172,10.3261719 L35.9501953,10.3261719 L35.9501953,12.5136719 L39.3632812,12.5136719 L39.3632812,13.5 L34.7148438,13.5 L34.7148438,6.390625 L39.3291016,6.390625 L39.3291016,7.38671875 L35.9501953,7.38671875 L35.9501953,9.34960938 L38.8701172,9.34960938 L38.8701172,10.3261719 Z M44.3486328,11.8447266 L41.5947266,11.8447266 L41.0185547,13.5 L39.734375,13.5 L42.4199219,6.390625 L43.5283203,6.390625 L46.21875,13.5 L44.9296875,13.5 L44.3486328,11.8447266 Z M41.9414062,10.8486328 L44.0019531,10.8486328 L42.9716797,7.89941406 L41.9414062,10.8486328 Z M52.1416016,6.390625 L52.1416016,11.1416016 C52.1416016,11.8968137 51.8999048,12.4949522 51.4165039,12.9360352 C50.9331031,13.3771181 50.289392,13.5976562 49.4853516,13.5976562 C48.6715454,13.5976562 48.025393,13.3803733 47.546875,12.9458008 C47.068357,12.5112283 46.8291016,11.908207 46.8291016,11.1367188 L46.8291016,6.390625 L48.0595703,6.390625 L48.0595703,11.1464844 C48.0595703,11.6217472 48.1800118,11.9846993 48.4208984,12.2353516 C48.6617851,12.4860039 49.0165992,12.6113281 49.4853516,12.6113281 C50.4358771,12.6113281 50.9111328,12.1100311 50.9111328,11.1074219 L50.9111328,6.390625 L52.1416016,6.390625 Z" id="NOUVEAU" fill="#FFFFFF" fill-rule="nonzero"></path>
                </g>
            </g>
        </g>
    </g>
</svg>