<svg xmlns="http://www.w3.org/2000/svg" width="14" height="16" viewBox="0 0 14 16">
  <path fill="#91A6B6" fill-rule="evenodd" d="M5.03222842,1 L1.50966585,1 C1.22247314,1 1,1.22308192 1,1.49826741 L1,14.5017326 C1,14.7800934 1.22401312,15 1.50034732,15 L12.4996527,15 C12.7709994,15 13,14.7755913 13,14.4987692 L13,8.96889237 C13.3485523,8.95783222 13.6946693,8.85621914 14,8.66404129 L14,15.0014977 C14,15.5529553 13.5500512,16 12.9931545,16 L1.00684547,16 C0.450780073,16 0,15.5553691 0,14.9991283 L0,1.00087166 C0,0.448105505 0.444836974,0 0.995577499,0 L5.3349448,0 C5.14400911,0.305308738 5.04310365,0.651490359 5.03222842,1 L5.03222842,1 Z M3,10 L11,10 L11,11 L3,11 L3,10 Z M3,12 L11,12 L11,13 L3,13 L3,12 Z M13.6428281,6.25641025 C14.0347424,6.64665416 14.0347424,7.28705441 13.6428281,7.67729831 C13.2529134,8.06754221 12.6190521,8.06754221 12.2281376,7.67729831 L9.98962727,5.43589743 L7.72212329,7.70731707 C7.32820945,8.09756098 6.6893492,8.09756098 6.29543537,7.70731707 C5.90152154,7.30706692 5.90152154,6.66666666 6.29543537,6.27642276 L8.56293936,4.00500312 L6.32442903,1.77360851 C5.93351454,1.3833646 5.93351454,0.742964354 6.32442903,0.352720451 C6.71534352,-0.0375234522 7.34920486,-0.0375234522 7.73911957,0.352720451 L9.97762989,2.59412133 L12.2771269,0.292682927 C12.6720405,-0.0975609757 13.309901,-0.0975609757 13.7038148,0.292682927 C14.0987284,0.692933084 14.0987284,1.32332708 13.7038148,1.72357724 L11.4043178,4.02501563 L13.6428281,6.25641025 Z"/>
</svg>
