<svg xmlns="http://www.w3.org/2000/svg" width="16" height="18" viewBox="0 0 16 18">
  <path fill="#DCE6ED" fill-rule="evenodd" d="M14,12 L14,6 C14,3.3106087 11.6893913,1 9,1 C9,0.423652174 8.57634783,0 8,0 C7.42365217,0 7,0.423652174 7,1 C4.3106087,1 2,3.3106087 2,6 L2,12 C2,12.5763478 1.57634783,13 1,13 C0.423652174,13 0,13.3801739 0,14 C0,14.5328696 0.467130435,15 1,15 L15,15 C15.5328696,15 16,14.5328696 16,14 C16,13.3801739 15.5763478,13 15,13 C14.4236522,13 14,12.5763478 14,12 Z M10,16.0434783 L6,16.0434783 C6,17.1961739 6.84730435,18 8,18 C9.15269565,18 10,17.1961739 10,16.0434783 Z"/>
</svg>
