<svg xmlns="http://www.w3.org/2000/svg" width="16" height="16" viewBox="0 0 16 16">
  <path fill="none" stroke="#91A6B6" d="M5.1458317,4.07375968 C5.71984998,3.49845349 5.71984998,2.56739933 5.1458317,1.99272955 L3.58414561,0.431002342 C3.00949095,-0.143667447 2.07718854,-0.143667447 1.50253387,0.431002342 L0.64659753,1.28696122 C-0.0966988682,2.03027718 -0.211884354,3.18916277 0.367224998,4.06548647 C2.85484966,7.82661433 6.17359171,11.1454437 9.93462055,13.6331339 C10.8096484,14.2116221 11.9723218,14.0964336 12.7130727,13.3550268 L13.569009,12.4977951 C14.1436637,11.9231253 14.1436637,10.9914348 13.569009,10.4161286 L12.0079593,8.85503779 C11.433941,8.280368 10.5016386,8.280368 9.92634756,8.85503779 L9.40642192,9.37561352 C7.69454923,7.97171368 6.0278598,6.30561677 4.62526967,4.59306261 L5.1458317,4.07375968 L5.1458317,4.07375968 L5.1458317,4.07375968 Z" transform="translate(1 1)"/>
</svg>
