<svg xmlns="http://www.w3.org/2000/svg" width="7" height="12" viewBox="0 0 7 12">
  <path fill="#91A6B6" fill-rule="evenodd" d="M2.5,11 C2.5,10.4477153 2.94386482,10 3.5,10 C4.05228475,10 4.5,10.4438648 4.5,11 C4.5,11.5522847 4.05613518,12 3.5,12 C2.94771525,12 2.5,11.5561352 2.5,11 Z M0,3.50952148 C0,1.57126629 1.57093664,1.02787706e-15 3.5,3.55271368e-15 C5.43299662,6.08269831e-15 7,1.57093664 7,3.5 C7,5.43299662 5.43090773,7 4.5,7 L4.5,9 L2.5,9 L2.5,6.0093689 C2.5,5.45190985 2.9469499,5 3.50244075,5 C4.32951989,5 5,4.33420277 5,3.5 C5,2.67157288 4.33420277,2 3.5,2 C2.67157288,2 2,2.67710876 2,3.49531555 L2,4 L0,4 L0,3.50952148 Z"/>
</svg>
