<svg xmlns="http://www.w3.org/2000/svg" width="16" height="16" viewBox="0 0 16 16">
  <path fill="#FFFFFF" fill-rule="evenodd" d="M1.99406029,1.39189069e-08 L14.0059397,1.39189069e-08 C15.1054862,1.39189069e-08 16,0.892771187 16,1.99406024 L16,14.0059394 C16,15.1054859 15.1072288,15.9999996 14.0059397,15.9999996 L1.99406028,16 C0.894513755,16 -5.13574141e-10,15.1072288 4.22006161e-10,14.0059398 L1.0626482e-08,1.9940603 C1.15605819e-08,0.894513772 0.892771208,1.39189069e-08 1.99406029,1.39189069e-08 Z M0.999999999,2.00684556 L0.999999999,13.993155 C0.999999999,14.5500517 1.45078007,15.0000005 2.00684547,15.0000005 L13.9931545,15.0000005 C14.5500512,15.0000005 15,14.5492204 15,13.993155 L15,2.00684556 C15,1.44994882 14.5492199,1.00000005 13.9931545,1.00000005 L2.00684547,1.00000005 C1.44994876,1.00000005 0.999999999,1.45078014 0.999999999,2.00684556 Z M10.3949091,5.68563659 L7.30927274,8.77145487 L5.76654547,7.22872755 C5.48254547,6.94472754 5.02200001,6.94472754 4.73800001,7.22872755 C4.45400001,7.51272756 4.45400001,7.97327303 4.73800001,8.25709122 L6.79454547,10.3140004 C7.07872729,10.5980004 7.53927274,10.5980004 7.82327274,10.3140004 L11.4230909,6.71418208 C11.7072727,6.4305457 11.7072727,5.97000024 11.4234546,5.68581841 C11.1394546,5.40163658 10.6789091,5.40163658 10.3949091,5.68563659 L10.3949091,5.68563659 Z"/>
</svg>
