<?xml version="1.0" encoding="UTF-8"?>
<svg width="17px" height="16px" viewBox="0 0 17 16" version="1.1" xmlns="http://www.w3.org/2000/svg" xmlns:xlink="http://www.w3.org/1999/xlink">
    <!-- Generator: Sketch 53.2 (72643) - https://sketchapp.com -->
    <title>search</title>
    <desc>Created with Sketch.</desc>
    <g id="search" stroke="none" stroke-width="1" fill="none" fill-rule="evenodd" transform="translate(0.000000, 0.000000)">
        <g id="icon-/-misc-/-search">
            <path d="M11.1645,9.04325 C11.692,8.1505 12,7.11225 12,6 C12,2.68625 9.31375,0 6,0 C2.68625,0 0,2.68625 0,6 C0,9.31375 2.68625,12 6,12 C7.11225,12 8.1505,11.692 9.04325,11.1645 L13.43925,15.5605 C13.71075,15.83225 14.08575,16 14.5,16 C15.3285,16 16,15.3285 16,14.5 C16,14.08575 15.832,13.71075 15.56075,13.4395 L11.1645,9.04325 Z" id="Path" fill="#91A6B6"></path>
            <path d="M1,6 C1,3.23861111 3.23861111,1 6,1 C8.76138889,1 11,3.23861111 11,6 C11,8.76138889 8.76138889,11 6,11 C3.23861111,11 1,8.76138889 1,6 Z" id="Path" fill-opacity="0.7" fill="#FFFFFF"></path>
            <path d="M9,6 C9,4.34314575 7.65685425,3 6,3 L6,2 C8.209139,2 10,3.790861 10,6 L9,6 Z" id="Path" fill="#FFFFFF"></path>
        </g>
    </g>
</svg>