<svg xmlns="http://www.w3.org/2000/svg" width="16" height="16" viewBox="0 0 16 16">
  <path fill="#91A6B6" fill-rule="evenodd" d="M15.56075,13.4395 L11.1645,9.04325 C11.692,8.1505 12,7.11225 12,6 C12,2.68625 9.31375,0 6,0 C2.68625,0 0,2.68625 0,6 C0,9.31375 2.68625,12 6,12 C7.11225,12 8.1505,11.692 9.04325,11.1645 L13.43925,15.5605 C13.71075,15.83225 14.08575,16 14.5,16 C15.3285,16 16,15.3285 16,14.5 C16,14.08575 15.832,13.71075 15.56075,13.4395 L15.56075,13.4395 Z M1,6 C1,3.23861111 3.23861111,1 6,1 C8.76138889,1 11,3.23861111 11,6 C11,8.76138889 8.76138889,11 6,11 C3.23861111,11 1,8.76138889 1,6 Z"/>
</svg>
