<?xml version="1.0" encoding="UTF-8"?>
<svg width="16px" height="14px" viewBox="0 0 16 14" version="1.1" xmlns="http://www.w3.org/2000/svg" xmlns:xlink="http://www.w3.org/1999/xlink">
    <!-- Generator: Sketch 52.3 (67297) - http://www.bohemiancoding.com/sketch -->
    <title>select-all</title>
    <desc>Created with Sketch.</desc>
    <g id="Symbols" stroke="none" stroke-width="1" fill="none" fill-rule="evenodd">
        <g id="icon-/-select-all" fill="#329798">
            <path d="M8,1 L15,1 C15.5522847,1 16,1.44771525 16,2 C16,2.55228475 15.5522847,3 15,3 L8,3 C7.44771525,3 7,2.55228475 7,2 C7,1.44771525 7.44771525,1 8,1 Z M8,6 L15,6 C15.5522847,6 16,6.44771525 16,7 C16,7.55228475 15.5522847,8 15,8 L8,8 C7.44771525,8 7,7.55228475 7,7 C7,6.44771525 7.44771525,6 8,6 Z M8,11 L15,11 C15.5522847,11 16,11.4477153 16,12 C16,12.5522847 15.5522847,13 15,13 L8,13 C7.44771525,13 7,12.5522847 7,12 C7,11.4477153 7.44771525,11 8,11 Z M1.74542899,2.26798439 L3.78566091,0.210122711 C4.06347821,-0.0700707935 4.51399756,-0.0700707935 4.79181486,0.210302093 C5.0694543,0.490674979 5.0694543,0.945047673 4.79145914,1.22488241 L2.24823918,3.78985487 C1.97042188,4.07004838 1.51990253,4.07004838 1.24190737,3.78985487 L0.208362976,2.74711166 C-0.0694543253,2.46709754 -0.0694543253,2.01272484 0.208362976,1.73253134 C0.486180277,1.45233783 0.936699626,1.45233783 1.21451693,1.73253134 L1.74542899,2.26798439 Z M1.74542899,7.26798439 L3.78566091,5.21012271 C4.06347821,4.92992921 4.51399756,4.92992921 4.79181486,5.21030209 C5.0694543,5.49067498 5.0694543,5.94504767 4.79145914,6.22488241 L2.24823918,8.78985487 C1.97042188,9.07004838 1.51990253,9.07004838 1.24190737,8.78985487 L0.208362976,7.74711166 C-0.0694543253,7.46709754 -0.0694543253,7.01272484 0.208362976,6.73253134 C0.486180277,6.45233783 0.936699626,6.45233783 1.21451693,6.73253134 L1.74542899,7.26798439 Z M1.74542899,12.2679844 L3.78566091,10.2101227 C4.06347821,9.92992921 4.51399756,9.92992921 4.79181486,10.2103021 C5.0694543,10.490675 5.0694543,10.9450477 4.79145914,11.2248824 L2.24823918,13.7898549 C1.97042188,14.0700484 1.51990253,14.0700484 1.24190737,13.7898549 L0.208362976,12.7471117 C-0.0694543253,12.4670975 -0.0694543253,12.0127248 0.208362976,11.7325313 C0.486180277,11.4523378 0.936699626,11.4523378 1.21451693,11.7325313 L1.74542899,12.2679844 Z" id="select-all"></path>
        </g>
    </g>
</svg>