<svg xmlns="http://www.w3.org/2000/svg" width="14" height="16" viewBox="0 0 14 16">
  <path fill="#91A6B6" fill-rule="evenodd" d="M1.5,6 C0.671572872,6 -5.8083949e-09,6.67432225 -6.8402759e-09,7.50016487 L-9.33884126e-09,9.49983513 C-1.03740654e-08,10.3283533 0.665797225,11 1.49999999,11 L1.49999999,11 C2.32842712,11 3,10.3256778 3,9.49983513 L3,7.50016486 C3,6.67164669 2.33420277,6 1.5,6 L1.5,6 Z M6.5,8 C5.67157287,8 4.99999999,8.67432225 4.99999999,9.50016487 L4.99999999,11.4998351 C4.99999999,12.3283533 5.66579722,13 6.49999999,13 L6.49999999,13 C7.32842712,13 8,12.3256778 8,11.4998351 L8,9.50016486 C8,8.67164669 7.33420277,8 6.5,8 L6.5,8 Z M12.5,4 C11.6715729,4 11,4.67432225 11,5.50016487 L11,7.49983513 C11,8.32835331 11.6657972,9 12.5,9 L12.5,9 C13.3284271,9 14,8.32567775 14,7.49983513 L14,5.50016486 C14,4.67164669 13.3342028,4 12.5,4 L12.5,4 Z M1.5,0 C1.25,1.5308085e-16 1,0.5 1,0.5 L1,5 L2,5 L2,0.5 C2,0.5 1.75,0 1.5,0 Z M6.5,0 C6.25,2.1431319e-16 6,0.5 6,0.5 L6,7 L7,7 L7,0.5 C7,0.5 6.75,0 6.5,0 Z M12.5,0 C12.25,9.18485099e-17 12,0.5 12,0.5 L12,3 L13,3 L13,0.5 C13,0.5 12.75,0 12.5,0 Z M1.5,16 C1.75,16 2,15.5 2,15.5 L2,12 L1,12 L1,15.5 C1,15.5 1.25,16 1.5,16 Z M6.5,16 C6.75,16 7,15.5 7,15.5 L7,14 L6,14 L6,15.5 C6,15.5 6.25,16 6.5,16 Z M12.5,16 C12.75,16 13,15.5 13,15.5 L13,10 L12,10 L12,15.5 C12,15.5 12.25,16 12.5,16 Z"/>
</svg>
