<svg xmlns="http://www.w3.org/2000/svg" width="16" height="16" viewBox="0 0 16 16">
  <path fill="#4DC9FF" fill-rule="evenodd" d="M2,8 C2,12.41825 5.58175,16 10,16 C14.41825,16 18,12.41825 18,8 C18,3.58175 14.41825,0 10,0 C5.58175,0 2,3.58175 2,8 Z M12.4034231,8.69569231 C12.3789231,8.66876923 12.1557308,8.36453846 12.1317692,8.33815385 C12.1223462,8.33384615 11.8843462,8.04469231 11.8663077,8.02019231 C11.8380385,7.98142308 11.4745769,6.99334615 11.4414615,6.999 C11.4304231,6.98742308 10.5244615,6.86546154 10.4972692,6.9115 C10.4603846,6.97369231 10.434,7.07223077 10.4186538,7.07061538 C10.3771923,7.06576923 10.0449615,6.86196154 10.0374231,6.85523077 C10.0196538,6.85173077 9.83792308,6.8205 9.80292308,6.80569231 C9.8005,6.79653846 9.71461538,6.75507692 9.70896154,6.72842308 C9.72484615,6.71092308 9.78973077,6.52165385 9.78919231,6.46484615 C9.77196154,6.47507692 9.01730769,6.51142308 8.985,6.52461538 C8.95430769,6.53726923 8.80434615,6.63338462 8.77257692,6.64280769 C8.73757692,6.65303846 8.50738462,6.59488462 8.48315385,6.57092308 C8.47453846,6.57496154 8.15630769,6.95080769 8.14769231,6.97315385 C8.1275,7.02673077 8.18942308,7.05473077 8.14607692,7.11853846 C8.11888462,7.15865385 7.76026923,7.47096154 7.75434615,7.49976923 C7.75380769,7.51161538 7.57638462,7.82715385 7.58123077,7.86269231 C7.58526923,7.85811538 7.58473077,8.32953846 7.55026923,8.34165385 C7.59738462,8.36534615 7.956,8.92534615 7.95411538,8.938 C7.99234615,8.94957692 8.18134615,9.1025 8.23492308,9.12942308 C8.25161538,9.13830769 9.43273077,9.20507692 9.48280769,9.16038462 C9.51,9.16496154 9.6185,9.20184615 9.67934615,9.19996154 C9.68446154,9.218 10.0051154,10.3991154 10.0072692,10.4260385 C10.0021538,10.4556538 9.96634615,11.1516154 9.99542308,11.2095 C10.0156154,11.2488077 10.3728846,12.1173462 10.3545769,12.1965 C10.3456923,12.1986538 10.8795763,12.1263762 10.9142456,12.0736694 C10.9341687,12.0435156 11.4581538,11.7931923 11.4603077,11.7867308 C11.4648846,11.7746154 11.9753462,10.877 12.0270385,10.8417308 C12.0639231,10.8164231 11.9974231,9.90373077 12.0084615,9.89161538 C12.0146538,9.88488462 12.9461923,8.60415385 12.9507692,8.59338462 C12.9356923,8.58369231 12.4034231,8.69569231 12.4034231,8.69569231 Z M5.1035,12.998 C5.11723077,12.9842692 5.38969231,12.5031538 5.35926923,12.4896923 C5.39857692,12.4832308 5.84792308,12.2756538 5.88803846,12.2726923 C5.88669231,12.2234231 6.42434615,11.1618462 6.444,11.0493077 C6.45126923,11.0070385 6.40657692,10.8522308 6.38584615,10.8455 C6.3425,10.8323077 5.26584615,10.3167308 5.25992308,10.3011154 C5.18938462,10.2914231 4.26376923,9.62803846 4.24034615,9.61807692 C4.25623077,9.60811538 3.21888462,9.40753846 3.17607692,9.39865385 C3.06973077,9.04623077 3.03338462,8.68788462 3.01669231,8.32469231 C3.07403846,8.30180769 3.2555,8.07646154 3.27326923,8.07403846 C3.28619231,8.05303846 3.17796154,7.66992308 3.19115385,7.60180769 C3.19976923,7.57488462 3.89142308,6.64334615 3.98053846,6.64361538 C3.98780769,6.60888462 4.80088462,6.27423077 4.80653846,6.27207692 C4.77692308,6.24084615 4.89161538,5.76376923 4.93065385,5.73469231 C4.953,5.71019231 5.20042308,5.54434615 5.18911538,5.52953846 C5.19826923,5.51311538 5.06903846,5.34430769 5.08303846,5.319 C5.05342308,5.31146154 4.848,5.23823077 4.85392308,5.22476923 C4.85203846,5.2 4.5575,4.70730769 4.519,4.689 C4.4595,4.74553846 4.27615385,4.90734615 4.25380769,4.91811538 C4.20857692,4.82442308 4.10680769,4.84946154 4.11003846,4.82415385 C4.16926923,4.78134615 3.94876923,4.50996154 3.94203846,4.50457692 C3.97138462,4.45396154 4.15230769,4.40603846 4.16307692,4.41869231 C4.18838462,4.43403846 4.47430769,4.39634615 4.50876923,4.41034615 C4.49853846,4.38934615 4.27830769,4.01538462 4.26403846,4.01323077 C4.29176923,3.97634615 4.39353846,3.94161538 4.42988462,3.95830769 C4.44926923,3.96719231 4.60219231,4.09669231 4.61484615,4.09184615 C4.61430769,4.07461538 4.78715385,3.88319231 4.78769231,3.88157692 C4.76426923,3.86515385 4.52923077,3.71896154 4.50176923,3.70765385 C4.64473077,3.49603846 4.81973077,3.28980769 5.00926923,3.09703846 C5.04211538,3.10376923 5.34661538,3.15465385 5.33288462,3.1595 C5.31403846,3.19019231 5.31242308,3.32130769 5.29142308,3.32211538 C5.27715385,3.32346154 5.17484615,3.50115385 5.18157692,3.50169231 C5.19207692,3.52753846 5.366,3.47584615 5.37703846,3.47342308 C5.37838462,3.50115385 5.149,3.66753846 5.12773077,3.67238462 C5.14092308,3.68342308 5.43115385,3.84496154 5.42011538,3.835 C5.38484615,3.80673077 5.29869231,3.94834615 5.28765385,3.95076923 C5.32723077,3.99196154 5.56307692,4.22161538 5.55688462,4.23696154 C5.55607692,4.27115385 6.01726923,4.40442308 6.03315385,4.42407692 C6.04715385,4.42596154 6.29188462,4.31907692 6.29161538,4.30157692 C6.2655,4.30453846 6.23265385,4.05523077 6.21273077,4.03988462 C6.23588462,4.03692308 6.30561538,3.66915385 6.30507692,3.64034615 C6.34761538,3.61342308 6.62276923,3.44569231 6.62546154,3.43573077 C6.66234615,3.44623077 6.86480769,3.00307692 6.85753846,2.99446154 C6.87423077,2.99957692 6.98515385,3.01842308 6.99915385,3.0195 C7.01153846,3.02057692 7.33165385,2.79173077 7.34646154,2.78903846 C7.3435,2.73976923 7.42696154,2.60811538 7.43934615,2.59330769 C7.44042308,2.561 7.13996154,2.67084615 7.12488462,2.67757692 C7.11061538,2.68376923 7.31388462,2.32865385 7.31523077,2.31869231 C7.28211538,2.32326923 6.95379639,1.64825439 6.95379639,1.64825439 C7.841181,1.17817747 8.91365385,1 10,1 C11.2971538,1 13.0404053,1.46411133 14.3383846,2.51442308 C14.3206154,2.55696154 14.3227692,3.07119231 14.3036538,3.08384615 C14.1830385,2.99284615 11.8873077,3.03296154 11.8552692,3.0055 C11.8369615,2.99984615 11.0139231,2.74003846 11.0128462,2.715 C10.9751538,2.74057692 10.2931923,3.02192308 10.2627692,3.03188462 C10.2581923,3.08142308 9.71003846,3.63092308 9.69792308,3.6565 C9.68230769,3.70146154 9.055,5.20565385 9.02807692,5.22342308 C8.99738462,5.24361538 8.5755,5.37042308 8.55126923,5.37042308 C8.56742308,5.40434615 8.85846154,5.68488462 8.86411538,5.711 C8.85496154,5.69969231 8.72438462,5.87173077 8.68938462,5.86176923 C8.66865385,5.88734615 8.20826923,5.89084615 8.19803846,5.90996154 C8.22496154,5.93392308 8.21419231,6.45730769 8.21876923,6.47103846 C8.23411538,6.467 8.45811538,6.56796154 8.49257692,6.55853846 C8.50846154,6.52542308 8.82830769,6.42634615 8.85980769,6.42015385 C8.86519231,6.36146154 8.90046154,6.26830769 8.89426923,6.25403846 C8.90261538,6.21446154 9.13065385,5.93446154 9.19876923,5.88653846 C9.24184615,5.85611538 9.35492308,5.92153846 9.38857692,5.91561538 C9.45319231,5.90376923 9.64219231,5.77642308 9.68796154,5.79930769 C9.74746154,5.82919231 10.1852308,6.38946154 10.1852308,6.38946154 C10.1957308,6.37223077 10.3580769,6.21526923 10.3677692,6.22146154 C10.3271154,6.13369231 9.89392308,5.72634615 9.89392308,5.70669231 C9.90065385,5.68003846 10.0748462,5.77615385 10.1440385,5.79715385 C10.1351538,5.82946154 10.4541923,6.03057692 10.4657692,6.0365 C10.4536538,6.06692308 10.7519512,6.59330319 10.7624512,6.60595703 C10.7631399,6.62466775 11.7150269,6.75732422 11.7150269,6.75732422 L12.4636841,8.34918213 L13.0203857,8.36175537 L14.6708846,8.03446154 C14.6800385,8.08965385 14.9904615,8.86369231 15.0063462,8.88065385 C15.0305769,8.88011538 15.2739615,8.25657692 15.2933462,8.26788462 C15.3065385,8.25953846 15.6778077,7.95234615 15.7006923,7.93780769 C15.7292308,7.91976923 16.2553077,7.91276923 16.2674231,7.91923077 C16.2854615,7.92919231 16.5280385,8.22238462 16.5369231,8.13811538 C16.5651923,8.15480769 16.8613462,9.22607692 16.8723846,9.23523077 C16.2884231,12.5217308 13.4364615,15 10,15 C8.09303846,15 6.36619231,14.2351154 5.1035,12.998 Z M8.49446154,5.21776923 C8.4985,5.22180769 8.96238462,5.07642308 8.94569231,5.07561538 C8.9745,5.06511538 8.824,4.7415 8.81376923,4.72938462 C8.79519231,4.70676923 8.68776923,4.55492308 8.67861538,4.54980769 C8.73030769,4.5455 8.65788462,4.35730769 8.677,4.32069231 C8.68642308,4.31207692 8.52488462,4.30884615 8.51976923,4.31557692 C8.52488462,4.32365385 8.46080769,4.53661538 8.46646154,4.53957692 C8.47588462,4.53311538 8.48611538,5.21534615 8.49446154,5.21776923 Z" transform="translate(-2)"/>
</svg>
