<svg xmlns="http://www.w3.org/2000/svg" width="16" height="16" viewBox="0 0 16 16">
  <path fill="#91A6B6" fill-rule="evenodd" d="M5.00214079,8.00187509 C5.00214079,9.65870275 6.34524572,11.0020157 8.00237519,11.0020157 C9.65950465,11.0020157 11.0026096,9.65870275 11.0026096,8.00187509 C11.0026096,6.34504742 9.65925463,5.00173446 8.00237519,5.00173446 C6.34549574,5.00173446 5.00214079,6.34479741 5.00214079,8.00187509 Z M6.50225799,8.00187509 C6.50225799,7.17333625 7.17381045,6.50180477 8.00237519,6.50180477 C8.83093992,6.50180477 9.50249238,7.17333625 9.50249238,8.00187509 C9.50249238,8.83041393 8.83093992,9.5019454 8.00237519,9.5019454 C7.17381045,9.5019454 6.50225799,8.83041393 6.50225799,8.00187509 Z M13.3045394,4.98323359 C13.5848113,4.60646593 14.5496367,3.19739988 13.8543324,2.50161726 L13.4973045,2.1248496 C12.902508,1.53032173 11.3833893,2.45886526 11.0143605,2.69937653 C10.5780764,2.45211494 10.1092898,2.25585574 9.61425111,2.12184946 C9.53499492,1.65007735 9.18821783,0 8.20939136,0 L7.81761075,0 C6.9772951,0 6.49500742,1.70607997 6.387249,2.13360001 C5.89921088,2.2698564 5.43692476,2.46711565 5.00664114,2.7136272 C4.66736464,2.46136538 3.21225096,1.45556823 2.50194546,2.16560151 L2.12516603,2.48261637 C1.50611767,3.10139538 2.53469802,4.73372189 2.72271271,5.01948529 C2.48469412,5.44400519 2.29392921,5.89877651 2.16241894,6.37829898 C1.75213689,6.44380205 0,6.7818179 0,7.78986515 L0,8.1813835 C0,9.05467444 1.83739355,9.53969717 2.17266974,9.62120099 C2.30593015,10.0972233 2.49769513,10.5484945 2.73646379,10.9697642 C2.53869834,11.2795287 1.5501211,12.9046049 2.16341902,13.5183837 L2.52019689,13.8153976 C3.32750996,14.6226854 5.01389171,13.2966233 5.01389171,13.2966233 L4.93538558,13.2131194 C5.38267052,13.4776318 5.86695836,13.6871416 6.37874834,13.8306483 C6.46250488,14.1754145 6.94754278,16 7.81761075,16 L8.20939136,16 C9.35098055,16 9.63375264,13.8696501 9.63375264,13.8696501 L9.52924447,13.8664 C10.0465349,13.7341438 10.5370732,13.5351345 10.9921088,13.2801225 C11.3486366,13.5173836 12.8425033,14.4521774 13.4387999,13.8561495 L13.8355809,13.4591309 C14.6313931,12.6633436 13.3362919,11.0350173 13.3000391,10.9897651 C13.5460583,10.559245 13.7433237,10.0969733 13.8790843,9.6084504 C14.3241191,9.4954451 16,9.01492257 16,8.18163351 L16,7.79011516 C16,6.68431333 14.0068443,6.3850493 13.8823346,6.36729847 C13.747074,5.87802553 13.5508087,5.4145038 13.3045394,4.98323359 Z M3.5020236,8.00187509 C3.5020236,5.51650859 5.51693101,3.50166414 8.00237519,3.50166414 C10.4878194,3.50166414 12.5027268,5.51650859 12.5027268,8.00187509 C12.5027268,10.4872416 10.4878194,12.502086 8.00237519,12.502086 C5.51693101,12.502086 3.5020236,10.4872416 3.5020236,8.00187509 Z"/>
</svg>
