<svg xmlns="http://www.w3.org/2000/svg" xmlns:xlink="http://www.w3.org/1999/xlink" width="18" height="18" viewBox="0 0 18 18">
  <defs>
    <path id="a" d="M14.9080643,12.1966984 C13.6637566,11.5579683 14.1432643,12.0466032 12.6156335,11.3931429 C11.0882489,10.7406984 10.7264027,10.5273651 10.7264027,10.5273651 L10.7128643,9.03073016 C10.7128643,9.03073016 11.2849258,8.58273016 11.4633874,7.16736508 C11.8205566,7.27403175 11.9414181,6.73536508 11.9608643,6.3912381 C11.9820335,6.05879365 12.1720643,5.02260317 11.7351412,5.11504762 C11.8244951,4.4232381 11.8946489,3.79771429 11.8631412,3.46653968 C11.7538489,2.30438095 11.1200027,1.00019466 9.11231039,1 C7.10461806,0.999805345 6.25255659,2.30514286 6.13999939,3.46730159 C6.11151044,3.79847619 6.17575659,4.42349206 6.6700058,5.11657143 C5.82843352,5.02285714 6.01649505,6.06107937 6.04000092,6.39326984 C6.05686429,6.73739683 6.17501813,7.2775873 6.53292582,7.17092063 C6.7106489,8.58653968 7.28271044,9.03784127 7.28271044,9.03784127 L7.26843352,10.5426032 C7.26843352,10.5426032 6.90658736,10.7704127 5.37920275,11.4228571 C3.85181813,12.0765714 4.33083352,11.5582222 3.08652582,12.1966984 C1.12000275,13.2062222 1,16.2363179 1,16.2363179 C1,16.2363179 1.5,17 2,17 L16,17 C16.5,17 17,16.2399902 17,16.2399902 C17,16.2399902 16.8740951,13.2057143 14.9080643,12.1966984 Z"/>
    <path id="b" d="M6.00000019,13 L6.00000019,11 C6.00000019,9.8954305 5.11227051,9 4.00000012,9 L4.00000012,9 C2.89543057,9 2.00000004,9.88772964 2.00000004,11 L2.00000004,13 L1.50000002,13 C1.22385764,13 1,13.2150574 1,13.4904785 L1,16.5095215 C1,16.7804053 1.22788048,17 1.49100518,17 L6.50899482,17 C6.78016949,17 7,16.7849426 7,16.5095215 L7,13.4904785 C7,13.2195947 6.76806645,13 6.5000001,13 L6.00000019,13 Z M3,13 L3,10.9989566 C3,10.4472481 3.44386482,10 4,10 L4,10 C4.55228475,10 5,10.4426603 5,10.9989566 L5,13 L3,13 Z"/>
  </defs>
  <g fill="none" fill-rule="evenodd">
    <use fill="#91A6B6" xlink:href="#a"/>
    <path stroke="#FFFFFF" d="M11.2236508,10.2208811 L11.2147077,9.23225563 C11.3287946,9.0957164 11.4504335,8.9088306 11.5659781,8.66571334 C11.709719,8.36326828 11.8241484,8.00846536 11.9017654,7.59812472 C12.0672965,7.508641 12.2004109,7.35425595 12.2912328,7.16113841 C12.3916622,6.94759195 12.4451933,6.68267351 12.4600679,6.41944742 C12.4624643,6.38201454 12.4684294,6.32475653 12.486868,6.15373978 C12.4998717,6.02858403 12.5085645,5.92839841 12.5141247,5.82833191 C12.5290877,5.55904316 12.518488,5.34349963 12.4633312,5.15608579 C12.4246275,5.02457665 12.3609846,4.9085695 12.2764123,4.81754873 C12.3607731,4.12121063 12.3888632,3.71316994 12.3608936,3.41918391 C12.1978597,1.68556148 11.1338526,0.500195996 9.11235887,0.500000002 C7.07332689,0.499802309 5.80377213,1.75218344 5.64232809,3.41910121 C5.60584433,3.84297345 5.68935156,4.32501084 5.91582764,4.81352351 C5.65885448,5.01938467 5.52629334,5.36570889 5.50823128,5.78032275 C5.50151811,5.93442335 5.50859097,6.07946826 5.52622397,6.26727493 C5.53607627,6.36812715 5.53945374,6.40320498 5.54124799,6.42856169 C5.55349895,6.68096462 5.60553003,6.94703847 5.70496528,7.16147872 C5.79510714,7.355877 5.92824095,7.51137402 6.09429827,7.60139498 C6.17178987,8.01243501 6.28621725,8.36800723 6.43003008,8.67125964 C6.54546311,8.91466868 6.66693941,9.10183083 6.78078333,9.23858326 L6.77126318,10.2419895 C6.74234207,10.256527 6.71055513,10.2723435 6.67577085,10.2894656 C6.33270147,10.4583371 5.84326831,10.6809178 5.18278978,10.9630507 C4.59264561,11.2156298 4.38315917,11.2743566 4.05241079,11.3210224 C4.02787697,11.3244947 4.02787697,11.3244947 4.00193064,11.3283 C3.67432342,11.377033 3.40043665,11.4736444 2.85826286,11.7518434 C2.03250924,12.1757478 1.44073634,12.9130367 1.04157349,13.8610617 C0.824110052,14.3775447 0.677023745,14.9254144 0.585805941,15.4724434 C0.530947603,15.8014263 0.506571884,16.0604793 0.500391651,16.2165316 L0.494061507,16.3763691 L0.581683215,16.5101994 C0.660624818,16.6307719 0.788511096,16.7981967 0.955765425,16.9685023 C1.27583401,17.2944098 1.61234542,17.5 2,17.5 L16,17.5 C16.386987,17.5 16.7233969,17.2954601 17.0433893,16.9711971 C17.2107291,16.8016239 17.3386957,16.6348995 17.4177102,16.514796 L17.5062488,16.3802156 L17.4995701,16.219261 C17.4930941,16.0631897 17.4682632,15.8040582 17.412889,15.4749634 C17.3208136,14.92775 17.1730179,14.3797023 16.9551039,13.8630715 C16.5546737,12.9137311 15.9621944,12.1756989 15.136365,11.7518627 L15.1363991,11.7518802 C14.5972349,11.4751155 14.3277687,11.3755829 14.0087718,11.3175727 C13.9828743,11.3129163 13.9828743,11.3129163 13.9582126,11.3086116 C13.614671,11.2488375 13.4049765,11.1869685 12.8122782,10.9334355 C12.1500608,10.6505597 11.6590877,10.4299578 11.3143856,10.264716 C11.281578,10.2489888 11.2513685,10.2343861 11.2236508,10.2208811 Z"/>
    <g>
      <use fill="#91A6B6" xlink:href="#b"/>
      <path stroke="#FFFFFF" d="M6.50000019,12.5 L6.50000019,11 C6.50000019,9.61691902 5.38605175,8.5 4.00000012,8.5 C2.6169191,8.5 1.50000004,9.6139484 1.50000004,11 L1.50000004,12.5 C0.948935677,12.5 0.500000003,12.9375725 0.500000002,13.4904785 L0.5,16.5095215 C0.5,17.0551914 0.950328934,17.5 1.49100518,17.5 L6.50899482,17.5 C7.05705655,17.5 7.5,17.060359 7.5,16.5095215 L7.5,13.4904785 C7.5,12.9427087 7.04366226,12.5000001 6.50000019,12.5 L6.50000019,12.5 Z M3.5,12.5 L3.5,10.9989566 C3.5,10.7218774 3.72151843,10.5 4,10.5 C4.27820494,10.5 4.5,10.7208608 4.5,10.9989566 L4.5,12.5 L3.5,12.5 Z"/>
    </g>
  </g>
</svg>
