<?xml version="1.0" encoding="UTF-8"?>
<svg width="16px" height="16px" viewBox="0 0 16 16" version="1.1" xmlns="http://www.w3.org/2000/svg" xmlns:xlink="http://www.w3.org/1999/xlink">
    <!-- Generator: Sketch 47.1 (45422) - http://www.bohemiancoding.com/sketch -->
    <title>team</title>
    <desc>Created with Sketch.</desc>
    <defs></defs>
    <g id="Symbols" stroke="none" stroke-width="1" fill="none" fill-rule="evenodd">
        <g id="icon-/-misc-/-team" fill="#91A6B6">
            <path d="M11.5858017,7.87869495 C11.8475616,7.48347844 12,7.00954117 12,6.5 C12,5.98285368 11.8429772,5.502382 11.5740081,5.1036614 L13.8335044,2.84416508 C14.0342884,2.94391419 14.2605944,3 14.5,3 C15.3284271,3 16,2.32842712 16,1.5 C16,0.671572875 15.3284271,0 14.5,0 C13.6715729,0 13,0.671572875 13,1.5 C13,1.72370838 13.0489721,1.9359787 13.1367807,2.12667527 L10.8609213,4.40253467 C10.4693033,4.14791566 10.0019254,4 9.5,4 C8.99045883,4 8.51652156,4.15243838 8.12130505,4.41419827 L5.85381451,2.14670773 C5.94752392,1.95089009 6,1.73157327 6,1.5 C6,0.671572875 5.32842712,0 4.5,0 C3.67157288,0 3,0.671572875 3,1.5 C3,2.32842712 3.67157288,3 4.5,3 C4.73157327,3 4.95089009,2.94752392 5.14670773,2.85381451 L7.41419827,5.12130505 C7.15243838,5.51652156 7,5.99045883 7,6.5 C7,7.00192542 7.14791566,7.4693033 7.40253467,7.86092129 L2.12667527,13.1367807 C1.9359787,13.0489721 1.72370838,13 1.5,13 C0.671572875,13 0,13.6715729 0,14.5 C0,15.3284271 0.671572875,16 1.5,16 C2.32842712,16 3,15.3284271 3,14.5 C3,14.2605944 2.94391419,14.0342884 2.84416508,13.8335044 L8.1036614,8.57400813 C8.37036116,8.75391855 8.67363735,8.88374282 9,8.94999094 L9,13.0853529 C8.41740381,13.2912711 8,13.8468906 8,14.5 C8,15.3284271 8.67157288,16 9.5,16 C10.3284271,16 11,15.3284271 11,14.5 C11,13.8468906 10.5825962,13.2912711 10,13.0853529 L10,8.94999094 C10.3191873,8.88519933 10.6162922,8.75959638 10.8786949,8.58580173 L12.1461855,9.85329227 C12.0524761,10.0491099 12,10.2684267 12,10.5 C12,11.3284271 12.6715729,12 13.5,12 C14.3284271,12 15,11.3284271 15,10.5 C15,9.67157288 14.3284271,9 13.5,9 C13.2684267,9 13.0491099,9.05247608 12.8532923,9.14618549 L11.5858017,7.87869495 L11.5858017,7.87869495 Z" id="team"></path>
        </g>
    </g>
</svg>