<?xml version="1.0" encoding="UTF-8" standalone="no"?>
<svg width="16px" height="12px" viewBox="0 0 16 12" version="1.1" xmlns="http://www.w3.org/2000/svg" xmlns:xlink="http://www.w3.org/1999/xlink">
    <!-- Generator: Sketch 3.8.3 (29802) - http://www.bohemiancoding.com/sketch -->
    <title>icon-upload</title>
    <desc>Created with Sketch.</desc>
    <defs></defs>
    <g id="Symbols" stroke="none" stroke-width="1" fill="none" fill-rule="evenodd">
        <g id="icon-upload" fill="#91A6B6">
            <path d="M12.5,11 L4,11 C4,11 0.981,10.69 1,8 C1.0105,6.48 2.344,5.09 4,5 C4,2.93 5.325,1 7.5,1 C9.2165,1 10.3615,2.05 10.769,3.505 C13.2465,3.4 14.922,5.36 15,7 C15.0675,8.415 13.84,10.24 12.5,11 L12.5,11 L12.5,11 Z M11.5335,2.515 C10.7995,1.025 9.2715,0 7.5,0 C5.1255,0 3.185,1.84 3.0165,4.17 C1.271,4.67 0,6.195 0,8 C0,10.13 1.77,11.865 4,11.99 L12.5,12 C14.2185,11.255 16,9.175 16,7.25 C16,4.72 14.0245,2.66 11.5335,2.515 L11.5335,2.515 L11.5335,2.515 Z M5.19378538,5.74825 C5.07428538,5.88125 5.00128538,6.05725 5.00128538,6.25 C5.00128538,6.66425 5.33703538,7 5.75128538,7 L7.00128538,7 L7.00128538,8.99063111 C7.00128538,9.54809016 7.4451502,10 8.00128538,10 C8.55357013,10 9.00128538,9.55664682 9.00128538,8.9906311 L9.00128538,7 L10.2512854,7 C10.6655354,7 11.0012854,6.66425 11.0012854,6.25 C11.0012854,6.05725 10.9282854,5.88125 10.8087854,5.74825 L8.55878538,3.24825 C8.42178538,3.09575 8.22253538,3 8.00128538,3 C7.78003538,3 7.58103538,3.09575 7.44378538,3.24825 L5.19378538,5.74825 Z"></path>
        </g>
    </g>
</svg>
