<svg xmlns="http://www.w3.org/2000/svg" width="12" height="8" viewBox="0 0 12 8">
  <path fill="#91A6B6" fill-rule="evenodd" d="M5,5 C5,5.5 5.5,6 6,6 C6.5,6 7,5.5 7,5 C7,4.5 6.5,4 6,4 C5.5,4 5,4.5 5,5 Z M11.9968127,4.9472808 C11.9949379,4.92977781 11.9945629,4.92480783 11.993813,4.92005394 C11.9788141,4.80876955 11.9349423,4.70612861 11.8680098,4.62725715 C11.4851632,4.09222774 11.0297595,3.61597377 10.5668564,3.18120835 C9.56980537,2.24404254 8.42914002,1.46029793 7.17035845,1.144596 C6.44253747,0.962219257 5.71059179,0.95465624 4.97902109,1.10894178 C4.31363297,1.24918172 3.67243056,1.54111416 3.0722876,1.90284245 C2.13279483,2.46898827 1.27485851,3.2492755 0.527351486,4.12420849 C0.388986755,4.28605705 0.251371968,4.45136299 0.125568805,4.62725715 C-0.0418562685,4.86127849 -0.0418562685,5.13873316 0.125568805,5.37297059 C0.508415391,5.908 0.963631605,6.3838218 1.42672224,6.8188033 C2.42414821,7.75596911 3.56462606,8.53949764 4.82359512,8.85519956 C5.55122862,9.03757631 6.28373675,9.0455715 7.01493249,8.89106987 C7.68013312,8.75061385 8.32133553,8.45889749 8.92185346,8.09738529 C9.86134623,7.53102338 10.7190951,6.75095223 11.4667896,5.87601925 C11.6049668,5.7139546 11.7425816,5.54886475 11.8685723,5.37297059 C11.9355048,5.29366696 11.9793765,5.19145819 11.9940004,5.08168641 C11.9966253,5.06115822 11.9970002,5.05683649 11.9973752,5.05273086 C11.9986876,5.03825308 11.9990626,5.03263484 11.9994375,5.02658443 C11.9998125,5.01772489 12,5.00908145 12,5.00022191 C11.999625,4.99093021 11.9990626,4.98228676 11.9988751,4.97364331 C11.9975627,4.95311512 11.9971877,4.95008992 11.9968127,4.9472808 Z M3.5,5 C3.5,3.75 4.75080467,2.50190098 5.99988282,2.5 C7.24896097,2.49809902 8.5,3.74048818 8.5,4.99239047 C8.5,6.24429276 7.24890238,7.49809911 5.99988282,7.5 C4.75086326,7.50190089 3.5,6.25 3.5,5 Z" transform="translate(0 -1)"/>
</svg>
