<svg xmlns="http://www.w3.org/2000/svg" width="6" height="10" viewBox="0 0 6 10">
  <path fill="#DCE6ED" fill-rule="evenodd" d="M5.25,0 C5.66425,0 6,0.319761905 6,0.714285714 C6,0.906904762 5.91975,1.08142857 5.78975,1.21 L5.79,1.2102381 L1.809,5.00166667 L5.7385,8.74404762 C5.8985,8.875 6,9.06904762 6,9.28571429 C6,9.6802381 5.66425,10 5.25,10 C5.04875,10 4.866,9.92428571 4.73125,9.80119048 L4.72925,9.80309524 L0.22925,5.51738095 L0.2295,5.51714286 C0.088,5.38714286 0,5.205 0,5.00309524 L0,5.00142857 L0,4.9997619 C0,4.79761905 0.088,4.61595238 0.2295,4.48571429 L0.22925,4.48547619 L4.72925,0.199761905 L4.7295,0.2 C4.86425,0.0761904762 5.04775,0 5.25,0 L5.25,0 L5.25,0 Z"/>
</svg>
