<svg xmlns="http://www.w3.org/2000/svg" width="14" height="8" viewBox="0 0 14 8">
  <path fill="#91A6B6" fill-rule="evenodd" d="M14,1 C14,0.447666667 13.5523333,0 13,0 C12.7303333,0 12.486,0.107 12.306,0.280333333 L12.3056667,0.28 L6.99766667,5.588 L1.75833333,0.348666667 C1.575,0.135333333 1.30333333,0 1,0 C0.447666667,0 0,0.447666667 0,1 C0,1.26833333 0.106,1.512 0.278333333,1.69166667 L0.275666667,1.69433333 L6.27566667,7.69433333 L6.276,7.694 C6.458,7.88266667 6.713,8 6.99566667,8 L6.998,8 L7.00033333,8 C7.28333333,8 7.53766667,7.88266667 7.72,7.694 L7.72033333,7.69433333 L13.7203333,1.69433333 L13.72,1.694 C13.8933333,1.51433333 14,1.26966667 14,1 L14,1 Z"/>
</svg>
