<svg xmlns="http://www.w3.org/2000/svg" width="9" height="8" viewBox="0 0 9 8">
  <path fill="#DCE6ED" fill-rule="evenodd" d="M0,0.714285714 C0,0.319761905 0.33575,0 0.75,0 C0.95225,0 1.13575,0.0761904762 1.27075,0.199761905 L4.7705,3.48571429 C4.912,3.61595238 5,3.79761905 5,4.00309524 C5,4.205 4.912,4.38714286 4.77075,4.51738095 L1.26875,7.80119048 C1.134,7.92428571 0.95125,8 0.75,8 C0.33575,8 0,7.6802381 0,7.28571429 C0,7.06904762 0.1015,6.875 0.2615,6.74404762 L3.191,4.00166667 L0.21025,1.21 C0.08025,1.08142857 0,0.906904762 0,0.714285714 Z M5,1.71428571 C5,1.3197619 5.33575,1 5.75,1 C5.95225,1 6.13575,1.07619048 6.27075,1.1997619 L8.7705,3.48571429 C8.912,3.61595238 9,3.79761905 9,4.00309524 C9,4.205 8.912,4.38714286 8.77075,4.51738095 L6.26875,6.80119048 C6.134,6.92428571 5.95125,7 5.75,7 C5.33575,7 5,6.6802381 5,6.28571429 C5,6.06904762 5.1015,5.875 5.2615,5.74404762 L7.191,4.00166667 L5.21025,2.21 C5.08025,2.08142857 5,1.90690476 5,1.71428571 Z"/>
</svg>
