<?xml version="1.0" encoding="UTF-8"?>
<svg width="16px" height="16px" viewBox="0 0 16 16" version="1.1" xmlns="http://www.w3.org/2000/svg" xmlns:xlink="http://www.w3.org/1999/xlink">
    <!-- Generator: Sketch 47.1 (45422) - http://www.bohemiancoding.com/sketch -->
    <title>asset-blue</title>
    <desc>Created with Sketch.</desc>
    <defs></defs>
    <g id="Symbols" stroke="none" stroke-width="1" fill="none" fill-rule="evenodd">
        <g id="icon-/-misc-/-asset-blue" fill="#4DC9FF">
            <path d="M6.99539757,0 L15.0046024,0 C15.5443356,0 16,0.448105505 16,1.00087166 L16,16 L14,16 L14,13.9989566 C14,13.4426603 13.5527519,13 13.0010434,13 L11.9989566,13 C11.4426603,13 11,13.4472481 11,13.9989566 L11,16 L9,16 L9,4.99999968 L6,4.99999984 L6,4.00000016 L9.50952149,4.00000016 C9.78494263,4.00000016 10,3.77614248 10,3.50000004 C10,3.23193357 9.78040529,2.99999992 9.50952149,2.99999992 L6,2.99999992 L6,1.99999992 L10.5023012,1.99999992 C10.7851563,1.99999992 11,1.77614232 11,1.49999998 C11,1.23193361 10.7771727,1.00000004 10.5023012,1.00000004 L6,1 C6,0.453186035 6.44565467,0 6.99539757,0 Z M0.997030139,6 L8,6 L8,16 L5,16.0000003 L5,13.9989566 C5,13.4426602 4.55228475,12.9999998 4,12.9999998 C3.44386483,12.9999998 3,13.447248 3,13.9989566 L3,16.0000003 L0,16.0000003 L0,12 L1.49531555,12 C1.78596497,12 2,11.7761424 2,11.5 C2,11.2319336 1.77404508,11 1.49531555,11 L0,11 L0,10 L2.50461102,10 C2.7842474,10 3,9.77614237 3,9.5 C3,9.23193359 2.7782068,9 2.50461102,9 L3.22461347e-09,9 L0,8 L3.50952148,8 C3.78494263,8 4,7.77614237 4,7.5 C4,7.23193359 3.78040529,7 3.50952148,7 L0,7 L1.71673786e-12,6.99713135 C3.27239458e-10,6.45318604 0.446385599,6 0.997030139,6 Z" id="asset-blue"></path>
        </g>
    </g>
</svg>