<svg xmlns="http://www.w3.org/2000/svg" width="16" height="16" viewBox="0 0 16 16">
  <g fill="#91A6B6" fill-rule="evenodd">
    <path d="M.587096774 2.74157715C.587096774 3.02237134.801979776 3.1923008 1.07580625 3.11877441L8.03548387 1.25 14.9951615 3.11877441C15.2650683 3.1912483 15.483871 3.03226662 15.483871 2.74157715L15.483871 2.50842285C15.483871 2.22762866 15.268988 1.9423008 14.9951615 1.86877441L8.03548387 0 1.07580625 1.86877441C.805899462 1.9412483.587096774 2.21773338.587096774 2.50842285L.587096774 2.74157715zM1 14.9912152L1 10.5C1 10.5 1 10 1.2483871 10L.511594317 10C.222780265 10 .0428648428 9.78010192.0877828383 9.5088439L.090544153 9.49216843C.181657828 8.94193649.703663332 8.5 1.25731656 8.5L1.49677422 8.5C1.49677422 8.5 2.98319456 5.0078551 2.98709677 5 3.48387097 4 6 4 6 4L10 4C10 4 12.4967739 4 12.9935481 5 13.4903223 6 14.4838706 8.5 14.4838706 8.5L14.7233284 8.5C15.2774391 8.5 15.7993636 8.94420894 15.890101 9.49216843L15.8928623 9.5088439C15.9375432 9.77866983 15.7480335 10 15.4690508 10L14.7322581 10C14.9806452 10 14.9806452 10.5 14.9806452 10.5L14.9806452 14.9912152C14.9806452 15.5499119 14.528851 16 13.9715347 16L13.0091105 16C12.4398045 16 12 15.5522847 12 15L12 14 3.98064516 14 3.98064516 15C3.98064516 15.5561352 3.52885101 16 2.97153468 16L2.00911048 16C1.43980446 16 1 15.5483517 1 14.9912152zM2.49032258 8.5C2.49032258 8.5 5.26774194 9 8 9 10.7322581 9 13.4903226 8.5 13.4903226 8.5 13.4903226 8.5 12.4967742 6 12.2086452 5.5 11.9205162 5 10.1858065 5 8 5 5.81419355 5 4.06012896 5 3.77199996 5.5 3.48387097 6 2.49032258 8.5 2.49032258 8.5zM2.01590708 11.7534822C2.02755128 12.0327031 2.25135141 12.2590565 2.52918369 12.2590565L4.65215032 12.2590565C4.85400245 12.2590565 5.01763593 12.0851063 5.01763593 11.8840565 5.01763593 11.6769497 4.87228645 11.4222752 4.68993967 11.3172627 4.68993967 11.3172627 3.208994 10.3957875 2.53376493 10.5090565 1.85853586 10.6223254 2.01590708 11.7534822 2.01590708 11.7534822zM14.0017288 11.7534822C14.0017288 11.7534822 14.1591001 10.6223254 13.483871 10.5090565 12.8086419 10.3957875 11.3276963 11.3172627 11.3276963 11.3172627 11.1453495 11.4222752 11 11.6769497 11 11.8840565 11 12.0851063 11.1636335 12.2590565 11.3654856 12.2590565L13.4884522 12.2590565C13.7662845 12.2590565 13.9900846 12.0327031 14.0017288 11.7534822z"/>
  </g>
</svg>
