<?xml version="1.0" encoding="UTF-8"?>
<svg width="17px" height="15px" viewBox="0 0 17 15" version="1.1" xmlns="http://www.w3.org/2000/svg" xmlns:xlink="http://www.w3.org/1999/xlink">
    <!-- Generator: Sketch 46.2 (44496) - http://www.bohemiancoding.com/sketch -->
    <title>category-meeting</title>
    <desc>Created with Sketch.</desc>
    <defs></defs>
    <g id="Symbols" stroke="none" stroke-width="1" fill="none" fill-rule="evenodd">
        <g id="icon-/-category-/-meeting" fill="#91A6B6">
            <path d="M8.5,9 C7.67157288,9 7,8.32842712 7,7.5 C7,6.67157288 7.67157288,6 8.5,6 C9.32842712,6 10,6.67157288 10,7.5 C10,8.32842712 9.32842712,9 8.5,9 Z M8.5,8 C8.77614237,8 9,7.77614237 9,7.5 C9,7.22385763 8.77614237,7 8.5,7 C8.22385763,7 8,7.22385763 8,7.5 C8,7.77614237 8.22385763,8 8.5,8 Z M1.5,3 C0.671572875,3 0,2.32842712 0,1.5 C0,0.671572875 0.671572875,0 1.5,0 C2.32842712,0 3,0.671572875 3,1.5 C3,2.32842712 2.32842712,3 1.5,3 Z M1.5,2 C1.77614237,2 2,1.77614237 2,1.5 C2,1.22385763 1.77614237,1 1.5,1 C1.22385763,1 1,1.22385763 1,1.5 C1,1.77614237 1.22385763,2 1.5,2 Z M15.5,3 C14.6715729,3 14,2.32842712 14,1.5 C14,0.671572875 14.6715729,0 15.5,0 C16.3284271,0 17,0.671572875 17,1.5 C17,2.32842712 16.3284271,3 15.5,3 Z M15.5,2 C15.7761424,2 16,1.77614237 16,1.5 C16,1.22385763 15.7761424,1 15.5,1 C15.2238576,1 15,1.22385763 15,1.5 C15,1.77614237 15.2238576,2 15.5,2 Z M7,14.5 C7,14.7761424 6.77614237,15 6.5,15 C6.22385763,15 6,14.7761424 6,14.5 L6,12.5 C6,11.1192881 7.11928813,10 8.5,10 C9.88071187,10 11,11.1192881 11,12.5 L11,14.5 C11,14.7761424 10.7761424,15 10.5,15 C10.2238576,15 10,14.7761424 10,14.5 L10,12.5 C10,11.6715729 9.32842712,11 8.5,11 C7.67157288,11 7,11.6715729 7,12.5 L7,14.5 Z M4.5,12 C4.77614237,12 5,12.2238576 5,12.5 C5,12.7761424 4.77614237,13 4.5,13 L2.76450779,13 C2.21222304,13 1.76450779,12.5522847 1.76450779,12 C1.76450779,11.8620407 1.79305375,11.7255736 1.84835045,11.5991812 L4.91085045,3.59918117 C5.07009491,3.23519384 5.42970995,3 5.82700779,3 L11.1729922,3 C11.57029,3 11.9299051,3.23519384 12.0891495,3.59918117 L15.1516495,11.5991812 C15.3730157,12.1051609 15.1422908,12.6947912 14.636311,12.9161573 C14.5099186,12.971454 14.3734515,13 14.2354922,13 L12.5,13 C12.2238576,13 12,12.7761424 12,12.5 C12,12.2238576 12.2238576,12 12.5,12 L14.2354922,12 L11.1729922,4 L5.82700779,4 L2.76450779,12 L4.5,12 Z M1,10 C1.27614237,10 1.5,10.2238576 1.5,10.5 C1.5,10.7761424 1.27614237,11 1,11 L0.5,11 C0.223857625,11 0,10.7761424 0,10.5 L0,5 C0,4.44771525 0.44771525,4 1,4 L1.63962039,4 C2.0700508,4 2.45218964,4.27543009 2.58830369,4.68377223 L2.97434165,5.84188612 C3.06166554,6.10385778 2.92008554,6.38701776 2.65811388,6.47434165 C2.39614222,6.56166554 2.11298224,6.42008554 2.02565835,6.15811388 L1.63962039,5 L1,5 L1,10 Z M16.0001357,10 L16.0001357,5 L15.3605153,5 L14.9744773,6.15811388 C14.8871534,6.42008554 14.6039934,6.56166554 14.3420218,6.47434165 C14.0800501,6.38701776 13.9384701,6.10385778 14.025794,5.84188612 L14.411832,4.68377223 C14.547946,4.27543009 14.9300849,4 15.3605153,4 L16.0001357,4 C16.5524204,4 17.0001357,4.44771525 17.0001357,5 L17.0001357,10.5 C17.0001357,10.7761424 16.776278,11 16.5001357,11 L16.0001357,11 C15.7239933,11 15.5001357,10.7761424 15.5001357,10.5 C15.5001357,10.2238576 15.7239933,10 16.0001357,10 Z" id="category-meeting"></path>
        </g>
    </g>
</svg>