<svg xmlns="http://www.w3.org/2000/svg" width="16" height="12" viewBox="0 0 16 12">
  <path fill="#91A6B6" fill-rule="evenodd" d="M0.999157572,12.9912152 L0.999157572,8.5 C0.999157572,8.5 0.999157572,8 1.24756892,8 L0.5107042,8 C0.221861947,8 0.0419289574,7.78010192 0.0868513387,7.5088439 L0.0896129231,7.49216843 C0.180735495,6.94193649 0.702791969,6.5 1.25649926,6.5 L1.4959803,6.5 C1.4959803,6.5 2.98254578,3.0078551 2.98644837,3 C3.48327107,2 5.99964579,2 5.99964579,2 L10.0000364,2 C10.0000364,2 12.497054,2 12.9938767,3 C13.4906994,4 14.4843448,6.5 14.4843448,6.5 L14.7238259,6.5 C15.2779908,6.5 15.7999663,6.94420894 15.8907125,7.49216843 L15.8934741,7.5088439 C15.9381593,7.77866983 15.7486311,8 15.4696212,8 L14.7327565,8 C14.9811678,8 14.9811678,8.5 14.9811678,8.5 L14.9811678,12.9912152 C14.9811678,13.5499119 14.5293296,14 13.9719588,14 L13.0094407,14 C12.440079,14 12.0002316,13.5522847 12.0002316,13 L12.0002316,12 L3.98009377,12 L3.98009377,13 C3.98009377,13.5561352 3.52825551,14 2.97088476,14 L2.00836659,14 C1.43900497,14 0.999157572,13.5483517 0.999157572,12.9912152 Z M2.48962567,6.5 C2.48962567,6.5 5.26731622,7 7.99984107,7 C10.7323659,7 13.4906997,6.5 13.4906997,6.5 C13.4906997,6.5 12.4970543,4 12.2088972,3.5 C11.9207401,3 10.185861,3 7.99984107,3 C5.81382119,3 4.05958533,3 3.7714282,3.5 C3.48327107,4 2.48962567,6.5 2.48962567,6.5 Z M2.01516385,9.75348216 C2.02680918,10.0327031 2.25063117,10.2590565 2.52849058,10.2590565 L4.6516645,10.2590565 C4.85353634,10.2590565 5.01718579,10.0851063 5.01718579,9.88405648 C5.01718579,9.6769497 4.87182212,9.42227524 4.68945754,9.31726267 C4.68945754,9.31726267 3.20836727,8.39578754 2.53307227,8.50905648 C1.85777726,8.62232543 2.01516385,9.75348216 2.01516385,9.75348216 Z M14.0021559,9.75348216 C14.0021559,9.75348216 14.1595425,8.62232543 13.4842475,8.50905648 C12.8089525,8.39578754 11.3278623,9.31726267 11.3278623,9.31726267 C11.1454977,9.42227524 11.000134,9.6769497 11.000134,9.88405648 C11.000134,10.0851063 11.1637835,10.2590565 11.3656553,10.2590565 L13.4888292,10.2590565 C13.7666886,10.2590565 13.9905106,10.0327031 14.0021559,9.75348216 Z" transform="translate(0 -2)"/>
</svg>
