<svg xmlns="http://www.w3.org/2000/svg" width="16" height="16" viewBox="0 0 16 16">
  <path fill="#91A6B6" fill-rule="evenodd" d="M8,16 C3.581722,16 -5.68434189e-14,12.418278 -5.68434189e-14,8 C-5.68434189e-14,4.98234393 -4.47834993e-14,2.00106565 -4.47834993e-14,2.00106565 C-4.11713089e-14,0.899283866 0.892771196,1.14438823e-13 1.99406028,1.14843834e-13 L14.0059397,1.1926134e-13 C15.1054862,1.1966571e-13 16,0.898893903 16,2.00773573 C16,2.00773573 16,6.01452364 16,8 C16,12.418278 12.418278,16 8,16 Z M8,15 C11.8659932,15 15,11.8659932 15,8 C15,5.48789218 15,1.99306289 15,1.99306289 C15,1.4446094 14.5500512,1 13.9931545,1 L2.00684547,1 C1.45078007,1 1,1.45705278 1,2.00056301 C1,2.00056301 1,5.39681109 1,8 C1,11.8659932 4.13400675,15 8,15 Z M3,5 C3,4.44771525 3.44266033,4 3.99895656,4 L5.00104344,4 C5.55275191,4 6,4.44386482 6,5 C6,5.55228475 5.55733967,6 5.00104344,6 L3.99895656,6 C3.44724809,6 3,5.55613518 3,5 Z M10,5 C10,4.44771525 10.4426603,4 10.9989566,4 L12.0010434,4 C12.5527519,4 13,4.44386482 13,5 C13,5.55228475 12.5573397,6 12.0010434,6 L10.9989566,6 C10.4472481,6 10,5.55613518 10,5 Z M4.5,8 C4.76806641,8 5.05246663,8.20986652 5.1171875,8.46875 C5.1171875,8.46875 5.5,11 8,11 C10.5,11 10.878744,8.4820019 10.878744,8.4820019 C10.9530013,8.2157526 11.2238576,8 11.5,8 C11.7680664,8 11.957902,8.21246787 11.9059714,8.47456026 C11.9059714,8.47456026 11.5,12 8,12 C4.5,12 4.09794617,8.49047852 4.09794617,8.49047852 C4.03661537,8.21505737 4.22385763,8 4.5,8 Z"/>
</svg>
