<svg xmlns="http://www.w3.org/2000/svg" width="16" height="16" viewBox="0 0 16 16">
  <path fill="#91A6B6" fill-rule="evenodd" d="M12.5,14 C12.2238576,14 12,13.7761424 12,13.5 C12,13.2238576 12.2238576,13 12.5,13 C12.7761424,13 13,13.2238576 13,13.5 C13,13.7761424 12.7761424,14 12.5,14 Z M10.5,14 C10.2238576,14 10,13.7761424 10,13.5 C10,13.2238576 10.2238576,13 10.5,13 C10.7761424,13 11,13.2238576 11,13.5 C11,13.7761424 10.7761424,14 10.5,14 Z M8.5,14 C8.22385763,14 8,13.7761424 8,13.5 C8,13.2238576 8.22385763,13 8.5,13 C8.77614237,13 9,13.2238576 9,13.5 C9,13.7761424 8.77614237,14 8.5,14 Z M6.5,14 C6.22385763,14 6,13.7761424 6,13.5 C6,13.2238576 6.22385763,13 6.5,13 C6.77614237,13 7,13.2238576 7,13.5 C7,13.7761424 6.77614237,14 6.5,14 Z M4.5,14 C4.22385763,14 4,13.7761424 4,13.5 C4,13.2238576 4.22385763,13 4.5,13 C4.77614237,13 5,13.2238576 5,13.5 C5,13.7761424 4.77614237,14 4.5,14 Z M2.5,14 C2.22385763,14 2,13.7761424 2,13.5 C2,13.2238576 2.22385763,13 2.5,13 C2.77614237,13 3,13.2238576 3,13.5 C3,13.7761424 2.77614237,14 2.5,14 Z M0.5,14 C0.223857625,14 0,13.7761424 0,13.5 C0,13.2238576 0.223857625,13 0.5,13 C0.776142375,13 1,13.2238576 1,13.5 C1,13.7761424 0.776142375,14 0.5,14 Z M0,11 L12.5062169,11 C13.8834953,11 15,12.1096621 15,13.5 C15,14.8807119 13.8725621,16 12.5062169,16 L0,16 L0,15 L12.5017548,15 C13.3292128,15 14,14.3342028 14,13.5 C14,12.6715729 13.3247509,12 12.5017548,12 L0,12 L0,11 Z M1,5.99980749 C1,5.44762906 1.44371665,5 1.99980749,5 L5.00019251,5 C5.55237094,5 6,5.44371665 6,5.99980749 L6,9.00019251 C6,9.55237094 5.55628335,10 5.00019251,10 L1.99980749,10 C1.44762906,10 1,9.55628335 1,9.00019251 L1,5.99980749 Z M7,0.995397568 C7,0.445654671 7.4463114,0 7.99754465,0 L15.0024554,0 C15.553384,0 16,0.455664396 16,0.995397568 L16,9.00460243 C16,9.55434533 15.5536886,10 15.0024554,10 L7.99754465,10 C7.44661595,10 7,9.5443356 7,9.00460243 L7,0.995397568 Z M12,1 L12,2 L15,2 L15,1 L12,1 Z M13,3 L13,4 L15,4 L15,3 L13,3 Z M14,5 L14,6 L15,6 L15,5 L14,5 Z M3,6 L3,7 L5,7 L5,6 L3,6 Z M4,8 L4,9 L5,9 L5,8 L4,8 Z"/>
</svg>
