<svg xmlns="http://www.w3.org/2000/svg" width="10" height="10" viewBox="0 0 10 10">
  <path fill="#91A6B6" fill-rule="evenodd" d="M2.5,2 C2.77614237,2 3,1.78596497 3,1.49531555 L3,0.504684452 C3,0.225954929 2.76806641,5.14546639e-09 2.5,5.14546639e-09 L2.5,5.14546639e-09 C2.22385763,5.14546639e-09 2,0.214035039 2,0.504684452 L2,1.49531555 C2,1.77404508 2.23193359,2 2.5,2 L2.5,2 Z M7.5,2 C7.77614237,2 8,1.78596497 8,1.49531555 L8,0.504684449 C8,0.225954924 7.76806641,3.13320925e-10 7.5,3.13320925e-10 L7.5,3.13320925e-10 C7.22385763,3.13320925e-10 7,0.214035034 7,0.504684449 L7,1.49531555 C7,1.77404508 7.23193359,2 7.5,2 L7.5,2 Z M9,1.00000001 L9,1.50468445 C9,2.33052443 8.33420277,3 7.5,3 L7.5,3 C6.67157288,3 6,2.32289124 6,1.50468445 L6,1.00000001 L4,1.00000001 L4,1.50468445 C4,2.33052443 3.33420277,3 2.5,3 L2.5,3 C1.67157288,3 1,2.32289124 1,1.50468445 L1,1.00000001 L1,1.00000001 C0.447715253,1 5.48819485e-09,1.4463114 5.1055477e-09,1.99754465 L9.370392e-10,8.0026083 C1.71285034e-10,9.10573727 0.88743329,10 1.99961498,10 L8.00038502,10 C9.10474188,10 10,9.10414219 10,8.0026083 L10,1.99754465 C10,1.44661596 9.54681396,1.00000001 9,1.00000001 L9,1.00000001 Z M9.00000001,7.9906311 C9.00000001,8.54809015 8.5469637,9 8.00296987,9 L1.99703015,9 C1.44638561,9 1.00000001,8.55664682 1.00000001,7.9906311 L1.00000001,5 L9.00000001,5 L9.00000001,7.9906311 Z"/>
</svg>
