<svg xmlns="http://www.w3.org/2000/svg" width="4" height="4" viewBox="0 0 4 4">
  <path fill="#91A6B6" fill-rule="evenodd" d="M3.82141407,3.12820513 C4.0173712,3.32332708 4.0173712,3.6435272 3.82141407,3.83864916 C3.62645671,4.03377111 3.30952604,4.03377111 3.1140688,3.83864916 L1.99481363,2.71794872 L0.861061643,3.85365854 C0.664104727,4.04878049 0.344674602,4.04878049 0.147717687,3.85365854 C-0.0492392289,3.65353346 -0.0492392289,3.33333333 0.147717687,3.13821138 L1.28146968,2.00250156 L0.162214516,0.886804254 C-0.0332427282,0.691682302 -0.0332427282,0.371482177 0.162214516,0.176360225 C0.357671759,-0.0187617261 0.674602431,-0.0187617261 0.869559784,0.176360225 L1.98881495,1.29706066 L3.13856344,0.146341464 C3.33602025,-0.0487804879 3.65495048,-0.0487804879 3.8519074,0.146341464 C4.0493642,0.346466542 4.0493642,0.661663541 3.8519074,0.861788619 L2.7021589,2.01250781 L3.82141407,3.12820513 L3.82141407,3.12820513 L3.82141407,3.12820513 Z"/>
</svg>
