<?xml version="1.0" encoding="UTF-8"?>
<svg width="14px" height="14px" viewBox="0 0 14 14" version="1.1" xmlns="http://www.w3.org/2000/svg" xmlns:xlink="http://www.w3.org/1999/xlink">
    <!-- Generator: Sketch 46.2 (44496) - http://www.bohemiancoding.com/sketch -->
    <title>download-pdf</title>
    <desc>Created with Sketch.</desc>
    <defs></defs>
    <g id="Symbols" stroke="none" stroke-width="1" fill="none" fill-rule="evenodd">
        <g id="icon-/-misc-/-download-pdf" fill="#91A6B6">
            <path d="M11,1 L14,1 L14,1.8189894e-12 L10,1.8189894e-12 L10,5 L11,5 L11,3 L13,3 L13,2 L11,2 L11,1 Z M0,5 L0,0 L2.5,7.24309501e-13 C3.32842712,9.64025218e-13 4,0.671572875 4,1.5 C4,2.32842712 3.32842712,3 2.5,3 L1,3 L1,5 L0,5 Z M1,2 L2.50009625,1.99985562 C2.77619325,1.99982904 3,1.77600075 3,1.49990375 C3,1.22381453 2.77618547,1 2.50009625,1 L1,1 L1,2 Z M5,5 L5,1.06878395e-12 L7.5,9.47686374e-13 C8.32842712,9.47534194e-13 9,0.671572875 9,1.5 L9,3.5 C9,4.32842712 8.32842712,5 7.5,5 L5,5 Z M6,4 L7.5,4 C7.77614237,4 8,3.77614237 8,3.5 L8,1.5 C8,1.22385763 7.77614237,1 7.5,1 L6,1 L6,4 Z M1.00228703,11.9977182 L1.00228443,12 C1.00228443,12.5522848 1.44999968,13 2.00228443,13 L12,13 C12.5522847,13 13,12.5522848 13,12 L13,10.5014957 C13,10.2259364 13.2229485,10.002321 13.4985066,10.0014979 L13.5,10.0014935 L13.501489,10.0014912 C13.776809,10.0014912 14,10.2246822 14,10.5000022 L14,12 C14,13.1045695 13.1045695,14 12,14 L2.00149638,14 L1.99807949,13.9999971 C0.894573889,13.99811 0.00153564147,13.1020121 0.00342273712,11.9985065 L0.00599042588,10.4970146 L0.00599192327,10.496377 C0.00681568267,10.220587 0.231055456,9.99768279 0.506845474,9.99850655 C0.783044858,9.99933153 1.0063348,10.223801 1.00570456,10.5000009 L1.00228703,11.9977182 Z M6.5,10.2928932 L6.5,7 C6.5,6.72385763 6.72385763,6.5 7,6.5 C7.27614237,6.5 7.5,6.72385763 7.5,7 L7.5,10.2928932 L8.64644661,9.14644661 C8.84170876,8.95118446 9.15829124,8.95118446 9.35355339,9.14644661 C9.54881554,9.34170876 9.54881554,9.65829124 9.35355339,9.85355339 L7.35355339,11.8535534 C7.15829124,12.0488155 6.84170876,12.0488155 6.64644661,11.8535534 L4.64644661,9.85355339 C4.45118446,9.65829124 4.45118446,9.34170876 4.64644661,9.14644661 C4.84170876,8.95118446 5.15829124,8.95118446 5.35355339,9.14644661 L6.5,10.2928932 Z" id="download-pdf"></path>
        </g>
    </g>
</svg>