<?xml version="1.0" encoding="UTF-8"?>
<svg width="8px" height="8px" viewBox="0 0 8 8" version="1.1" xmlns="http://www.w3.org/2000/svg" xmlns:xlink="http://www.w3.org/1999/xlink">
    <!-- Generator: Sketch 49 (51002) - http://www.bohemiancoding.com/sketch -->
    <title>duplicate-small-green</title>
    <desc>Created with Sketch.</desc>
    <defs></defs>
    <g id="Symbols" stroke="none" stroke-width="1" fill="none" fill-rule="evenodd">
        <g id="icon-/-misc-/-duplicate-small-green" fill="#329798">
            <path d="M2,2 L2,0.990777969 C2,0.443586406 2.45097518,0 2.99077797,0 L7.00922203,0 C7.55641359,0 8,0.45097518 8,0.990777969 L8,5.00922203 C8,5.55641359 7.54902482,6 7.00922203,6 L6,6 L6,7 C6,7.55228475 5.54902482,8 5.00922203,8 L0.990777969,8 C0.443586406,8 0,7.54902482 0,7.00922203 L0,2.99077797 C0,2.44358641 0.443864822,2 1,2 L2,2 Z M2,3 L1.5,3 C1.22385763,3 1,3.21505737 1,3.49047852 L1,6.50952148 C1,6.78040529 1.21505737,7 1.49047852,7 L4.50952148,7 C4.78040529,7 5,6.76806641 5,6.5 L5,6 L2.99077797,6 C2.44358641,6 2,5.54902482 2,5.00922203 L2,3 Z M3,1.49047852 L3,4.50952148 C3,4.78494263 3.21959471,5 3.49047852,5 L6.50952148,5 C6.78494263,5 7,4.78040529 7,4.50952148 L7,1.49047852 C7,1.21505737 6.78040529,1 6.50952148,1 L3.49047852,1 C3.21505737,1 3,1.21959471 3,1.49047852 Z" id="duplicate-small-green"></path>
        </g>
    </g>
</svg>