<?xml version="1.0" encoding="UTF-8"?>
<svg width="16px" height="16px" viewBox="0 0 16 16" version="1.1" xmlns="http://www.w3.org/2000/svg" xmlns:xlink="http://www.w3.org/1999/xlink">
    <!-- Generator: Sketch 49 (51002) - http://www.bohemiancoding.com/sketch -->
    <title>duplicate-green</title>
    <desc>Created with Sketch.</desc>
    <defs></defs>
    <g id="Symbols" stroke="none" stroke-width="1" fill="none" fill-rule="evenodd">
        <g id="icon-/-misc-/-duplicate-green" fill="#329798">
            <path d="M4,4 L4,2.0085302 C4,0.899249601 4.90195036,0 6.0085302,0 L13.9914698,0 C15.1007504,0 16,0.901950359 16,2.0085302 L16,9.9914698 C16,11.1007504 15.0980496,12 13.9914698,12 L12,12 L12,14 C12,15.1045695 11.0980496,16 9.9914698,16 L2.0085302,16 C0.899249601,16 0,15.0980496 0,13.9914698 L0,6.0085302 C0,4.8992496 0.887729645,4 2,4 L4,4 Z M4,6 L3,6 C2.44771525,6 2,6.45303631 2,6.99703014 L2,13.0029699 C2,13.5536144 2.45303631,14 2.99703014,14 L9.00296986,14 C9.5536144,14 10,13.5561352 10,13 L10,12 L6.0085302,12 C4.8992496,12 4,11.0980496 4,9.9914698 L4,6 Z M6,2.99703014 L6,9.00296986 C6,9.54696369 6.4463856,10 6.99703014,10 L13.0029699,10 C13.5469637,10 14,9.5536144 14,9.00296986 L14,2.99703014 C14,2.45303631 13.5536144,2 13.0029699,2 L6.99703014,2 C6.45303631,2 6,2.4463856 6,2.99703014 Z" id="duplicate-green"></path>
        </g>
    </g>
</svg>