<svg xmlns="http://www.w3.org/2000/svg" width="16" height="16" viewBox="0 0 16 16">
  <path fill="#91A6B6" fill-rule="evenodd" d="M5.5,8 C5.5,6.62178517 6.62178517,5.5 8,5.5 C9.37821483,5.5 10.5,6.62178517 10.5,8 C10.5,9.37897126 9.37821483,10.5 8,10.5 C6.62178517,10.5 5.5,9.37897126 5.5,8 Z M0,8 C0,12.412 3.58866667,16 8,16 C9.63133333,16 11.1946667,15.5186667 12.522,14.608 C12.8253333,14.4 12.9490841,14.1265661 12.7404175,13.8218994 C12.5324175,13.5185661 12.1710091,13.5403521 11.8676758,13.7483521 C10.7650091,14.5050187 9.36133333,15 8,15 C4.324,15 1,11.6773333 1,8 C1,4.324 4.324,1 8,1 C11.676,1 15,4.186 15,7.862 L15,8.5 C15,9.36266667 14,10.5 13.1013333,10.5 C11.5366669,10.5 11.5366667,9.50066667 11.5366667,8.638 L11.5366667,8 C11.5366667,6.05066667 9.95,4.46333333 8,4.46333333 C6.05,4.46333333 4.46333333,6.05066667 4.46333333,8 C4.46333333,9.95 6.05,11.5366667 8,11.5366667 C9.086,11.5366667 10.0586667,11.0433333 10.708,10.27 C11.2306667,11.034 12.108,11.5366667 13.1013333,11.5366667 C14.6993333,11.5366667 16,10.098 16,8.5 L16,7.862 C16,3.45066667 12.4113333,0 8,0 C3.58866667,0 0,3.58866667 0,8 Z"/>
</svg>
