<svg xmlns="http://www.w3.org/2000/svg" width="10" height="10" viewBox="0 0 10 10">
  <path fill="#FF6B6B" fill-rule="evenodd" d="M1.99961499,-1.77635684e-15 L8.00038502,-1.77635684e-15 C9.11256671,-1.77635684e-15 10,0.895258101 10,1.99961493 L10,8.00038482 C10,9.11256649 9.10474188,9.99999978 8.00038502,9.99999981 L1.99961498,9.99999998 C0.88743329,10 -2.98101421e-10,9.10474191 6.40085058e-10,8.00038504 L5.73793115e-09,1.99961499 C6.68276507e-09,0.887433294 0.89525813,-1.77635684e-15 1.99961499,-1.77635684e-15 Z M1,1.99703014 L1,8.00296986 C1,8.54696369 1.4463856,9 1.99703014,9 L8.00296986,9 C8.54696369,9 9,8.5536144 9,8.00296986 L9,1.99703014 C9,1.45303631 8.5536144,1 8.00296986,1 L1.99703014,1 C1.45303631,1 1,1.4463856 1,1.99703014 Z"/>
</svg>
