<svg xmlns="http://www.w3.org/2000/svg" width="10" height="10" viewBox="0 0 10 10">
  <path fill="#91A6B6" fill-rule="evenodd" d="M10.4524096,4.07871952 L9.52946224,5.00039001 C8.95410225,5.57573205 8.09979875,5.69117486 7.40524813,5.36044679 L9.52946224,3.23567495 C9.7734598,2.991685 9.7734598,2.59668336 9.52946224,2.35331742 L8.64770121,1.46971186 C8.40370365,1.22572191 8.00931372,1.22572191 7.76531615,1.46971186 L5.64047801,3.59510772 C5.30973962,2.89995476 5.42518604,2.04567791 6.00054603,1.46971186 L6.92162124,0.548041372 C7.65298991,-0.182680457 8.83865583,-0.182680457 9.56877642,0.548041372 L10.4524096,1.4303989 C11.1825301,2.16174475 11.1825301,3.34737368 10.4524096,4.07871952 Z M4.23577591,6.76448105 C3.99177834,6.5204911 3.99177834,6.12611348 4.23577591,5.88212352 L6.88293109,3.23505094 C7.12692866,2.99106098 7.52131859,2.99106098 7.76531615,3.23505094 C8.00931372,3.47904089 8.00931372,3.87341851 7.76531615,4.11740846 L5.11816097,6.76448105 C4.87478744,7.00847101 4.47914944,7.00847101 4.23577591,6.76448105 Z M2.47038175,7.6474626 L3.35276681,8.52982013 C3.59676438,8.77381008 3.99115431,8.77381008 4.23515187,8.52982013 L6.36061405,6.40442427 C6.69135244,7.09957723 6.57590602,7.95385407 6.00054603,8.52982013 L5.15685112,9.45149062 C4.42548246,10.1828365 3.24044057,10.1828365 2.5090719,9.45149062 L1.54805847,8.49113118 C0.817313843,7.75978534 0.817313843,6.57478042 1.54805847,5.84343458 L2.46975772,4.99976599 C3.04636578,4.42442396 3.90004524,4.30898114 4.59584393,4.63970921 L2.47038175,6.76448105 C2.22700822,7.00847101 2.22700822,7.40409666 2.47038175,7.6474626 Z" transform="translate(-1)"/>
</svg>
