<svg xmlns="http://www.w3.org/2000/svg" width="12" height="10" viewBox="0 0 12 10">
  <path fill="#4DC9FF" fill-rule="evenodd" d="M0,1 C0,0.44771525 0.455760956,0 1.00247329,0 L10.9975267,0 C11.5511774,0 12,0.443864822 12,1 C12,1.55228475 11.544239,2 10.9975267,2 L1.00247329,2 C0.448822582,2 0,1.55613518 0,1 Z M0,5 C0,4.44771525 0.455760956,4 1.00247329,4 L10.9975267,4 C11.5511774,4 12,4.44386482 12,5 C12,5.55228475 11.544239,6 10.9975267,6 L1.00247329,6 C0.448822582,6 0,5.55613518 0,5 Z M0,9 C0,8.44771525 0.455760956,8 1.00247329,8 L10.9975267,8 C11.5511774,8 12,8.44386482 12,9 C12,9.55228475 11.544239,10 10.9975267,10 L1.00247329,10 C0.448822582,10 0,9.55613518 0,9 Z"/>
</svg>
