<svg xmlns="http://www.w3.org/2000/svg" width="6" height="8" viewBox="0 0 6 8">
  <path fill="#329798" fill-rule="evenodd" d="M6,5.00936889 C6,4.45190984 5.55664682,3.99999999 4.9906311,4 L2,4 L2,1.9989566 C2,1.44724813 2.44386482,1.00000001 3,0.999999957 L3,0.999999957 C3.55228475,0.999999902 4,1.45318593 4,1.99713129 L4,1.99999995 L5,2.00000005 L5,1.99426274 C5,0.892861785 4.11227036,-8.15500184e-08 3,-5.24054575e-08 L3,-5.24054575e-08 C1.8954305,-2.34626803e-08 1,0.887729645 1,2 L1,4 L1,4 C0.447715251,4 1.92329348e-09,4.44335317 1.52807519e-09,5.00936889 L1.4466653e-10,6.9906311 C-2.44577092e-10,7.54809015 0.450975179,8 0.990777969,8 L5.00922203,8 C5.55641359,8 6,7.55664682 6,6.9906311 L6,5.00936889 Z"/>
</svg>
