<svg xmlns="http://www.w3.org/2000/svg" xmlns:xlink="http://www.w3.org/1999/xlink" width="22" height="18" viewBox="0 0 22 18">
  <defs>
    <path id="a" d="M19.4310482,13.3975238 C18.4978174,12.9184762 18.8574482,13.2849524 17.7117251,12.7948571 C16.5661867,12.3055238 16.2948021,12.1455238 16.2948021,12.1455238 L16.2846482,11.0230476 C16.2846482,11.0230476 16.7136944,10.6870476 16.8475405,9.62552381 C17.1154174,9.70552381 17.2060636,9.30152381 17.2206482,9.04342857 C17.2365251,8.79409524 17.3790482,8.01695238 17.0513559,8.08628571 C17.1183713,7.56742857 17.1709867,7.09828571 17.1473559,6.84990476 C17.0653867,5.97828571 16.590002,5.00014599 15.0842328,5 C13.5784635,4.99985401 12.9394174,5.97885714 12.8549995,6.85047619 C12.8336328,7.09885714 12.8818174,7.56761905 13.2525043,8.08742857 C12.6213251,8.01714286 12.7623713,8.79580952 12.7800007,9.04495238 C12.7926482,9.30304762 12.8812636,9.70819048 13.1496944,9.62819048 C13.2829867,10.6899048 13.7120328,11.028381 13.7120328,11.028381 L13.7013251,12.1569524 C13.7013251,12.1569524 13.4299405,12.3278095 12.2844021,12.8171429 C11.1388636,13.3074286 11.4981251,12.9186667 10.5648944,13.3975238 C9.09000206,14.1546667 9,16.4272384 9,16.4272384 C9,16.4272384 9.375,17 9.75,17 L20.25,17 C20.625,17 21,16.4299927 21,16.4299927 C21,16.4299927 20.9055713,14.1542857 19.4310482,13.3975238 Z"/>
    <path id="b" d="M14.9080643,12.1966984 C13.6637566,11.5579683 14.1432643,12.0466032 12.6156335,11.3931429 C11.0882489,10.7406984 10.7264027,10.5273651 10.7264027,10.5273651 L10.7128643,9.03073016 C10.7128643,9.03073016 11.2849258,8.58273016 11.4633874,7.16736508 C11.8205566,7.27403175 11.9414181,6.73536508 11.9608643,6.3912381 C11.9820335,6.05879365 12.1720643,5.02260317 11.7351412,5.11504762 C11.8244951,4.4232381 11.8946489,3.79771429 11.8631412,3.46653968 C11.7538489,2.30438095 11.1200027,1.00019466 9.11231039,1 C7.10461806,0.999805345 6.25255659,2.30514286 6.13999939,3.46730159 C6.11151044,3.79847619 6.17575659,4.42349206 6.6700058,5.11657143 C5.82843352,5.02285714 6.01649505,6.06107937 6.04000092,6.39326984 C6.05686429,6.73739683 6.17501813,7.2775873 6.53292582,7.17092063 C6.7106489,8.58653968 7.28271044,9.03784127 7.28271044,9.03784127 L7.26843352,10.5426032 C7.26843352,10.5426032 6.90658736,10.7704127 5.37920275,11.4228571 C3.85181813,12.0765714 4.33083352,11.5582222 3.08652582,12.1966984 C1.12000275,13.2062222 1,16.2363179 1,16.2363179 C1,16.2363179 1.5,17 2,17 L16,17 C16.5,17 17,16.2399902 17,16.2399902 C17,16.2399902 16.8740951,13.2057143 14.9080643,12.1966984 Z"/>
    <path id="c" d="M6.00000019,13 L6.00000019,11 C6.00000019,9.8954305 5.11227051,9 4.00000012,9 L4.00000012,9 C2.89543057,9 2.00000004,9.88772964 2.00000004,11 L2.00000004,13 L1.50000002,13 C1.22385764,13 1,13.2150574 1,13.4904785 L1,16.5095215 C1,16.7804053 1.22788048,17 1.49100518,17 L6.50899482,17 C6.78016949,17 7,16.7849426 7,16.5095215 L7,13.4904785 C7,13.2195947 6.76806645,13 6.5000001,13 L6.00000019,13 Z M3,13 L3,10.9989566 C3,10.4472481 3.44386482,10 4,10 L4,10 C4.55228475,10 5,10.4426603 5,10.9989566 L5,13 L3,13 Z"/>
  </defs>
  <g fill="none" fill-rule="evenodd">
    <use fill="#91A6B6" xlink:href="#a"/>
    <path stroke="#FFFFFF" d="M16.7920462,11.83861 L16.7864303,11.2177896 C16.8699749,11.1113587 16.95606,10.9740503 17.0373818,10.8029413 C17.1431495,10.5803956 17.2282845,10.3226922 17.2881204,10.0280351 C17.4118957,9.94572431 17.5118907,9.82214812 17.5815398,9.67405111 C17.6647323,9.49715595 17.70787,9.28367367 17.7198518,9.0716379 C17.7214092,9.04738122 17.7255786,9.00736025 17.7394817,8.87822286 C17.7494236,8.7825366 17.7560999,8.7055905 17.760401,8.62818386 C17.7723565,8.413021 17.7638214,8.23946114 17.717413,8.08177292 C17.6891082,7.98559743 17.6452295,7.89795883 17.5879497,7.82382344 C17.6473768,7.32449869 17.6664588,7.0269626 17.6451083,6.80254899 C17.5172504,5.44297051 16.6709598,4.50015384 15.0842813,4.5 C13.4882812,4.49984526 12.4844114,5.49013537 12.3573282,6.80227581 C12.3302078,7.11732027 12.3850663,7.46954277 12.5355082,7.82679177 C12.3613134,8.00725164 12.2696195,8.27386651 12.2562919,8.57980178 C12.2509541,8.70233055 12.2565,8.81606067 12.2702153,8.96214094 C12.2776813,9.03865102 12.2800327,9.06307268 12.2812478,9.08024423 C12.2909946,9.28154686 12.3329345,9.49601696 12.4153223,9.673693 C12.4845226,9.822929 12.5846082,9.9475056 12.70887,10.0303773 C12.7686215,10.3255817 12.8537584,10.5838657 12.9595794,10.8070063 C13.0408243,10.9783241 13.1267954,11.1158178 13.2101696,11.222391 L13.2041587,11.8559331 C12.9886623,11.9616722 12.6295868,12.1259851 12.0879891,12.3573364 C11.6553971,12.5424839 11.5089446,12.5835399 11.2718446,12.6169927 C11.253176,12.6196348 11.253176,12.6196348 11.233056,12.6225854 C10.9725158,12.661342 10.7545479,12.7382285 10.3366314,12.9526688 C9.6878886,13.2857039 9.22582378,13.8613897 8.91597546,14.5972898 C8.748737,14.9944867 8.63596282,15.41455 8.56605691,15.8337725 C8.52398571,16.0860716 8.50522212,16.2854816 8.50039165,16.4074521 L8.49406151,16.5672896 L8.58168322,16.7011199 C8.64499982,16.7978274 8.74554235,16.9294546 8.87764043,17.0639625 C9.13911526,17.3302074 9.41703292,17.5 9.75,17.5 L20.25,17.5 C20.5822995,17.5 20.8601157,17.3310856 21.1215143,17.0661983 C21.2536978,16.9322506 21.3543207,16.8011516 21.4177102,16.7047985 L21.5062488,16.570218 L21.4995701,16.4092634 C21.4945091,16.2872953 21.4753971,16.0878441 21.4329339,15.8354813 C21.362377,15.4161546 21.2490694,14.9959934 21.0815016,14.5987236 C20.7706976,13.8618691 20.3081232,13.2856552 19.6593489,12.9526881 L19.659383,12.9527056 C19.2448607,12.7399223 19.0315589,12.6611351 18.7789435,12.6151965 C18.7588777,12.6115887 18.7588777,12.6115887 18.7400867,12.6083089 C18.4919077,12.5651273 18.3439462,12.5214722 17.9083699,12.3351498 C17.3705634,12.105418 17.0110509,11.9432053 16.7920462,11.83861 Z"/>
    <use fill="#91A6B6" xlink:href="#b"/>
    <path stroke="#FFFFFF" d="M11.2236508,10.2208811 L11.2147077,9.23225563 C11.3287946,9.0957164 11.4504335,8.9088306 11.5659781,8.66571334 C11.709719,8.36326828 11.8241484,8.00846536 11.9017654,7.59812472 C12.0672965,7.508641 12.2004109,7.35425595 12.2912328,7.16113841 C12.3916622,6.94759195 12.4451933,6.68267351 12.4600679,6.41944742 C12.4624643,6.38201454 12.4684294,6.32475653 12.486868,6.15373978 C12.4998717,6.02858403 12.5085645,5.92839841 12.5141247,5.82833191 C12.5290877,5.55904316 12.518488,5.34349963 12.4633312,5.15608579 C12.4246275,5.02457665 12.3609846,4.9085695 12.2764123,4.81754873 C12.3607731,4.12121063 12.3888632,3.71316994 12.3608936,3.41918391 C12.1978597,1.68556148 11.1338526,0.500195996 9.11235887,0.500000002 C7.07332689,0.499802309 5.80377213,1.75218344 5.64232809,3.41910121 C5.60584433,3.84297345 5.68935156,4.32501084 5.91582764,4.81352351 C5.65885448,5.01938467 5.52629334,5.36570889 5.50823128,5.78032275 C5.50151811,5.93442335 5.50859097,6.07946826 5.52622397,6.26727493 C5.53607627,6.36812715 5.53945374,6.40320498 5.54124799,6.42856169 C5.55349895,6.68096462 5.60553003,6.94703847 5.70496528,7.16147872 C5.79510714,7.355877 5.92824095,7.51137402 6.09429827,7.60139498 C6.17178987,8.01243501 6.28621725,8.36800723 6.43003008,8.67125964 C6.54546311,8.91466868 6.66693941,9.10183083 6.78078333,9.23858326 L6.77126318,10.2419895 C6.74234207,10.256527 6.71055513,10.2723435 6.67577085,10.2894656 C6.33270147,10.4583371 5.84326831,10.6809178 5.18278978,10.9630507 C4.59264561,11.2156298 4.38315917,11.2743566 4.05241079,11.3210224 C4.02787697,11.3244947 4.02787697,11.3244947 4.00193064,11.3283 C3.67432342,11.377033 3.40043665,11.4736444 2.85826286,11.7518434 C2.03250924,12.1757478 1.44073634,12.9130367 1.04157349,13.8610617 C0.824110052,14.3775447 0.677023745,14.9254144 0.585805941,15.4724434 C0.530947603,15.8014263 0.506571884,16.0604793 0.500391651,16.2165316 L0.494061507,16.3763691 L0.581683215,16.5101994 C0.660624818,16.6307719 0.788511096,16.7981967 0.955765425,16.9685023 C1.27583401,17.2944098 1.61234542,17.5 2,17.5 L16,17.5 C16.386987,17.5 16.7233969,17.2954601 17.0433893,16.9711971 C17.2107291,16.8016239 17.3386957,16.6348995 17.4177102,16.514796 L17.5062488,16.3802156 L17.4995701,16.219261 C17.4930941,16.0631897 17.4682632,15.8040582 17.412889,15.4749634 C17.3208136,14.92775 17.1730179,14.3797023 16.9551039,13.8630715 C16.5546737,12.9137311 15.9621944,12.1756989 15.136365,11.7518627 L15.1363991,11.7518802 C14.5972349,11.4751155 14.3277687,11.3755829 14.0087718,11.3175727 C13.9828743,11.3129163 13.9828743,11.3129163 13.9582126,11.3086116 C13.614671,11.2488375 13.4049765,11.1869685 12.8122782,10.9334355 C12.1500608,10.6505597 11.6590877,10.4299578 11.3143856,10.264716 C11.281578,10.2489888 11.2513685,10.2343861 11.2236508,10.2208811 Z"/>
    <g>
      <use fill="#91A6B6" xlink:href="#c"/>
      <path stroke="#FFFFFF" d="M6.50000019,12.5 L6.50000019,11 C6.50000019,9.61691902 5.38605175,8.5 4.00000012,8.5 C2.6169191,8.5 1.50000004,9.6139484 1.50000004,11 L1.50000004,12.5 C0.948935677,12.5 0.500000003,12.9375725 0.500000002,13.4904785 L0.5,16.5095215 C0.5,17.0551914 0.950328934,17.5 1.49100518,17.5 L6.50899482,17.5 C7.05705655,17.5 7.5,17.060359 7.5,16.5095215 L7.5,13.4904785 C7.5,12.9427087 7.04366226,12.5000001 6.50000019,12.5 Z M3.5,12.5 L3.5,10.9989566 C3.5,10.7218774 3.72151843,10.5 4,10.5 C4.27820494,10.5 4.5,10.7208608 4.5,10.9989566 L4.5,12.5 L3.5,12.5 Z"/>
    </g>
  </g>
</svg>
