<svg xmlns="http://www.w3.org/2000/svg" width="16" height="16" viewBox="0 0 16 16">
  <path fill="#91A6B6" fill-rule="evenodd" d="M1.3407893,11.1534639 L2.39214733,12.204822 L0.295997856,14.3009711 C-0.0947281982,14.6916971 -0.100367049,15.3195503 0.289431034,15.7093484 C0.676530333,16.0964477 1.30108494,16.0995051 1.6978084,15.7027817 L3.79395781,13.6066325 L4.84531579,14.6579905 C5.19576872,15.0084434 5.51880764,14.3973952 5.54622125,13.9570853 L5.54622124,11.4474411 C5.54622124,10.8979827 5.10237052,10.4525586 4.55133869,10.4525586 L2.04169462,10.4525586 C1.6013847,10.4799722 0.990336631,10.8030112 1.3407893,11.1534639 Z M10.4525585,2.04169434 C10.4799721,1.60138441 10.8030111,0.990336328 11.1534638,1.34078901 L12.2048218,2.39214706 L14.3009711,0.2959978 C14.6916971,-0.0947282148 15.3195503,-0.100367026 15.7093484,0.289431068 C16.0964477,0.676530376 16.0995051,1.30108496 15.7027816,1.69780838 L13.6066323,3.79395758 L14.6579903,4.84531559 C15.0084432,5.19576852 14.397395,5.51880745 13.9570851,5.54622106 L11.4474411,5.54622112 C10.8979826,5.54622113 10.4525585,5.1023704 10.4525585,4.55133854 L10.4525585,2.04169434 L10.4525585,2.04169434 Z M9.40120028,9.40120031 C10.1753989,8.62700165 10.1753989,7.37177761 9.40120028,6.59757895 C8.62700163,5.82338028 7.37177762,5.82338028 6.59757898,6.59757895 C5.82338034,7.37177761 5.82338034,8.62700165 6.59757898,9.40120031 C7.37177762,10.175399 8.62700163,10.175399 9.40120028,9.40120031 L9.40120028,9.40120031 Z"/>
</svg>
