<svg xmlns="http://www.w3.org/2000/svg" width="10" height="10" viewBox="0 0 10 10">
  <path fill="#91A6B6" fill-rule="evenodd" d="M9.73174252,9.75797373 C9.43931455,10.0506567 8.96393165,10.0506567 8.67075387,9.75797373 L4.99191741,6.07692307 L1.2913363,9.7804878 C0.995909075,10.0731707 0.516777098,10.0731707 0.221349869,9.7804878 C-0.0740773597,9.48030019 -0.0740773597,9 0.221349869,8.70731707 L3.92193097,5.00375234 L0.243094513,1.33020638 C-0.0500832701,1.03752345 -0.0500832701,0.557223265 0.243094513,0.264540338 C0.536272295,-0.0281425892 1.0116552,-0.0281425892 1.30408316,0.264540338 L4.98291962,3.945591 L8.70749482,0.219512195 C9.00367186,-0.0731707318 9.48205402,-0.0731707318 9.77748125,0.219512195 C10.0736583,0.519699813 10.0736583,0.992495311 9.77748125,1.29268293 L6.05290606,5.01876172 L9.73174252,8.69230769 C10.0256701,8.98499062 10.0256701,9.46529081 9.73174252,9.75797373 Z"/>
</svg>
