<svg xmlns="http://www.w3.org/2000/svg" width="9" height="9" viewBox="0 0 9 9">
  <path fill="#91A6B6" fill-rule="evenodd" d="M5,4 L6.00952148,4 C6.28040529,4 6.5,4.23193359 6.5,4.5 C6.5,4.77614237 6.28494263,5 6.00952148,5 L5,5 L5,6.00952148 C5,6.28040529 4.76806641,6.5 4.5,6.5 C4.22385763,6.5 4,6.28494263 4,6.00952148 L4,5 L2.99047852,5 C2.71959471,5 2.5,4.76806641 2.5,4.5 C2.5,4.22385763 2.71505737,4 2.99047852,4 L4,4 L4,2.99047852 C4,2.71959471 4.23193359,2.5 4.5,2.5 C4.77614237,2.5 5,2.71505737 5,2.99047852 L5,4 Z M4.5,9 C2.01471863,9 0,6.98528137 0,4.5 C0,2.01471863 2.01471863,0 4.5,0 C6.98528137,0 9,2.01471863 9,4.5 C9,6.98528137 6.98528137,9 4.5,9 Z M4.5,8 C6.43299662,8 8,6.43299662 8,4.5 C8,2.56700338 6.43299662,1 4.5,1 C2.56700338,1 1,2.56700338 1,4.5 C1,6.43299662 2.56700338,8 4.5,8 Z"/>
</svg>
