<svg xmlns="http://www.w3.org/2000/svg" width="14" height="16" viewBox="0 0 14 16">
  <path fill="#91A6B6" fill-rule="evenodd" d="M1.00684547,16 C0.450780073,16 0,15.5553691 0,14.9991283 L0,1.00087166 C0,0.448105505 0.444836974,0 0.995577499,0 L11,0 L14,3 L14,15.0014977 C14,15.5529553 13.5500512,16 12.9931545,16 L1.00684547,16 Z M1.50034732,15 L12.4996527,15 C12.7709994,15 13,14.7755913 13,14.4987692 L13,4 L10,4 L10,1 L1.50966585,1 C1.22247314,1 1,1.22308192 1,1.49826741 L1,14.5017326 C1,14.7800934 1.22401312,15 1.50034732,15 Z M3,6 L11,6 L11,7 L3,7 L3,6 Z M3,9 L11,9 L11,10 L3,10 L3,9 Z M3,12 L11,12 L11,13 L3,13 L3,12 Z"/>
</svg>
