<svg xmlns="http://www.w3.org/2000/svg" width="16" height="16" viewBox="0 0 16 16">
  <path fill="#91A6B6" fill-rule="evenodd" d="M3.5,4 C3.77614238,4 4,3.78494263 4,3.50952148 L4,0.49047852 C4,0.219594716 3.76806641,5.14549425e-09 3.5,5.14549425e-09 L3.5,5.14549425e-09 C3.22385763,5.14549425e-09 3,0.215057378 3,0.49047852 L3,3.50952148 C3,3.78040529 3.23193359,4 3.5,4 L3.5,4 Z M6.28150001,7.75 L6.28075001,7.75 L6.28250001,7.75 L6.28150001,7.75 L6.28150001,7.75 Z M12.5,4 C12.2319336,4 12,3.78040529 12,3.50952148 L12,0.490478516 C12,0.215057373 12.2238576,3.13207238e-10 12.5,3.13207238e-10 C12.7680664,3.13207238e-10 13,0.219594712 13,0.490478516 L13,3.50952148 C13,3.78494263 12.7761424,4 12.5,4 Z M8.5,10 L11,10 L11,11 L8.5,11 L8.5,13.5 L7.5,13.5 L7.5,11 L5,11 L5,10 L7.5,10 L7.5,7.5 L8.5,7.5 L8.5,10 Z M14,2.00000001 L14,3.5 C14,4.32842713 13.3342028,5 12.5,5 L12.5,5 C11.6715729,5 11,4.33420277 11,3.5 L11,2.00000001 L5,2.00000001 L5,3.50000001 C5,4.32842713 4.33420277,5 3.5,5 L3.5,5 C2.67157288,5 2,4.33420277 2,3.5 L2,2.00000001 L1,2 C0.447715255,2 5.82290928e-09,2.44994876 5.57439637e-09,3.00684547 L2.25554371e-10,14.9931545 C-2.25875678e-11,15.5492199 0.444630861,16 1.00087166,16 L14.9991283,16 C15.5518945,16 16,15.5500512 16,14.9931545 L16,3.00684548 C16,2.45078008 15.5561352,2.00000001 15,2.00000001 L14,2.00000001 Z M15,15 L1.00000001,15 L1.00000001,6 L15,6 L15,15 Z"/>
</svg>
