<svg xmlns="http://www.w3.org/2000/svg" width="14" height="14" viewBox="0 0 14 14">
  <path fill="#FFFFFF" fill-rule="evenodd" d="M0.878267839,8.16603989 C-0.291334772,9.44063604 -0.291948325,11.5064961 0.871598502,12.7744928 L0.871598502,12.7744928 C2.03751774,14.0450749 3.92730665,14.045663 5.0961238,12.7719228 L11.4228934,5.87720829 C12.2024498,5.02767224 12.2097146,3.65821917 11.4270161,2.80525892 L11.4270161,2.80525892 C10.6497366,1.95820417 9.39514515,1.9520714 8.61250901,2.80496366 L2.98268206,8.94017208 C2.63083477,9.32360414 2.45491131,9.89875228 2.63083482,10.0904683 C2.80675834,10.2821843 3.3345291,10.0904681 3.68637625,9.70703621 L9.31766021,3.57023997 C9.70534571,3.1477525 10.3319722,3.14564279 10.7233215,3.57212297 L10.7233215,3.57212297 C11.1119613,3.99565039 11.1062996,4.68849394 10.7215811,5.10774803 L4.39607368,12.0010871 C3.61547902,12.8517547 2.35799154,12.8605889 1.57529301,12.0076286 L1.57529301,12.0076286 C0.798013518,11.1605739 0.799160277,9.78597711 1.57941571,8.93567928 L7.90618531,2.04096472 C9.07340697,0.768963259 10.9671638,0.770398033 12.1307106,2.03839477 L12.1307106,2.03839477 C13.2966298,3.30897689 13.2926397,5.37334577 12.1266303,6.64402618 L6.50115427,12.7744928 C6.1493073,13.1579249 5.97338354,13.7330728 6.14930716,13.9247888 C6.32523078,14.1165049 6.8530018,13.924789 7.20484875,13.5413569 L12.837342,7.40324308 C14.390279,5.71090129 14.3858009,2.96219294 12.8344051,1.27153063 L12.8344051,1.27153063 C11.2798461,-0.422578862 8.76083697,-0.424136079 7.20752119,1.26861862 L0.878267839,8.16603989 L0.878267839,8.16603989 Z"/>
</svg>
