<svg xmlns="http://www.w3.org/2000/svg" width="16" height="16" viewBox="0 0 16 16">
  <path fill="#91A6B6" fill-rule="evenodd" d="M10,2.07088886 L10,1 L11,1 L11,0 L7,0 L7,1 L8,1 L8,2.07088886 C5.27623565,2.46049282 3.05828882,4.41810292 2.28987868,7 L3.34141142,7 C4.16508423,4.66961525 6.38756235,3 9,3 C12.3137085,3 15,5.6862915 15,9 C15,11.6320531 13.305218,13.8682687 10.9473956,14.6769052 C10.9815025,14.7780756 11,14.8867082 11,15 L11,15.7101213 C13.8914889,14.8495721 16,12.1710206 16,9 C16,7.32167741 15.4093522,5.78130802 14.4245823,4.57541768 L15.6516266,3.34837341 C15.8440279,3.15597209 15.84375,2.84375 15.6502485,2.65024853 L15.3497515,2.34975147 C15.1565891,2.15658907 14.8430634,2.15693665 14.6516266,2.34837341 L13.4245823,3.57541768 C12.4626412,2.78986484 11.2878616,2.25510302 10,2.07088886 Z M11.7978013,5.64153904 C11.9094725,5.56336919 12.078125,5.578125 12.1805115,5.68051147 L12.3194886,5.81948853 C12.4191824,5.91918226 12.4392511,6.08678437 12.3584611,6.20219863 L9.14153903,10.7978015 C9.06336917,10.9094727 8.91406248,10.9140626 8.82948111,10.8294812 L7.17051887,9.17051888 C7.0763439,9.0763439 7.08678436,8.93925094 7.20219862,8.85846096 L11.7978013,5.64153904 L11.7978013,5.64153904 Z M0,9.5 C0,9.22385763 0.215057373,9 0.490478516,9 L3.50952148,9 C3.78040529,9 4,9.23193359 4,9.5 C4,9.77614237 3.78494263,10 3.50952148,10 L0.490478516,10 C0.219594711,10 0,9.76806641 0,9.5 L0,9.5 Z M0,11.5 C0,11.2238576 0.21484375,11 0.497698784,11 L4.50230122,11 C4.77717266,11 5,11.2319336 5,11.5 C5,11.7761424 4.78515625,12 4.50230122,12 L0.497698784,12 C0.222827336,12 0,11.7680664 0,11.5 L0,11.5 Z M0,15.5 C0,15.2238576 0.222473145,15 0.509665847,15 L8.49033415,15 C8.77181483,15 9,15.2319336 9,15.5 C9,15.7761424 8.77752686,16 8.49033415,16 L0.509665847,16 C0.228185172,16 0,15.7680664 0,15.5 L0,15.5 Z M0,13.5 C0,13.2238576 0.232902527,13 0.503422737,13 L6.49657726,13 C6.77460996,13 7,13.2319336 7,13.5 C7,13.7761424 6.76709747,14 6.49657726,14 L0.503422737,14 C0.225390037,14 0,13.7680664 0,13.5 L0,13.5 Z"/>
</svg>
