<svg xmlns="http://www.w3.org/2000/svg" width="13" height="16" viewBox="0 0 13 16">
  <path fill="#91A6B6" fill-rule="evenodd" d="M6.5,0 C10.089625,0 13,2.8656 13,6.4 C13,9.9344 6.5,16 6.5,16 C6.5,16 0,9.9344 0,6.4 C0,2.8656 2.910375,0 6.5,0 Z M4,10 L4,11 L5,11 L5,10 L4,10 Z M6,10 L6,11 L7,11 L7,10 L6,10 Z M8,10 L8,11 L9,11 L9,10 L8,10 Z M4.5,6 C5.32842712,6 6,5.32842712 6,4.5 C6,3.67157288 5.32842712,3 4.5,3 C3.67157288,3 3,3.67157288 3,4.5 C3,5.32842712 3.67157288,6 4.5,6 Z M4.5,5 C4.22385763,5 4,4.77614237 4,4.5 C4,4.22385763 4.22385763,4 4.5,4 C4.77614237,4 5,4.22385763 5,4.5 C5,4.77614237 4.77614237,5 4.5,5 Z M8.5,9 C9.32842712,9 10,8.32842712 10,7.5 C10,6.67157288 9.32842712,6 8.5,6 C7.67157288,6 7,6.67157288 7,7.5 C7,8.32842712 7.67157288,9 8.5,9 Z M8.5,8 C8.22385763,8 8,7.77614237 8,7.5 C8,7.22385763 8.22385763,7 8.5,7 C8.77614237,7 9,7.22385763 9,7.5 C9,7.77614237 8.77614237,8 8.5,8 Z M8.10748291,3.18255615 L4.109375,8.18481445 L4.89532471,8.8081665 L8.89575195,3.81225586 L8.10748291,3.18255615 Z"/>
</svg>
