<svg xmlns="http://www.w3.org/2000/svg" width="12" height="12" viewBox="0 0 12 12">
  <path fill="#91A6B6" fill-rule="evenodd" d="M11.6705625,10.079625 L8.373375,6.7824375 C8.769,6.112875 9,5.3341875 9,4.5 C9,2.0146875 6.9853125,0 4.5,0 C2.0146875,0 0,2.0146875 0,4.5 C0,6.9853125 2.0146875,9 4.5,9 C5.3341875,9 6.112875,8.769 6.7824375,8.373375 L10.0794375,11.670375 C10.2830625,11.8741875 10.5643125,12 10.875,12 C11.496375,12 12,11.496375 12,10.875 C12,10.5643125 11.874,10.2830625 11.6705625,10.079625 L11.6705625,10.079625 Z M1,4.5 C1,2.56702778 2.56702778,1 4.5,1 C6.43297222,1 8,2.56702778 8,4.5 C8,6.43297222 6.43297222,8 4.5,8 C2.56702778,8 1,6.43297222 1,4.5 Z"/>
</svg>
