<svg xmlns="http://www.w3.org/2000/svg" width="14" height="16" viewBox="0 0 14 16">
  <path fill="#152435" fill-rule="evenodd" d="M1.50000001,6 C0.671572881,6 3.53029669e-09,6.67432225 2.4984157e-09,7.50016487 L-1.49658064e-13,9.49983513 C-1.03537376e-09,10.3283533 0.665797234,11 1.5,11 L1.5,11 C2.32842713,11 3.00000001,10.3256778 3.00000001,9.49983513 L3.00000001,7.50016486 C3.00000001,6.67164669 2.33420278,6 1.50000001,6 L1.50000001,6 Z M6.50000001,8 C5.67157288,8 5,8.67432225 5,9.50016487 L5,11.4998351 C5,12.3283533 5.66579723,13 6.5,13 L6.5,13 C7.32842713,13 8.00000001,12.3256778 8.00000001,11.4998351 L8.00000001,9.50016486 C8.00000001,8.67164669 7.33420278,8 6.50000001,8 L6.50000001,8 Z M12.5,4 C11.6715729,4 11,4.67432225 11,5.50016487 L11,7.49983513 C11,8.32835331 11.6657972,9 12.5,9 L12.5,9 C13.3284271,9 14,8.32567775 14,7.49983513 L14,5.50016486 C14,4.67164669 13.3342028,4 12.5,4 L12.5,4 Z M1.50000001,0 C1.25000001,1.5308085e-16 1.00000001,0.5 1.00000001,0.5 L1.00000001,5 L2.00000001,5 L2.00000001,0.5 C2.00000001,0.5 1.75000001,0 1.50000001,0 Z M6.50000001,0 C6.25000001,2.1431319e-16 6.00000001,0.5 6.00000001,0.5 L6.00000001,7 L7.00000001,7 L7.00000001,0.5 C7.00000001,0.5 6.75000001,0 6.50000001,0 Z M12.5,0 C12.25,9.18485099e-17 12,0.5 12,0.5 L12,3 L13,3 L13,0.5 C13,0.5 12.75,0 12.5,0 Z M1.50000001,16 C1.75000001,16 2.00000001,15.5 2.00000001,15.5 L2.00000001,12 L1.00000001,12 L1.00000001,15.5 C1.00000001,15.5 1.25000001,16 1.50000001,16 Z M6.50000001,16 C6.75000001,16 7.00000001,15.5 7.00000001,15.5 L7.00000001,14 L6.00000001,14 L6.00000001,15.5 C6.00000001,15.5 6.25000001,16 6.50000001,16 Z M12.5,16 C12.75,16 13,15.5 13,15.5 L13,10 L12,10 L12,15.5 C12,15.5 12.25,16 12.5,16 Z"/>
</svg>
