<svg xmlns="http://www.w3.org/2000/svg" width="10" height="10" viewBox="0 0 10 10">
  <path fill="#91A6B6" d="M8,9 C7.4485,9 7,8.5515 7,8 C7,7.4485 7.4485,7 8,7 C8.5515,7 9,7.4485 9,8 C9,8.5515 8.5515,9 8,9 M6.0705,7.5 L3.9295,7.5 C3.8095,7 3.533,6.6405 3.1545,6.3715 L4.5465,3.9605 C4.8185,4.0145 5.0805,4.013 5.352,3.956 L6.7755,6.4295 C6.434,6.696 6.1825,7 6.0705,7.5 M2,9 C1.4485,9 1,8.5515 1,8 C1,7.4485 1.4485,7 2,7 C2.5515,7 3,7.4485 3,8 C3,8.5515 2.5515,9 2,9 M4.9375,1 C5.489,1 5.9375,1.4485 5.9375,2 C5.9375,2.5515 5.489,3 4.9375,3 C4.386,3 3.9375,2.5515 3.9375,2 C3.9375,1.4485 4.386,1 4.9375,1 M7.6995,6.0305 L6.245,3.5025 C6.666,3.136 6.9375,2.602 6.9375,2 C6.9375,0.8955 6.042,0 4.9375,0 C3.833,0 2.9375,0.8955 2.9375,2 C2.9375,2.6105 3.217,3.15 3.648,3.517 L2.2025,6.0205 C0.9595,5.894 0,6.8655 0,8 C0,9.1045 0.8955,10 2,10 C2.931,10 3.706,9.5 3.9295,8.5 L6.0705,8.5 C6.2935,9.5 7.069,10 8,10 C9.1045,10 10,9.1045 10,8 C10,6.819 8.964,5.838 7.6995,6.0305"/>
</svg>
