<svg xmlns="http://www.w3.org/2000/svg" width="14" height="14" viewBox="0 0 14 14">
  <path fill="#91A6B6" fill-rule="evenodd" d="M13.75175,6.4425 C13.90425,6.57975 14,6.77875 14,7 C14,7.22125 13.90425,7.4205 13.75175,7.5575 L11.25175,9.8075 C11.11875,9.927 10.94275,10 10.75,10 C10.33575,10 10,9.66425 10,9.25 L10,8 L7.0093689,8 C6.44335318,8 6,7.55228475 6,7 C5.99999999,6.44386482 6.45190984,6 7.00936889,6 L10,6 L10,4.75 C10,4.33575 10.33575,4 10.75,4 C10.94275,4 11.11875,4.073 11.25175,4.1925 L13.75175,6.4425 Z M0.999999993,13 L7.49657726,13 C7.76709747,13 7.99999999,13.2238576 7.99999999,13.5 C7.99999999,13.7680664 7.77594724,14 7.49956416,14 L0.997030132,14 C0.453036302,14 -6.54063115e-09,13.5492199 -6.54063115e-09,12.9931545 L-6.54063115e-09,1.00684547 C-6.54063115e-09,0.449948758 0.446385592,0 0.997030132,0 L7.49956416,0 C7.76920318,0 7.99999999,0.223857625 7.99999999,0.5 C7.99999999,0.768066406 7.77460996,1 7.49657726,1 L0.999999993,1 L0.999999993,13 Z"/>
</svg>
