<svg xmlns="http://www.w3.org/2000/svg" width="14" height="13" viewBox="0 0 14 13">
  <path fill="#91A6B6" d="M2,0 L12,0 C13.1045695,0 14,0.8954305 14,2 L14,7 C14,8.1045695 13.1045695,9 12,9 L7,9 L3.85355339,12.1464466 C3.65829124,12.3417088 3.34170876,12.3417088 3.14644661,12.1464466 C3.05267842,12.0526784 3,11.9255015 3,11.7928932 L3,9 L2,9 C0.8954305,9 0,8.1045695 0,7 L0,2 C0,0.8954305 0.8954305,0 2,0 Z M4.5,3 C4.22385763,3 4,3.22385763 4,3.5 C4,3.77614237 4.22385763,4 4.5,4 L9.5,4 C9.77614237,4 10,3.77614237 10,3.5 C10,3.22385763 9.77614237,3 9.5,3 L4.5,3 Z M4.5,5 C4.22385763,5 4,5.22385763 4,5.5 C4,5.77614237 4.22385763,6 4.5,6 L7.5,6 C7.77614237,6 8,5.77614237 8,5.5 C8,5.22385763 7.77614237,5 7.5,5 L4.5,5 Z"/>
</svg>
