<svg xmlns="http://www.w3.org/2000/svg" width="12" height="10" viewBox="0 0 12 10">
  <path fill="#4DC9FF" fill-rule="evenodd" d="M6,10 C4.8954305,10 4,9.1045695 4,8 C4,6.8954305 4.8954305,6 6,6 C7.1045695,6 8,6.8954305 8,8 C8,9.1045695 7.1045695,10 6,10 Z M0.272521588,2.41465721 C1.72546277,0.924975123 3.75471163,0 6,0 C8.24528837,0 10.2745372,0.924975123 11.7274784,2.41465721 L11.0203082,3.12182738 C9.74838728,1.81308076 7.96914623,1 6,1 C4.03085377,1 2.25161272,1.81308076 0.979691754,3.12182738 L0.272521588,2.41465721 L0.272521588,2.41465721 Z M2.39410817,4.53624379 C3.30392134,3.58933354 4.58313756,3 6,3 C7.41686244,3 8.69607866,3.58933354 9.60589183,4.53624379 L8.89860753,5.2435281 C8.16991587,4.47750156 7.14072117,4 6,4 C4.85927883,4 3.83008413,4.47750156 3.10139247,5.2435281 L2.39410817,4.53624379 L2.39410817,4.53624379 Z"/>
</svg>
