<svg xmlns="http://www.w3.org/2000/svg" width="10" height="9" viewBox="0 0 10 9">
  <path fill="#91A6B6" fill-rule="evenodd" d="M2.19141758,5.64453329 L2.26105073,5.45321777 C2.35549699,5.19372882 2.64241816,5.05993528 2.90190711,5.15438153 C3.16139606,5.24882779 3.29518961,5.53574896 3.20074335,5.79523792 L2.71705383,7.12416397 C2.62260757,7.38365292 2.3356864,7.51744646 2.07619744,7.4230002 L0.747271395,6.93931068 C0.487782443,6.84486442 0.353988902,6.55794325 0.448435157,6.2984543 C0.542881411,6.03896534 0.829802587,5.9051718 1.08929154,5.99961806 L1.28126948,6.06949231 C1.09939686,5.58082432 1,5.05201985 1,4.5 C1,2.01471863 3.01471863,0 5.5,0 C7.98528137,0 10,2.01471863 10,4.5 C10,6.98528137 7.98528137,9 5.5,9 C4.84911927,9 4.23051376,8.86181335 3.67192106,8.61317762 L3.67192106,8.61317762 L4.07816082,7.69913815 C4.51262181,7.89252149 4.99375943,8 5.5,8 C7.43299662,8 9,6.43299662 9,4.5 C9,2.56700338 7.43299662,1 5.5,1 C3.56700338,1 2,2.56700338 2,4.5 C2,4.90081657 2.06737504,5.28589685 2.19141758,5.64453329 Z M6,4 L7,4 L7,5 L5,5 L5,2 L6,2 L6,4 Z"/>
</svg>
