<?xml version="1.0" encoding="UTF-8"?>
<svg width="16px" height="16px" viewBox="0 0 16 16" version="1.1" xmlns="http://www.w3.org/2000/svg" xmlns:xlink="http://www.w3.org/1999/xlink">
    <!-- Generator: Sketch 47.1 (45422) - http://www.bohemiancoding.com/sketch -->
    <title>user</title>
    <desc>Created with Sketch.</desc>
    <defs></defs>
    <g id="Symbols" stroke="none" stroke-width="1" fill="none" fill-rule="evenodd">
        <g id="icon-/-misc-/-user" fill="#91A6B6">
            <path d="M13.9080643,11.1966984 C12.6637566,10.5579683 13.1432643,11.0466032 11.6156335,10.3931429 C10.0882489,9.74069841 9.72640275,9.52736508 9.72640275,9.52736508 L9.71286429,8.03073016 C9.71286429,8.03073016 10.2849258,7.58273016 10.4633874,6.16736508 C10.8205566,6.27403175 10.9414181,5.73536508 10.9608643,5.3912381 C10.9820335,5.05879365 11.1720643,4.02260317 10.7351412,4.11504762 C10.8244951,3.4232381 10.8946489,2.79771429 10.8631412,2.46653968 C10.7538489,1.30438095 10.1200027,0.000194655135 8.11231039,0 C6.10461806,-0.000194655135 5.25255659,1.30514286 5.13999939,2.46730159 C5.11151044,2.79847619 5.17575659,3.42349206 5.6700058,4.11657143 C4.82843352,4.02285714 5.01649505,5.06107937 5.04000092,5.39326984 C5.05686429,5.73739683 5.17501813,6.2775873 5.53292582,6.17092063 C5.7106489,7.58653968 6.28271044,8.03784127 6.28271044,8.03784127 L6.26843352,9.54260317 C6.26843352,9.54260317 5.90658736,9.7704127 4.37920275,10.4228571 C2.85181813,11.0765714 3.33083352,10.5582222 2.08652582,11.1966984 C0.120002747,12.2062222 1.77635684e-15,15.2363179 1.77635684e-15,15.2363179 C1.77635684e-15,15.2363179 0.5,16 1,16 L15,16 C15.5,16 16,15.2399902 16,15.2399902 C16,15.2399902 15.8740951,12.2057143 13.9080643,11.1966984 Z" id="user"></path>
        </g>
    </g>
</svg>