<svg xmlns="http://www.w3.org/2000/svg" width="16" height="10" viewBox="0 0 16 10">
  <path fill="#329798" fill-rule="evenodd" d="M7.99984376,3.24403687 C7.17140525,3.24403687 6.49995508,3.96954626 6.49995508,4.86468331 C6.49995508,5.75982035 7.17140525,6.48532974 7.99984376,6.48532974 C8.82828228,6.48532974 9.49973244,5.75982035 9.49973244,4.86468331 C9.49973244,3.96954626 8.82828228,3.24403687 7.99984376,3.24403687 L7.99984376,3.24403687 Z M15.9985001,4.96705414 C15.9982501,4.95949112 15.9975002,4.95246832 15.9970002,4.94517541 C15.9967502,4.9413939 15.9962503,4.9376124 15.9957503,4.93410099 C15.9957503,4.92869884 15.9947504,4.92356679 15.9937505,4.91843475 C15.9932505,4.91222227 15.9927505,4.90600979 15.9917506,4.90006742 C15.9912506,4.8992571 15.9912506,4.89844677 15.9912506,4.89763645 C15.9717521,4.76096193 15.9132564,4.63266076 15.8240131,4.53407143 C15.3135509,3.86528467 14.706346,3.26996721 14.0891418,2.72651044 C12.7597405,1.55505318 11.2388534,0.575372409 9.56047793,0.180745003 C8.59004996,-0.0472259291 7.61412239,-0.0566797 6.63869478,0.136177226 C5.75151063,0.311477148 4.89657408,0.676392704 4.09638347,1.12855306 C2.84372644,1.83623534 1.69981134,2.81159438 0.703135314,3.90526062 C0.518649007,4.10757131 0.335162625,4.31420373 0.167425074,4.53407143 C-0.055808358,4.82659811 -0.055808358,5.17341645 0.167425074,5.46621324 C0.677887188,6.135 1.28484214,6.72977724 1.90229631,7.27350412 C3.23219761,8.44496139 4.75283475,9.42437205 6.43146017,9.81899946 C7.40163816,10.0469704 8.37831567,10.0569644 9.35324331,9.86383734 C10.2401775,9.68826731 11.095114,9.32362186 11.8958046,8.87173161 C13.1484616,8.16377923 14.2921268,7.18869029 15.2890528,6.09502406 C15.4732891,5.89244325 15.6567755,5.68608094 15.824763,5.46621324 C15.9140064,5.3670837 15.972502,5.23932274 15.9920006,5.10210801 C15.9920006,5.10129769 15.9925006,5.10048736 15.9925006,5.09994715 C15.9935005,5.09373467 15.9940004,5.0877923 15.9945004,5.08157982 C15.9955003,5.07644777 15.9960003,5.07104562 15.9965003,5.06591357 C15.9970002,5.06186196 15.9972502,5.05862066 15.9977502,5.05483915 C15.9982501,5.04781635 15.9987501,5.04079355 15.9992501,5.03323054 C15.99975,5.02215612 16,5.01135181 16,5.00027739 C15.9995,4.98866276 15.9987501,4.97785845 15.9985001,4.96705414 L15.9985001,4.96705414 Z M7.99984376,8.10597617 C6.34321671,8.10597617 5.0000664,6.6549574 5.0000664,4.86468331 C5.0000664,3.07440921 6.34296673,1.62339044 7.99984376,1.62339044 C9.65672079,1.62339044 10.9996211,3.07467932 10.9996211,4.86468331 C10.9996211,6.6549574 9.65647081,8.10597617 7.99984376,8.10597617 L7.99984376,8.10597617 Z"/>
</svg>
